<svg xmlns="http://www.w3.org/2000/svg" xmlns:xlink="http://www.w3.org/1999/xlink" width="190" zoomAndPan="magnify" viewBox="0 0 142.5 142.499995" height="190" preserveAspectRatio="xMidYMid meet" version="1.0"><defs><clipPath id="a6eac24cf9"><path d="M 2.554688 5.097656 L 139.804688 5.097656 L 139.804688 128 L 2.554688 128 Z M 2.554688 5.097656 " clip-rule="nonzero"/></clipPath></defs><g clip-path="url(#a6eac24cf9)"><path fill="#000000" d="M 119.722656 73.460938 C 119.578125 71.777344 119.292969 70.136719 118.84375 68.53125 C 117.203125 62.667969 114.660156 57.246094 110.855469 52.457031 C 110.128906 51.546875 109.3125 50.722656 108.453125 49.941406 C 108.246094 49.75 108.027344 49.5625 107.847656 49.347656 C 107.378906 48.773438 107.472656 48.242188 108.113281 47.863281 C 108.800781 47.460938 109.554688 47.214844 110.308594 46.972656 C 110.902344 46.78125 111.496094 46.597656 112.082031 46.386719 C 112.335938 46.292969 112.570312 46.191406 112.746094 45.914062 C 113.046875 45.453125 113.78125 45.457031 114 45.953125 C 114.445312 46.964844 115.242188 47.699219 115.867188 48.566406 C 118.664062 52.441406 120.597656 56.71875 122.078125 61.238281 C 123.515625 65.621094 124.40625 70.097656 124.820312 74.679688 C 124.84375 74.929688 124.820312 75.195312 125.011719 75.457031 C 126.019531 75.15625 127.042969 74.851562 128.109375 74.722656 C 130.28125 74.457031 132.347656 74.683594 134.199219 75.976562 C 134.949219 76.503906 135.550781 77.175781 136.058594 77.9375 C 137.617188 80.292969 138.554688 82.894531 138.875 85.683594 C 139.789062 93.582031 138.105469 100.878906 133.617188 107.472656 C 130.90625 111.453125 127.386719 114.632812 123.476562 117.402344 C 117.089844 121.921875 110.007812 124.773438 102.351562 126.246094 C 99.59375 126.777344 96.792969 126.972656 93.996094 127.125 C 88.902344 127.402344 83.804688 127.339844 78.707031 127.375 C 78.363281 127.375 78.011719 127.394531 77.804688 127.042969 C 77.578125 126.65625 77.773438 126.332031 77.980469 126.023438 C 80.316406 122.503906 81.480469 118.5625 82.121094 114.449219 C 82.980469 108.96875 83.898438 103.507812 85.34375 98.136719 C 87.292969 90.898438 90.628906 84.371094 95.265625 78.507812 C 97.613281 75.542969 100.511719 73.207031 103.90625 71.5 C 105.675781 70.605469 107.546875 70.113281 109.527344 70.03125 C 111.464844 69.953125 113.273438 70.53125 115.0625 71.15625 C 116.691406 71.722656 118.265625 72.421875 119.722656 73.460938 Z M 79.351562 126.078125 C 79.648438 126.277344 79.878906 126.222656 80.101562 126.222656 C 83.585938 126.234375 87.070312 126.238281 90.550781 126.125 C 93.410156 126.03125 96.269531 125.910156 99.113281 125.582031 C 103.324219 125.097656 107.398438 124.035156 111.359375 122.539062 C 118.542969 119.816406 124.910156 115.828125 130.070312 110.101562 C 136.371094 103.109375 138.835938 94.851562 137.703125 85.527344 C 137.382812 82.910156 136.457031 80.480469 134.925781 78.304688 C 134.097656 77.117188 132.96875 76.347656 131.566406 76 C 129.492188 75.488281 127.464844 75.785156 125.460938 76.414062 C 125.09375 76.527344 125.003906 76.75 125.027344 77.113281 C 125.09375 78.242188 125.148438 79.375 125.179688 80.507812 C 125.28125 84.28125 125.128906 88.035156 124.28125 91.738281 C 123.503906 95.128906 122.351562 98.363281 120.382812 101.269531 C 116.867188 106.460938 112.351562 110.527344 106.726562 113.335938 C 103.8125 114.789062 100.878906 116.203125 97.78125 117.238281 C 96.796875 117.566406 95.808594 117.726562 94.78125 117.476562 C 94.449219 117.394531 94.046875 117.40625 93.945312 117.015625 C 93.839844 116.613281 94.019531 116.226562 94.296875 115.933594 C 94.464844 115.753906 94.703125 115.625 94.933594 115.523438 C 95.65625 115.199219 96.375 114.859375 97.121094 114.597656 C 98.804688 113.996094 100.425781 113.257812 101.992188 112.402344 C 104.253906 111.164062 106.511719 109.925781 108.53125 108.300781 C 110.324219 106.855469 111.917969 105.207031 113.488281 103.535156 C 116 100.867188 117.765625 97.773438 118.765625 94.25 C 119.347656 92.203125 119.726562 90.113281 120.050781 88.015625 C 120.660156 84.070312 120.53125 80.113281 120.179688 76.15625 C 120.136719 75.640625 119.933594 75.261719 119.542969 74.921875 C 117.011719 72.726562 113.960938 71.710938 110.734375 71.238281 C 108.402344 70.894531 106.1875 71.574219 104.113281 72.660156 C 100.589844 74.511719 97.695312 77.085938 95.324219 80.265625 C 90.878906 86.222656 87.789062 92.804688 86.015625 100.027344 C 84.855469 104.734375 84.050781 109.5 83.300781 114.285156 C 82.832031 117.285156 82.148438 120.230469 80.898438 123.019531 C 80.4375 124.046875 79.902344 125.039062 79.351562 126.078125 Z M 95.90625 116.472656 C 96.75 116.46875 97.378906 116.195312 98.003906 115.957031 C 100.707031 114.929688 103.324219 113.714844 105.917969 112.441406 C 109.910156 110.480469 113.382812 107.84375 116.347656 104.542969 C 118.617188 102.015625 120.535156 99.273438 121.757812 96.074219 C 123.398438 91.78125 124.027344 87.324219 124.046875 82.761719 C 124.0625 79.449219 123.820312 76.148438 123.445312 72.855469 C 122.785156 67.039062 121.210938 61.480469 118.875 56.132812 C 117.519531 53.03125 115.75 50.171875 113.597656 47.546875 C 113.320312 47.210938 113.105469 47.097656 112.683594 47.300781 C 112.023438 47.625 111.316406 47.835938 110.613281 48.0625 C 110.066406 48.242188 109.496094 48.398438 109.046875 48.730469 C 109.050781 48.933594 109.148438 49.003906 109.234375 49.074219 C 111.035156 50.621094 112.453125 52.492188 113.757812 54.453125 C 118.664062 61.828125 121.109375 70 121.570312 78.804688 C 121.8125 83.441406 121.460938 88.019531 120.410156 92.550781 C 119.808594 95.160156 119.015625 97.703125 117.597656 99.980469 C 114.929688 104.273438 111.4375 107.8125 107.265625 110.636719 C 104.097656 112.785156 100.738281 114.609375 97.09375 115.855469 C 96.726562 115.980469 96.339844 116.089844 95.90625 116.472656 Z M 34.285156 111.890625 C 34.414062 112.191406 34.695312 112.3125 34.917969 112.488281 C 40.410156 116.796875 46.640625 119.566406 53.375 121.269531 C 55.109375 121.710938 56.847656 121.976562 58.644531 121.8125 C 59.621094 121.722656 60.003906 122.125 59.921875 123.097656 C 59.816406 124.402344 59.65625 125.703125 59.515625 127.007812 C 59.472656 127.410156 59.246094 127.535156 58.84375 127.648438 C 57.300781 128.078125 55.789062 127.730469 54.273438 127.570312 C 50.265625 127.148438 46.347656 126.316406 42.589844 124.816406 C 38.417969 123.148438 34.582031 120.933594 31.238281 117.914062 C 30.914062 117.617188 30.707031 117.605469 30.363281 117.875 C 28.980469 118.960938 27.496094 119.878906 25.757812 120.285156 C 22.882812 120.957031 19.984375 121.015625 17.101562 120.34375 C 15.046875 119.863281 13.292969 118.765625 11.734375 117.367188 C 8.835938 114.769531 6.835938 111.550781 5.332031 108 C 3.996094 104.847656 3.050781 101.585938 2.769531 98.15625 C 2.550781 95.445312 2.71875 92.75 3.136719 90.0625 C 4.214844 83.171875 6.597656 76.738281 9.925781 70.632812 C 11.121094 68.433594 12.292969 66.222656 13.585938 64.078125 C 14.800781 62.058594 15.917969 59.984375 17.007812 57.894531 C 17.089844 57.738281 17.160156 57.578125 17.242188 57.425781 C 17.78125 56.464844 18.429688 56.40625 18.984375 57.382812 C 20.761719 60.515625 23.371094 62.855469 26.125 65.085938 C 29.183594 67.554688 32.132812 70.15625 35.011719 72.835938 C 39.554688 77.0625 42.132812 82.328125 43.257812 88.363281 C 43.726562 90.886719 44.023438 93.433594 43.941406 96.007812 C 43.863281 98.457031 43.667969 100.910156 42.761719 103.214844 C 41.457031 106.539062 39.375 109.226562 36.101562 110.863281 C 35.480469 111.171875 34.847656 111.476562 34.285156 111.890625 Z M 29.949219 116.714844 C 29.707031 116.429688 29.503906 116.1875 29.300781 115.953125 C 29.070312 115.6875 28.832031 115.433594 28.609375 115.160156 C 24.128906 109.671875 21.019531 103.464844 18.96875 96.703125 C 18.121094 93.90625 17.75 91.015625 17.484375 88.113281 C 17.1875 84.804688 17.027344 81.488281 17.238281 78.167969 C 17.285156 77.441406 17.402344 76.71875 17.628906 76.023438 C 17.894531 75.195312 18.503906 75.003906 19.277344 75.40625 C 19.867188 75.71875 19.933594 76.257812 19.980469 76.8125 C 20.171875 79.046875 20.332031 81.285156 20.53125 83.515625 C 20.691406 85.3125 20.773438 87.125 21.148438 88.894531 C 22.503906 95.300781 25.007812 101.203125 28.984375 106.445312 C 30.023438 107.820312 31.109375 109.148438 32.347656 110.34375 C 32.960938 110.9375 33.195312 110.96875 33.96875 110.5625 C 34.742188 110.160156 35.511719 109.746094 36.285156 109.335938 C 36.878906 109.023438 37.414062 108.625 37.90625 108.160156 C 40.480469 105.726562 42 102.777344 42.414062 99.238281 C 42.773438 96.175781 42.679688 93.140625 42.25 90.097656 C 41.273438 83.167969 38.339844 77.316406 33.007812 72.679688 C 29.753906 69.851562 26.496094 67.035156 23.183594 64.277344 C 21.359375 62.757812 19.753906 61.039062 18.519531 58.996094 C 18.425781 58.84375 18.378906 58.617188 18.09375 58.597656 C 17.488281 59.726562 16.90625 60.867188 16.273438 61.976562 C 14.375 65.285156 12.421875 68.558594 10.675781 71.957031 C 8.679688 75.847656 6.863281 79.808594 5.757812 84.0625 C 4.835938 87.59375 4.070312 91.144531 3.957031 94.804688 C 3.78125 100.523438 5.371094 105.789062 8.113281 110.746094 C 9.234375 112.769531 10.613281 114.605469 12.320312 116.183594 C 14 117.734375 15.898438 118.886719 18.183594 119.273438 C 20.714844 119.703125 23.238281 119.621094 25.726562 118.992188 C 27.296875 118.597656 28.65625 117.769531 29.949219 116.714844 Z M 18.710938 77.652344 C 18.464844 78.390625 18.480469 79.058594 18.46875 79.71875 C 18.417969 82.457031 18.550781 85.1875 18.796875 87.917969 C 19.042969 90.644531 19.394531 93.355469 20.140625 95.996094 C 21.710938 101.535156 24.195312 106.648438 27.40625 111.414062 C 28.761719 113.421875 30.28125 115.308594 32.089844 116.929688 C 36.125 120.542969 40.808594 123.011719 45.964844 124.601562 C 49.597656 125.722656 53.339844 126.261719 57.105469 126.636719 C 58.550781 126.78125 58.363281 126.824219 58.464844 125.460938 C 58.492188 125.113281 58.550781 124.769531 58.570312 124.421875 C 58.59375 123.992188 58.714844 123.5625 58.566406 123.121094 C 57.167969 123.300781 55.808594 123.164062 54.472656 122.871094 C 49.558594 121.785156 44.863281 120.097656 40.441406 117.675781 C 36.820312 115.695312 33.460938 113.347656 30.5625 110.394531 C 28.675781 108.476562 27.199219 106.230469 25.695312 104.011719 C 24.265625 101.898438 23.292969 99.554688 22.3125 97.222656 C 20.910156 93.882812 19.882812 90.421875 19.503906 86.808594 C 19.191406 83.796875 18.980469 80.777344 18.710938 77.652344 Z M 48.171875 29.484375 C 48.070312 29.46875 47.972656 29.527344 47.878906 29.601562 C 44.445312 32.253906 40.984375 34.871094 37.808594 37.839844 C 36.546875 39.019531 35.457031 40.335938 34.515625 41.785156 C 33.945312 42.664062 33.367188 43.542969 32.75 44.386719 C 32.085938 45.300781 31.582031 45.359375 30.714844 44.664062 C 29.757812 43.894531 28.757812 43.210938 27.59375 42.78125 C 27.121094 42.605469 26.945312 41.761719 27.25 41.199219 C 27.34375 41.019531 27.484375 40.863281 27.605469 40.699219 C 29.460938 38.214844 31.628906 36.023438 33.898438 33.925781 C 36.914062 31.136719 39.902344 28.316406 43.253906 25.917969 C 44.007812 25.378906 44.78125 24.855469 45.5625 24.351562 C 45.863281 24.15625 45.929688 24.011719 45.757812 23.664062 C 45.339844 22.808594 45.46875 21.898438 45.621094 21.003906 C 46.078125 18.359375 47.433594 16.179688 49.203125 14.226562 C 53.308594 9.703125 58.402344 7.003906 64.433594 6.058594 C 70.191406 5.15625 75.660156 6.195312 80.976562 8.421875 C 85.429688 10.289062 89.351562 12.976562 93.046875 16.027344 C 94.800781 17.472656 96.457031 19.027344 98.113281 20.585938 C 100.003906 22.359375 101.925781 24.097656 103.945312 25.726562 C 104.125 25.875 104.3125 26.019531 104.46875 26.1875 C 104.910156 26.671875 104.859375 27.125 104.332031 27.519531 C 104.261719 27.574219 104.183594 27.609375 104.105469 27.652344 C 100.011719 29.972656 96.316406 32.859375 92.671875 35.808594 C 90.085938 37.898438 87.390625 39.824219 84.542969 41.539062 C 80.34375 44.070312 75.839844 45.710938 70.957031 46.222656 C 64.996094 46.839844 59.507812 45.550781 54.578125 42.0625 C 52.3125 40.460938 50.800781 38.292969 49.761719 35.769531 C 48.972656 33.855469 48.296875 31.902344 48.3125 29.785156 C 48.316406 29.675781 48.324219 29.550781 48.171875 29.484375 Z M 103.003906 26.753906 C 102.96875 26.496094 102.792969 26.421875 102.664062 26.316406 C 100.226562 24.367188 97.984375 22.199219 95.703125 20.078125 C 92.304688 16.910156 88.734375 13.960938 84.671875 11.679688 C 80 9.054688 75.066406 7.222656 69.625 7.050781 C 62.957031 6.835938 57.050781 8.785156 52.019531 13.210938 C 50.191406 14.820312 48.617188 16.648438 47.578125 18.882812 C 47.058594 20 46.699219 21.167969 46.679688 22.410156 C 46.667969 23.378906 46.882812 23.492188 47.707031 23.058594 C 53.902344 19.773438 60.515625 18.003906 67.492188 17.511719 C 72.382812 17.164062 77.046875 18.214844 81.628906 19.773438 C 82.285156 20 82.914062 20.320312 83.535156 20.632812 C 84.011719 20.871094 84.289062 21.261719 84.25 21.832031 C 84.152344 23.121094 83.488281 23.671875 82.21875 23.5 C 82.132812 23.488281 82.046875 23.460938 81.960938 23.449219 C 79.71875 23.082031 77.511719 22.539062 75.257812 22.238281 C 73.351562 21.984375 71.4375 21.769531 69.511719 21.867188 C 67.941406 21.945312 66.375 22.109375 64.820312 22.339844 C 62.625 22.660156 60.457031 23.054688 58.394531 23.925781 C 55.601562 25.105469 52.894531 26.460938 50.273438 27.980469 C 50.070312 28.097656 49.878906 28.226562 49.683594 28.355469 C 49.527344 28.464844 49.492188 28.605469 49.496094 28.804688 C 49.542969 31.414062 50.226562 33.859375 51.347656 36.199219 C 52.398438 38.378906 53.90625 40.132812 55.941406 41.460938 C 60.25 44.273438 64.976562 45.4375 70.074219 45.023438 C 74.421875 44.667969 78.523438 43.421875 82.355469 41.308594 C 85.867188 39.375 89.125 37.089844 92.207031 34.539062 C 95.015625 32.214844 97.972656 30.085938 100.976562 28.03125 C 101.644531 27.574219 102.339844 27.167969 103.003906 26.753906 Z M 28.339844 41.75 C 29.417969 42.289062 30.402344 42.789062 31.257812 43.5 C 31.527344 43.726562 31.710938 43.664062 31.890625 43.386719 C 32.414062 42.582031 32.953125 41.785156 33.476562 40.980469 C 34.433594 39.511719 35.539062 38.160156 36.820312 36.964844 C 38.867188 35.054688 41.015625 33.265625 43.222656 31.554688 C 44.949219 30.214844 46.621094 28.804688 48.4375 27.589844 C 50.621094 26.132812 52.96875 24.96875 55.335938 23.84375 C 57.386719 22.871094 59.46875 21.964844 61.714844 21.523438 C 63.140625 21.246094 64.582031 21.058594 66.023438 20.855469 C 69.339844 20.390625 72.636719 20.484375 75.933594 21.007812 C 77.859375 21.3125 79.769531 21.695312 81.675781 22.082031 C 81.933594 22.136719 82.195312 22.140625 82.457031 22.152344 C 82.617188 22.160156 82.753906 22.066406 82.800781 21.929688 C 82.859375 21.753906 82.710938 21.679688 82.574219 21.617188 C 82.363281 21.519531 82.15625 21.414062 81.945312 21.316406 C 80.640625 20.730469 79.257812 20.378906 77.878906 20.011719 C 75.601562 19.402344 73.304688 18.910156 70.929688 18.828125 C 66.738281 18.675781 62.632812 19.226562 58.582031 20.269531 C 53.375 21.613281 48.496094 23.667969 44.152344 26.886719 C 39.269531 30.5 34.875 34.664062 30.636719 38.996094 C 29.828125 39.824219 29.046875 40.6875 28.339844 41.75 Z M 79.351562 126.078125 C 79.902344 125.039062 80.4375 124.046875 80.898438 123.019531 C 82.148438 120.230469 82.832031 117.285156 83.300781 114.285156 C 84.050781 109.5 84.855469 104.734375 86.015625 100.027344 C 87.789062 92.804688 90.878906 86.222656 95.324219 80.265625 C 97.695312 77.085938 100.589844 74.511719 104.113281 72.660156 C 106.1875 71.574219 108.402344 70.894531 110.734375 71.238281 C 113.960938 71.710938 117.011719 72.726562 119.542969 74.921875 C 119.933594 75.261719 120.136719 75.640625 120.179688 76.15625 C 120.53125 80.113281 120.660156 84.070312 120.050781 88.015625 C 119.726562 90.113281 119.347656 92.203125 118.765625 94.25 C 117.765625 97.773438 116 100.867188 113.488281 103.535156 C 111.917969 105.207031 110.324219 106.855469 108.53125 108.300781 C 106.511719 109.925781 104.253906 111.164062 101.992188 112.402344 C 100.425781 113.257812 98.804688 113.996094 97.121094 114.597656 C 96.375 114.859375 95.65625 115.199219 94.933594 115.523438 C 94.703125 115.625 94.464844 115.753906 94.296875 115.933594 C 94.019531 116.226562 93.839844 116.613281 93.945312 117.015625 C 94.046875 117.40625 94.449219 117.394531 94.78125 117.476562 C 95.808594 117.726562 96.796875 117.566406 97.78125 117.238281 C 100.878906 116.203125 103.8125 114.789062 106.726562 113.335938 C 112.351562 110.527344 116.867188 106.460938 120.382812 101.269531 C 122.351562 98.363281 123.503906 95.128906 124.28125 91.738281 C 125.128906 88.035156 125.28125 84.28125 125.179688 80.507812 C 125.148438 79.375 125.09375 78.242188 125.027344 77.113281 C 125.003906 76.75 125.09375 76.527344 125.460938 76.414062 C 127.464844 75.785156 129.492188 75.488281 131.566406 76 C 132.96875 76.347656 134.097656 77.117188 134.925781 78.304688 C 136.457031 80.480469 137.382812 82.910156 137.703125 85.527344 C 138.835938 94.851562 136.371094 103.109375 130.070312 110.101562 C 124.910156 115.828125 118.542969 119.816406 111.359375 122.539062 C 107.398438 124.035156 103.324219 125.097656 99.113281 125.582031 C 96.269531 125.910156 93.410156 126.03125 90.550781 126.125 C 87.070312 126.238281 83.585938 126.234375 80.101562 126.222656 C 79.878906 126.222656 79.648438 126.277344 79.351562 126.078125 Z M 29.300781 115.953125 C 29.070312 115.6875 28.832031 115.433594 28.609375 115.160156 C 24.128906 109.671875 21.019531 103.464844 18.96875 96.703125 C 18.121094 93.90625 17.75 91.015625 17.484375 88.113281 C 17.1875 84.804688 17.027344 81.488281 17.238281 78.167969 C 17.285156 77.441406 17.402344 76.71875 17.628906 76.023438 C 17.894531 75.195312 18.503906 75.003906 19.277344 75.40625 C 19.867188 75.71875 19.933594 76.257812 19.980469 76.8125 C 20.171875 79.046875 20.332031 81.285156 20.53125 83.515625 C 20.691406 85.3125 20.773438 87.125 21.148438 88.894531 C 22.503906 95.300781 25.007812 101.203125 28.984375 106.445312 C 30.023438 107.820312 31.109375 109.148438 32.347656 110.34375 C 32.960938 110.9375 33.195312 110.96875 33.96875 110.5625 C 34.742188 110.160156 35.511719 109.746094 36.285156 109.335938 C 36.878906 109.023438 37.414062 108.625 37.90625 108.160156 C 40.480469 105.726562 42 102.777344 42.414062 99.238281 C 42.773438 96.175781 42.679688 93.140625 42.25 90.097656 C 41.273438 83.167969 38.339844 77.316406 33.007812 72.679688 C 29.753906 69.851562 26.496094 67.035156 23.183594 64.277344 C 21.359375 62.757812 19.753906 61.039062 18.519531 58.996094 C 18.425781 58.84375 18.378906 58.617188 18.09375 58.597656 C 17.488281 59.726562 16.90625 60.867188 16.273438 61.976562 C 14.375 65.285156 12.421875 68.558594 10.675781 71.957031 C 8.679688 75.847656 6.863281 79.808594 5.757812 84.0625 C 4.835938 87.59375 4.070312 91.144531 3.957031 94.804688 C 3.78125 100.523438 5.371094 105.789062 8.113281 110.746094 C 9.234375 112.769531 10.613281 114.605469 12.320312 116.183594 C 14 117.734375 15.898438 118.886719 18.183594 119.273438 C 20.714844 119.703125 23.238281 119.621094 25.726562 118.992188 C 27.296875 118.597656 28.65625 117.769531 29.949219 116.714844 C 29.707031 116.429688 29.503906 116.1875 29.300781 115.953125 Z M 102.664062 26.316406 C 100.226562 24.367188 97.984375 22.199219 95.703125 20.078125 C 92.304688 16.910156 88.734375 13.960938 84.671875 11.679688 C 80 9.054688 75.066406 7.222656 69.625 7.050781 C 62.957031 6.835938 57.050781 8.785156 52.019531 13.210938 C 50.191406 14.820312 48.617188 16.648438 47.578125 18.882812 C 47.058594 20 46.699219 21.167969 46.679688 22.410156 C 46.667969 23.378906 46.882812 23.492188 47.707031 23.058594 C 53.902344 19.773438 60.515625 18.003906 67.492188 17.511719 C 72.382812 17.164062 77.046875 18.214844 81.628906 19.773438 C 82.285156 20 82.914062 20.320312 83.535156 20.632812 C 84.011719 20.871094 84.289062 21.261719 84.25 21.832031 C 84.152344 23.121094 83.488281 23.671875 82.21875 23.5 C 82.132812 23.488281 82.046875 23.460938 81.960938 23.449219 C 79.71875 23.082031 77.511719 22.539062 75.257812 22.238281 C 73.351562 21.984375 71.4375 21.769531 69.511719 21.867188 C 67.941406 21.945312 66.375 22.109375 64.820312 22.339844 C 62.625 22.660156 60.457031 23.054688 58.394531 23.925781 C 55.601562 25.105469 52.894531 26.460938 50.273438 27.980469 C 50.070312 28.097656 49.878906 28.226562 49.683594 28.355469 C 49.527344 28.464844 49.492188 28.605469 49.496094 28.804688 C 49.542969 31.414062 50.226562 33.859375 51.347656 36.199219 C 52.398438 38.378906 53.90625 40.132812 55.941406 41.460938 C 60.25 44.273438 64.976562 45.4375 70.074219 45.023438 C 74.421875 44.667969 78.523438 43.421875 82.355469 41.308594 C 85.867188 39.375 89.125 37.089844 92.207031 34.539062 C 95.015625 32.214844 97.972656 30.085938 100.976562 28.03125 C 101.644531 27.574219 102.339844 27.167969 103.003906 26.753906 C 102.96875 26.496094 102.792969 26.421875 102.664062 26.316406 Z M 95.90625 116.472656 C 96.339844 116.089844 96.726562 115.980469 97.09375 115.855469 C 100.738281 114.609375 104.097656 112.785156 107.265625 110.636719 C 111.4375 107.8125 114.929688 104.273438 117.597656 99.980469 C 119.015625 97.703125 119.808594 95.160156 120.410156 92.550781 C 121.460938 88.019531 121.8125 83.441406 121.570312 78.804688 C 121.109375 70 118.664062 61.828125 113.757812 54.453125 C 112.453125 52.492188 111.035156 50.621094 109.234375 49.074219 C 109.148438 49.003906 109.050781 48.933594 109.046875 48.730469 C 109.496094 48.398438 110.066406 48.242188 110.613281 48.0625 C 111.316406 47.835938 112.023438 47.625 112.683594 47.300781 C 113.105469 47.097656 113.320312 47.210938 113.597656 47.546875 C 115.75 50.171875 117.519531 53.03125 118.875 56.132812 C 121.210938 61.480469 122.785156 67.039062 123.445312 72.855469 C 123.820312 76.148438 124.0625 79.449219 124.046875 82.761719 C 124.027344 87.324219 123.398438 91.78125 121.757812 96.074219 C 120.535156 99.273438 118.617188 102.015625 116.347656 104.542969 C 113.382812 107.84375 109.910156 110.480469 105.917969 112.441406 C 103.324219 113.714844 100.707031 114.929688 98.003906 115.957031 C 97.378906 116.195312 96.75 116.46875 95.90625 116.472656 Z M 18.46875 79.71875 C 18.417969 82.457031 18.550781 85.1875 18.796875 87.917969 C 19.042969 90.644531 19.394531 93.355469 20.140625 95.996094 C 21.710938 101.535156 24.195312 106.648438 27.40625 111.414062 C 28.761719 113.421875 30.28125 115.308594 32.089844 116.929688 C 36.125 120.542969 40.808594 123.011719 45.964844 124.601562 C 49.597656 125.722656 53.339844 126.261719 57.105469 126.636719 C 58.550781 126.78125 58.363281 126.824219 58.464844 125.460938 C 58.492188 125.113281 58.550781 124.769531 58.570312 124.421875 C 58.59375 123.992188 58.714844 123.5625 58.566406 123.121094 C 57.167969 123.300781 55.808594 123.164062 54.472656 122.871094 C 49.558594 121.785156 44.863281 120.097656 40.441406 117.675781 C 36.820312 115.695312 33.460938 113.347656 30.5625 110.394531 C 28.675781 108.476562 27.199219 106.230469 25.695312 104.011719 C 24.265625 101.898438 23.292969 99.554688 22.3125 97.222656 C 20.910156 93.882812 19.882812 90.421875 19.503906 86.808594 C 19.191406 83.796875 18.980469 80.777344 18.710938 77.652344 C 18.464844 78.390625 18.480469 79.058594 18.46875 79.71875 Z M 31.257812 43.5 C 31.527344 43.726562 31.710938 43.664062 31.890625 43.386719 C 32.414062 42.582031 32.953125 41.785156 33.476562 40.980469 C 34.433594 39.511719 35.539062 38.160156 36.820312 36.964844 C 38.867188 35.054688 41.015625 33.265625 43.222656 31.554688 C 44.949219 30.214844 46.621094 28.804688 48.4375 27.589844 C 50.621094 26.132812 52.96875 24.96875 55.335938 23.84375 C 57.386719 22.871094 59.46875 21.964844 61.714844 21.523438 C 63.140625 21.246094 64.582031 21.058594 66.023438 20.855469 C 69.339844 20.390625 72.636719 20.484375 75.933594 21.007812 C 77.859375 21.3125 79.769531 21.695312 81.675781 22.082031 C 81.933594 22.136719 82.195312 22.140625 82.457031 22.152344 C 82.617188 22.160156 82.753906 22.066406 82.800781 21.929688 C 82.859375 21.753906 82.710938 21.679688 82.574219 21.617188 C 82.363281 21.519531 82.15625 21.414062 81.945312 21.316406 C 80.640625 20.730469 79.257812 20.378906 77.878906 20.011719 C 75.601562 19.402344 73.304688 18.910156 70.929688 18.828125 C 66.738281 18.675781 62.632812 19.226562 58.582031 20.269531 C 53.375 21.613281 48.496094 23.667969 44.152344 26.886719 C 39.269531 30.5 34.875 34.664062 30.636719 38.996094 C 29.828125 39.824219 29.046875 40.6875 28.339844 41.75 C 29.417969 42.289062 30.402344 42.789062 31.257812 43.5 Z M 31.257812 43.5 " fill-opacity="1" fill-rule="nonzero"/><path fill="#000000" d="M 119.722656 73.460938 C 119.578125 71.777344 119.292969 70.136719 118.84375 68.53125 C 117.203125 62.667969 114.660156 57.246094 110.855469 52.457031 C 110.128906 51.546875 109.3125 50.722656 108.453125 49.941406 C 108.246094 49.75 108.027344 49.5625 107.847656 49.347656 C 107.378906 48.773438 107.472656 48.242188 108.113281 47.863281 C 108.800781 47.460938 109.554688 47.214844 110.308594 46.972656 C 110.902344 46.78125 111.496094 46.597656 112.082031 46.386719 C 112.335938 46.292969 112.570312 46.191406 112.746094 45.914062 C 113.046875 45.453125 113.78125 45.457031 114 45.953125 C 114.445312 46.964844 115.242188 47.699219 115.867188 48.566406 C 118.664062 52.441406 120.597656 56.71875 122.078125 61.238281 C 123.515625 65.621094 124.40625 70.097656 124.820312 74.679688 C 124.84375 74.929688 124.820312 75.195312 125.011719 75.457031 C 126.019531 75.15625 127.042969 74.851562 128.109375 74.722656 C 130.28125 74.457031 132.347656 74.683594 134.199219 75.976562 C 134.949219 76.503906 135.550781 77.175781 136.058594 77.9375 C 137.617188 80.292969 138.554688 82.894531 138.875 85.683594 C 139.789062 93.582031 138.105469 100.878906 133.617188 107.472656 C 130.90625 111.453125 127.386719 114.632812 123.476562 117.402344 C 117.089844 121.921875 110.007812 124.773438 102.351562 126.246094 C 99.59375 126.777344 96.792969 126.972656 93.996094 127.125 C 88.902344 127.402344 83.804688 127.339844 78.707031 127.375 C 78.363281 127.375 78.011719 127.394531 77.804688 127.042969 C 77.578125 126.65625 77.773438 126.332031 77.980469 126.023438 C 80.316406 122.503906 81.480469 118.5625 82.121094 114.449219 C 82.980469 108.96875 83.898438 103.507812 85.34375 98.136719 C 87.292969 90.898438 90.628906 84.371094 95.265625 78.507812 C 97.613281 75.542969 100.511719 73.207031 103.90625 71.5 C 105.675781 70.605469 107.546875 70.113281 109.527344 70.03125 C 111.464844 69.953125 113.273438 70.53125 115.0625 71.15625 C 116.691406 71.722656 118.265625 72.421875 119.722656 73.460938 Z M 79.351562 126.078125 C 79.648438 126.277344 79.878906 126.222656 80.101562 126.222656 C 83.585938 126.234375 87.070312 126.238281 90.550781 126.125 C 93.410156 126.03125 96.269531 125.910156 99.113281 125.582031 C 103.324219 125.097656 107.398438 124.035156 111.359375 122.539062 C 118.542969 119.816406 124.910156 115.828125 130.070312 110.101562 C 136.371094 103.109375 138.835938 94.851562 137.703125 85.527344 C 137.382812 82.910156 136.457031 80.480469 134.925781 78.304688 C 134.097656 77.117188 132.96875 76.347656 131.566406 76 C 129.492188 75.488281 127.464844 75.785156 125.460938 76.414062 C 125.09375 76.527344 125.003906 76.75 125.027344 77.113281 C 125.09375 78.242188 125.148438 79.375 125.179688 80.507812 C 125.28125 84.28125 125.128906 88.035156 124.28125 91.738281 C 123.503906 95.128906 122.351562 98.363281 120.382812 101.269531 C 116.867188 106.460938 112.351562 110.527344 106.726562 113.335938 C 103.8125 114.789062 100.878906 116.203125 97.78125 117.238281 C 96.796875 117.566406 95.808594 117.726562 94.78125 117.476562 C 94.449219 117.394531 94.046875 117.40625 93.945312 117.015625 C 93.839844 116.613281 94.019531 116.226562 94.296875 115.933594 C 94.464844 115.753906 94.703125 115.625 94.933594 115.523438 C 95.65625 115.199219 96.375 114.859375 97.121094 114.597656 C 98.804688 113.996094 100.425781 113.257812 101.992188 112.402344 C 104.253906 111.164062 106.511719 109.925781 108.53125 108.300781 C 110.324219 106.855469 111.917969 105.207031 113.488281 103.535156 C 116 100.867188 117.765625 97.773438 118.765625 94.25 C 119.347656 92.203125 119.726562 90.113281 120.050781 88.015625 C 120.660156 84.070312 120.53125 80.113281 120.179688 76.15625 C 120.136719 75.640625 119.933594 75.261719 119.542969 74.921875 C 117.011719 72.726562 113.960938 71.710938 110.734375 71.238281 C 108.402344 70.894531 106.1875 71.574219 104.113281 72.660156 C 100.589844 74.511719 97.695312 77.085938 95.324219 80.265625 C 90.878906 86.222656 87.789062 92.804688 86.015625 100.027344 C 84.855469 104.734375 84.050781 109.5 83.300781 114.285156 C 82.832031 117.285156 82.148438 120.230469 80.898438 123.019531 C 80.4375 124.046875 79.902344 125.039062 79.351562 126.078125 Z M 95.90625 116.472656 C 96.75 116.46875 97.378906 116.195312 98.003906 115.957031 C 100.707031 114.929688 103.324219 113.714844 105.917969 112.441406 C 109.910156 110.480469 113.382812 107.84375 116.347656 104.542969 C 118.617188 102.015625 120.535156 99.273438 121.757812 96.074219 C 123.398438 91.78125 124.027344 87.324219 124.046875 82.761719 C 124.0625 79.449219 123.820312 76.148438 123.445312 72.855469 C 122.785156 67.039062 121.210938 61.480469 118.875 56.132812 C 117.519531 53.03125 115.75 50.171875 113.597656 47.546875 C 113.320312 47.210938 113.105469 47.097656 112.683594 47.300781 C 112.023438 47.625 111.316406 47.835938 110.613281 48.0625 C 110.066406 48.242188 109.496094 48.398438 109.046875 48.730469 C 109.050781 48.933594 109.148438 49.003906 109.234375 49.074219 C 111.035156 50.621094 112.453125 52.492188 113.757812 54.453125 C 118.664062 61.828125 121.109375 70 121.570312 78.804688 C 121.8125 83.441406 121.460938 88.019531 120.410156 92.550781 C 119.808594 95.160156 119.015625 97.703125 117.597656 99.980469 C 114.929688 104.273438 111.4375 107.8125 107.265625 110.636719 C 104.097656 112.785156 100.738281 114.609375 97.09375 115.855469 C 96.726562 115.980469 96.339844 116.089844 95.90625 116.472656 Z M 34.285156 111.890625 C 34.414062 112.191406 34.695312 112.3125 34.917969 112.488281 C 40.410156 116.796875 46.640625 119.566406 53.375 121.269531 C 55.109375 121.710938 56.847656 121.976562 58.644531 121.8125 C 59.621094 121.722656 60.003906 122.125 59.921875 123.097656 C 59.816406 124.402344 59.65625 125.703125 59.515625 127.007812 C 59.472656 127.410156 59.246094 127.535156 58.84375 127.648438 C 57.300781 128.078125 55.789062 127.730469 54.273438 127.570312 C 50.265625 127.148438 46.347656 126.316406 42.589844 124.816406 C 38.417969 123.148438 34.582031 120.933594 31.238281 117.914062 C 30.914062 117.617188 30.707031 117.605469 30.363281 117.875 C 28.980469 118.960938 27.496094 119.878906 25.757812 120.285156 C 22.882812 120.957031 19.984375 121.015625 17.101562 120.34375 C 15.046875 119.863281 13.292969 118.765625 11.734375 117.367188 C 8.835938 114.769531 6.835938 111.550781 5.332031 108 C 3.996094 104.847656 3.050781 101.585938 2.769531 98.15625 C 2.550781 95.445312 2.71875 92.75 3.136719 90.0625 C 4.214844 83.171875 6.597656 76.738281 9.925781 70.632812 C 11.121094 68.433594 12.292969 66.222656 13.585938 64.078125 C 14.800781 62.058594 15.917969 59.984375 17.007812 57.894531 C 17.089844 57.738281 17.160156 57.578125 17.242188 57.425781 C 17.78125 56.464844 18.429688 56.40625 18.984375 57.382812 C 20.761719 60.515625 23.371094 62.855469 26.125 65.085938 C 29.183594 67.554688 32.132812 70.15625 35.011719 72.835938 C 39.554688 77.0625 42.132812 82.328125 43.257812 88.363281 C 43.726562 90.886719 44.023438 93.433594 43.941406 96.007812 C 43.863281 98.457031 43.667969 100.910156 42.761719 103.214844 C 41.457031 106.539062 39.375 109.226562 36.101562 110.863281 C 35.480469 111.171875 34.847656 111.476562 34.285156 111.890625 Z M 29.949219 116.714844 C 29.707031 116.429688 29.503906 116.1875 29.300781 115.953125 C 29.070312 115.6875 28.832031 115.433594 28.609375 115.160156 C 24.128906 109.671875 21.019531 103.464844 18.96875 96.703125 C 18.121094 93.90625 17.75 91.015625 17.484375 88.113281 C 17.1875 84.804688 17.027344 81.488281 17.238281 78.167969 C 17.285156 77.441406 17.402344 76.71875 17.628906 76.023438 C 17.894531 75.195312 18.503906 75.003906 19.277344 75.40625 C 19.867188 75.71875 19.933594 76.257812 19.980469 76.8125 C 20.171875 79.046875 20.332031 81.285156 20.53125 83.515625 C 20.691406 85.3125 20.773438 87.125 21.148438 88.894531 C 22.503906 95.300781 25.007812 101.203125 28.984375 106.445312 C 30.023438 107.820312 31.109375 109.148438 32.347656 110.34375 C 32.960938 110.9375 33.195312 110.96875 33.96875 110.5625 C 34.742188 110.160156 35.511719 109.746094 36.285156 109.335938 C 36.878906 109.023438 37.414062 108.625 37.90625 108.160156 C 40.480469 105.726562 42 102.777344 42.414062 99.238281 C 42.773438 96.175781 42.679688 93.140625 42.25 90.097656 C 41.273438 83.167969 38.339844 77.316406 33.007812 72.679688 C 29.753906 69.851562 26.496094 67.035156 23.183594 64.277344 C 21.359375 62.757812 19.753906 61.039062 18.519531 58.996094 C 18.425781 58.84375 18.378906 58.617188 18.09375 58.597656 C 17.488281 59.726562 16.90625 60.867188 16.273438 61.976562 C 14.375 65.285156 12.421875 68.558594 10.675781 71.957031 C 8.679688 75.847656 6.863281 79.808594 5.757812 84.0625 C 4.835938 87.59375 4.070312 91.144531 3.957031 94.804688 C 3.78125 100.523438 5.371094 105.789062 8.113281 110.746094 C 9.234375 112.769531 10.613281 114.605469 12.320312 116.183594 C 14 117.734375 15.898438 118.886719 18.183594 119.273438 C 20.714844 119.703125 23.238281 119.621094 25.726562 118.992188 C 27.296875 118.597656 28.65625 117.769531 29.949219 116.714844 Z M 18.710938 77.652344 C 18.464844 78.390625 18.480469 79.058594 18.46875 79.71875 C 18.417969 82.457031 18.550781 85.1875 18.796875 87.917969 C 19.042969 90.644531 19.394531 93.355469 20.140625 95.996094 C 21.710938 101.535156 24.195312 106.648438 27.40625 111.414062 C 28.761719 113.421875 30.28125 115.308594 32.089844 116.929688 C 36.125 120.542969 40.808594 123.011719 45.964844 124.601562 C 49.597656 125.722656 53.339844 126.261719 57.105469 126.636719 C 58.550781 126.78125 58.363281 126.824219 58.464844 125.460938 C 58.492188 125.113281 58.550781 124.769531 58.570312 124.421875 C 58.59375 123.992188 58.714844 123.5625 58.566406 123.121094 C 57.167969 123.300781 55.808594 123.164062 54.472656 122.871094 C 49.558594 121.785156 44.863281 120.097656 40.441406 117.675781 C 36.820312 115.695312 33.460938 113.347656 30.5625 110.394531 C 28.675781 108.476562 27.199219 106.230469 25.695312 104.011719 C 24.265625 101.898438 23.292969 99.554688 22.3125 97.222656 C 20.910156 93.882812 19.882812 90.421875 19.503906 86.808594 C 19.191406 83.796875 18.980469 80.777344 18.710938 77.652344 Z M 48.171875 29.484375 C 48.070312 29.46875 47.972656 29.527344 47.878906 29.601562 C 44.445312 32.253906 40.984375 34.871094 37.808594 37.839844 C 36.546875 39.019531 35.457031 40.335938 34.515625 41.785156 C 33.945312 42.664062 33.367188 43.542969 32.75 44.386719 C 32.085938 45.300781 31.582031 45.359375 30.714844 44.664062 C 29.757812 43.894531 28.757812 43.210938 27.59375 42.78125 C 27.121094 42.605469 26.945312 41.761719 27.25 41.199219 C 27.34375 41.019531 27.484375 40.863281 27.605469 40.699219 C 29.460938 38.214844 31.628906 36.023438 33.898438 33.925781 C 36.914062 31.136719 39.902344 28.316406 43.253906 25.917969 C 44.007812 25.378906 44.78125 24.855469 45.5625 24.351562 C 45.863281 24.15625 45.929688 24.011719 45.757812 23.664062 C 45.339844 22.808594 45.46875 21.898438 45.621094 21.003906 C 46.078125 18.359375 47.433594 16.179688 49.203125 14.226562 C 53.308594 9.703125 58.402344 7.003906 64.433594 6.058594 C 70.191406 5.15625 75.660156 6.195312 80.976562 8.421875 C 85.429688 10.289062 89.351562 12.976562 93.046875 16.027344 C 94.800781 17.472656 96.457031 19.027344 98.113281 20.585938 C 100.003906 22.359375 101.925781 24.097656 103.945312 25.726562 C 104.125 25.875 104.3125 26.019531 104.46875 26.1875 C 104.910156 26.671875 104.859375 27.125 104.332031 27.519531 C 104.261719 27.574219 104.183594 27.609375 104.105469 27.652344 C 100.011719 29.972656 96.316406 32.859375 92.671875 35.808594 C 90.085938 37.898438 87.390625 39.824219 84.542969 41.539062 C 80.34375 44.070312 75.839844 45.710938 70.957031 46.222656 C 64.996094 46.839844 59.507812 45.550781 54.578125 42.0625 C 52.3125 40.460938 50.800781 38.292969 49.761719 35.769531 C 48.972656 33.855469 48.296875 31.902344 48.3125 29.785156 C 48.316406 29.675781 48.324219 29.550781 48.171875 29.484375 Z M 103.003906 26.753906 C 102.96875 26.496094 102.792969 26.421875 102.664062 26.316406 C 100.226562 24.367188 97.984375 22.199219 95.703125 20.078125 C 92.304688 16.910156 88.734375 13.960938 84.671875 11.679688 C 80 9.054688 75.066406 7.222656 69.625 7.050781 C 62.957031 6.835938 57.050781 8.785156 52.019531 13.210938 C 50.191406 14.820312 48.617188 16.648438 47.578125 18.882812 C 47.058594 20 46.699219 21.167969 46.679688 22.410156 C 46.667969 23.378906 46.882812 23.492188 47.707031 23.058594 C 53.902344 19.773438 60.515625 18.003906 67.492188 17.511719 C 72.382812 17.164062 77.046875 18.214844 81.628906 19.773438 C 82.285156 20 82.914062 20.320312 83.535156 20.632812 C 84.011719 20.871094 84.289062 21.261719 84.25 21.832031 C 84.152344 23.121094 83.488281 23.671875 82.21875 23.5 C 82.132812 23.488281 82.046875 23.460938 81.960938 23.449219 C 79.71875 23.082031 77.511719 22.539062 75.257812 22.238281 C 73.351562 21.984375 71.4375 21.769531 69.511719 21.867188 C 67.941406 21.945312 66.375 22.109375 64.820312 22.339844 C 62.625 22.660156 60.457031 23.054688 58.394531 23.925781 C 55.601562 25.105469 52.894531 26.460938 50.273438 27.980469 C 50.070312 28.097656 49.878906 28.226562 49.683594 28.355469 C 49.527344 28.464844 49.492188 28.605469 49.496094 28.804688 C 49.542969 31.414062 50.226562 33.859375 51.347656 36.199219 C 52.398438 38.378906 53.90625 40.132812 55.941406 41.460938 C 60.25 44.273438 64.976562 45.4375 70.074219 45.023438 C 74.421875 44.667969 78.523438 43.421875 82.355469 41.308594 C 85.867188 39.375 89.125 37.089844 92.207031 34.539062 C 95.015625 32.214844 97.972656 30.085938 100.976562 28.03125 C 101.644531 27.574219 102.339844 27.167969 103.003906 26.753906 Z M 28.339844 41.75 C 29.417969 42.289062 30.402344 42.789062 31.257812 43.5 C 31.527344 43.726562 31.710938 43.664062 31.890625 43.386719 C 32.414062 42.582031 32.953125 41.785156 33.476562 40.980469 C 34.433594 39.511719 35.539062 38.160156 36.820312 36.964844 C 38.867188 35.054688 41.015625 33.265625 43.222656 31.554688 C 44.949219 30.214844 46.621094 28.804688 48.4375 27.589844 C 50.621094 26.132812 52.96875 24.96875 55.335938 23.84375 C 57.386719 22.871094 59.46875 21.964844 61.714844 21.523438 C 63.140625 21.246094 64.582031 21.058594 66.023438 20.855469 C 69.339844 20.390625 72.636719 20.484375 75.933594 21.007812 C 77.859375 21.3125 79.769531 21.695312 81.675781 22.082031 C 81.933594 22.136719 82.195312 22.140625 82.457031 22.152344 C 82.617188 22.160156 82.753906 22.066406 82.800781 21.929688 C 82.859375 21.753906 82.710938 21.679688 82.574219 21.617188 C 82.363281 21.519531 82.15625 21.414062 81.945312 21.316406 C 80.640625 20.730469 79.257812 20.378906 77.878906 20.011719 C 75.601562 19.402344 73.304688 18.910156 70.929688 18.828125 C 66.738281 18.675781 62.632812 19.226562 58.582031 20.269531 C 53.375 21.613281 48.496094 23.667969 44.152344 26.886719 C 39.269531 30.5 34.875 34.664062 30.636719 38.996094 C 29.828125 39.824219 29.046875 40.6875 28.339844 41.75 Z M 28.339844 41.75 " fill-opacity="1" fill-rule="nonzero"/></g><path fill="#7ed957" d="M 79.351562 126.078125 C 79.902344 125.039062 80.4375 124.046875 80.898438 123.019531 C 82.148438 120.230469 82.832031 117.285156 83.300781 114.285156 C 84.050781 109.5 84.855469 104.734375 86.015625 100.027344 C 87.789062 92.804688 90.878906 86.222656 95.324219 80.265625 C 97.695312 77.085938 100.589844 74.511719 104.113281 72.660156 C 106.1875 71.574219 108.402344 70.894531 110.734375 71.238281 C 113.960938 71.710938 117.011719 72.726562 119.542969 74.921875 C 119.933594 75.261719 120.136719 75.640625 120.179688 76.15625 C 120.53125 80.113281 120.660156 84.070312 120.050781 88.015625 C 119.726562 90.113281 119.347656 92.203125 118.765625 94.25 C 117.765625 97.773438 116 100.867188 113.488281 103.535156 C 111.917969 105.207031 110.324219 106.855469 108.53125 108.300781 C 106.511719 109.925781 104.253906 111.164062 101.992188 112.402344 C 100.425781 113.257812 98.804688 113.996094 97.121094 114.597656 C 96.375 114.859375 95.65625 115.199219 94.933594 115.523438 C 94.703125 115.625 94.464844 115.753906 94.296875 115.933594 C 94.019531 116.226562 93.839844 116.613281 93.945312 117.015625 C 94.046875 117.40625 94.449219 117.394531 94.78125 117.476562 C 95.808594 117.726562 96.796875 117.566406 97.78125 117.238281 C 100.878906 116.203125 103.8125 114.789062 106.726562 113.335938 C 112.351562 110.527344 116.867188 106.460938 120.382812 101.269531 C 122.351562 98.363281 123.503906 95.128906 124.28125 91.738281 C 125.128906 88.035156 125.28125 84.28125 125.179688 80.507812 C 125.148438 79.375 125.09375 78.242188 125.027344 77.113281 C 125.003906 76.75 125.09375 76.527344 125.460938 76.414062 C 127.464844 75.785156 129.492188 75.488281 131.566406 76 C 132.96875 76.347656 134.097656 77.117188 134.925781 78.304688 C 136.457031 80.480469 137.382812 82.910156 137.703125 85.527344 C 138.835938 94.851562 136.371094 103.109375 130.070312 110.101562 C 124.910156 115.828125 118.542969 119.816406 111.359375 122.539062 C 107.398438 124.035156 103.324219 125.097656 99.113281 125.582031 C 96.269531 125.910156 93.410156 126.03125 90.550781 126.125 C 87.070312 126.238281 83.585938 126.234375 80.101562 126.222656 C 79.878906 126.222656 79.648438 126.277344 79.351562 126.078125 Z M 29.300781 115.953125 C 29.070312 115.6875 28.832031 115.433594 28.609375 115.160156 C 24.128906 109.671875 21.019531 103.464844 18.96875 96.703125 C 18.121094 93.90625 17.75 91.015625 17.484375 88.113281 C 17.1875 84.804688 17.027344 81.488281 17.238281 78.167969 C 17.285156 77.441406 17.402344 76.71875 17.628906 76.023438 C 17.894531 75.195312 18.503906 75.003906 19.277344 75.40625 C 19.867188 75.71875 19.933594 76.257812 19.980469 76.8125 C 20.171875 79.046875 20.332031 81.285156 20.53125 83.515625 C 20.691406 85.3125 20.773438 87.125 21.148438 88.894531 C 22.503906 95.300781 25.007812 101.203125 28.984375 106.445312 C 30.023438 107.820312 31.109375 109.148438 32.347656 110.34375 C 32.960938 110.9375 33.195312 110.96875 33.96875 110.5625 C 34.742188 110.160156 35.511719 109.746094 36.285156 109.335938 C 36.878906 109.023438 37.414062 108.625 37.90625 108.160156 C 40.480469 105.726562 42 102.777344 42.414062 99.238281 C 42.773438 96.175781 42.679688 93.140625 42.25 90.097656 C 41.273438 83.167969 38.339844 77.316406 33.007812 72.679688 C 29.753906 69.851562 26.496094 67.035156 23.183594 64.277344 C 21.359375 62.757812 19.753906 61.039062 18.519531 58.996094 C 18.425781 58.84375 18.378906 58.617188 18.09375 58.597656 C 17.488281 59.726562 16.90625 60.867188 16.273438 61.976562 C 14.375 65.285156 12.421875 68.558594 10.675781 71.957031 C 8.679688 75.847656 6.863281 79.808594 5.757812 84.0625 C 4.835938 87.59375 4.070312 91.144531 3.957031 94.804688 C 3.78125 100.523438 5.371094 105.789062 8.113281 110.746094 C 9.234375 112.769531 10.613281 114.605469 12.320312 116.183594 C 14 117.734375 15.898438 118.886719 18.183594 119.273438 C 20.714844 119.703125 23.238281 119.621094 25.726562 118.992188 C 27.296875 118.597656 28.65625 117.769531 29.949219 116.714844 C 29.707031 116.429688 29.503906 116.1875 29.300781 115.953125 Z M 102.664062 26.316406 C 100.226562 24.367188 97.984375 22.199219 95.703125 20.078125 C 92.304688 16.910156 88.734375 13.960938 84.671875 11.679688 C 80 9.054688 75.066406 7.222656 69.625 7.050781 C 62.957031 6.835938 57.050781 8.785156 52.019531 13.210938 C 50.191406 14.820312 48.617188 16.648438 47.578125 18.882812 C 47.058594 20 46.699219 21.167969 46.679688 22.410156 C 46.667969 23.378906 46.882812 23.492188 47.707031 23.058594 C 53.902344 19.773438 60.515625 18.003906 67.492188 17.511719 C 72.382812 17.164062 77.046875 18.214844 81.628906 19.773438 C 82.285156 20 82.914062 20.320312 83.535156 20.632812 C 84.011719 20.871094 84.289062 21.261719 84.25 21.832031 C 84.152344 23.121094 83.488281 23.671875 82.21875 23.5 C 82.132812 23.488281 82.046875 23.460938 81.960938 23.449219 C 79.71875 23.082031 77.511719 22.539062 75.257812 22.238281 C 73.351562 21.984375 71.4375 21.769531 69.511719 21.867188 C 67.941406 21.945312 66.375 22.109375 64.820312 22.339844 C 62.625 22.660156 60.457031 23.054688 58.394531 23.925781 C 55.601562 25.105469 52.894531 26.460938 50.273438 27.980469 C 50.070312 28.097656 49.878906 28.226562 49.683594 28.355469 C 49.527344 28.464844 49.492188 28.605469 49.496094 28.804688 C 49.542969 31.414062 50.226562 33.859375 51.347656 36.199219 C 52.398438 38.378906 53.90625 40.132812 55.941406 41.460938 C 60.25 44.273438 64.976562 45.4375 70.074219 45.023438 C 74.421875 44.667969 78.523438 43.421875 82.355469 41.308594 C 85.867188 39.375 89.125 37.089844 92.207031 34.539062 C 95.015625 32.214844 97.972656 30.085938 100.976562 28.03125 C 101.644531 27.574219 102.339844 27.167969 103.003906 26.753906 C 102.96875 26.496094 102.792969 26.421875 102.664062 26.316406 Z M 102.664062 26.316406 " fill-opacity="1" fill-rule="nonzero"/><path fill="#7ed957" d="M 95.90625 116.472656 C 96.339844 116.089844 96.726562 115.980469 97.09375 115.855469 C 100.738281 114.609375 104.097656 112.785156 107.265625 110.636719 C 111.4375 107.8125 114.929688 104.273438 117.597656 99.980469 C 119.015625 97.703125 119.808594 95.160156 120.410156 92.550781 C 121.460938 88.019531 121.8125 83.441406 121.570312 78.804688 C 121.109375 70 118.664062 61.828125 113.757812 54.453125 C 112.453125 52.492188 111.035156 50.621094 109.234375 49.074219 C 109.148438 49.003906 109.050781 48.933594 109.046875 48.730469 C 109.496094 48.398438 110.066406 48.242188 110.613281 48.0625 C 111.316406 47.835938 112.023438 47.625 112.683594 47.300781 C 113.105469 47.097656 113.320312 47.210938 113.597656 47.546875 C 115.75 50.171875 117.519531 53.03125 118.875 56.132812 C 121.210938 61.480469 122.785156 67.039062 123.445312 72.855469 C 123.820312 76.148438 124.0625 79.449219 124.046875 82.761719 C 124.027344 87.324219 123.398438 91.78125 121.757812 96.074219 C 120.535156 99.273438 118.617188 102.015625 116.347656 104.542969 C 113.382812 107.84375 109.910156 110.480469 105.917969 112.441406 C 103.324219 113.714844 100.707031 114.929688 98.003906 115.957031 C 97.378906 116.195312 96.75 116.46875 95.90625 116.472656 Z M 18.46875 79.71875 C 18.417969 82.457031 18.550781 85.1875 18.796875 87.917969 C 19.042969 90.644531 19.394531 93.355469 20.140625 95.996094 C 21.710938 101.535156 24.195312 106.648438 27.40625 111.414062 C 28.761719 113.421875 30.28125 115.308594 32.089844 116.929688 C 36.125 120.542969 40.808594 123.011719 45.964844 124.601562 C 49.597656 125.722656 53.339844 126.261719 57.105469 126.636719 C 58.550781 126.78125 58.363281 126.824219 58.464844 125.460938 C 58.492188 125.113281 58.550781 124.769531 58.570312 124.421875 C 58.59375 123.992188 58.714844 123.5625 58.566406 123.121094 C 57.167969 123.300781 55.808594 123.164062 54.472656 122.871094 C 49.558594 121.785156 44.863281 120.097656 40.441406 117.675781 C 36.820312 115.695312 33.460938 113.347656 30.5625 110.394531 C 28.675781 108.476562 27.199219 106.230469 25.695312 104.011719 C 24.265625 101.898438 23.292969 99.554688 22.3125 97.222656 C 20.910156 93.882812 19.882812 90.421875 19.503906 86.808594 C 19.191406 83.796875 18.980469 80.777344 18.710938 77.652344 C 18.464844 78.390625 18.480469 79.058594 18.46875 79.71875 Z M 31.257812 43.5 C 31.527344 43.726562 31.710938 43.664062 31.890625 43.386719 C 32.414062 42.582031 32.953125 41.785156 33.476562 40.980469 C 34.433594 39.511719 35.539062 38.160156 36.820312 36.964844 C 38.867188 35.054688 41.015625 33.265625 43.222656 31.554688 C 44.949219 30.214844 46.621094 28.804688 48.4375 27.589844 C 50.621094 26.132812 52.96875 24.96875 55.335938 23.84375 C 57.386719 22.871094 59.46875 21.964844 61.714844 21.523438 C 63.140625 21.246094 64.582031 21.058594 66.023438 20.855469 C 69.339844 20.390625 72.636719 20.484375 75.933594 21.007812 C 77.859375 21.3125 79.769531 21.695312 81.675781 22.082031 C 81.933594 22.136719 82.195312 22.140625 82.457031 22.152344 C 82.617188 22.160156 82.753906 22.066406 82.800781 21.929688 C 82.859375 21.753906 82.710938 21.679688 82.574219 21.617188 C 82.363281 21.519531 82.15625 21.414062 81.945312 21.316406 C 80.640625 20.730469 79.257812 20.378906 77.878906 20.011719 C 75.601562 19.402344 73.304688 18.910156 70.929688 18.828125 C 66.738281 18.675781 62.632812 19.226562 58.582031 20.269531 C 53.375 21.613281 48.496094 23.667969 44.152344 26.886719 C 39.269531 30.5 34.875 34.664062 30.636719 38.996094 C 29.828125 39.824219 29.046875 40.6875 28.339844 41.75 C 29.417969 42.289062 30.402344 42.789062 31.257812 43.5 Z M 31.257812 43.5 " fill-opacity="1" fill-rule="nonzero"/></svg>