<svg xmlns="http://www.w3.org/2000/svg" xmlns:xlink="http://www.w3.org/1999/xlink" width="90" zoomAndPan="magnify" viewBox="0 0 67.5 67.499996" height="90" preserveAspectRatio="xMidYMid meet" version="1.0"><defs><clipPath id="2d5271efaa"><path d="M 5.152344 32 L 22 32 L 22 60 L 5.152344 60 Z M 5.152344 32 " clip-rule="nonzero"/></clipPath><clipPath id="20fde30457"><path d="M 5.152344 10 L 20 10 L 20 32 L 5.152344 32 Z M 5.152344 10 " clip-rule="nonzero"/></clipPath><clipPath id="0d758178ee"><path d="M 21 50 L 45 50 L 45 62.683594 L 21 62.683594 Z M 21 50 " clip-rule="nonzero"/></clipPath><clipPath id="59ff07b357"><path d="M 44 34 L 62.152344 34 L 62.152344 61 L 44 61 Z M 44 34 " clip-rule="nonzero"/></clipPath></defs><path fill="#f79334" d="M 37.015625 34.152344 C 37.015625 34.199219 37.011719 34.25 36.988281 34.34375 C 36.800781 36.050781 35.699219 37.214844 34.042969 37.460938 C 33.304688 37.570312 32.492188 37.304688 31.820312 36.726562 C 31.140625 36.148438 30.726562 35.347656 30.71875 34.59375 C 30.707031 33.5 31.21875 32.316406 31.996094 31.640625 C 32.449219 31.242188 32.972656 31.039062 33.523438 31.039062 C 33.640625 31.039062 33.761719 31.046875 33.878906 31.066406 C 35.859375 31.371094 36.882812 32.320312 37.003906 34.003906 C 37.015625 34.039062 37.015625 34.078125 37.015625 34.152344 Z M 35.488281 30.699219 C 34.152344 30.027344 32.617188 29.960938 31.480469 30.527344 C 30.589844 30.976562 30.015625 31.773438 29.816406 32.839844 C 29.492188 34.574219 29.855469 36.394531 30.746094 37.472656 C 31.378906 38.238281 32.269531 38.644531 33.316406 38.644531 C 35.628906 38.644531 36.566406 37.964844 37.335938 35.726562 C 37.925781 33.378906 37.273438 31.59375 35.488281 30.699219 " fill-opacity="1" fill-rule="nonzero"/><path fill="#f79334" d="M 38.335938 35.855469 C 38.328125 35.898438 38.320312 35.945312 38.308594 35.984375 L 38.253906 36.148438 C 37.84375 37.335938 37.457031 38.453125 36.351562 39.128906 C 35.226562 39.800781 33.355469 39.8125 31.996094 39.527344 C 30.976562 39.3125 30.125 38.664062 29.535156 37.65625 C 28.660156 36.164062 28.421875 33.925781 28.953125 32.214844 C 29.355469 30.929688 30.246094 29.933594 31.46875 29.410156 C 32.738281 28.867188 34.1875 28.914062 35.445312 29.546875 L 35.8125 29.726562 C 36.964844 30.289062 38.152344 30.875 38.34375 32.21875 C 38.488281 33.234375 38.621094 34.566406 38.335938 35.855469 Z M 29.992188 28.109375 C 27.691406 29.429688 26.707031 31.164062 26.792969 33.734375 C 26.855469 35.511719 27.007812 37.394531 28.097656 39.1875 C 29.121094 40.863281 30.847656 41.488281 32.660156 41.488281 C 34.421875 41.488281 36.269531 40.894531 37.621094 40.101562 C 38.980469 39.355469 39.957031 37.972656 40.367188 36.207031 C 40.871094 34.050781 40.472656 31.6875 39.324219 30.042969 C 37.285156 27.117188 33.1875 26.265625 29.992188 28.109375 " fill-opacity="1" fill-rule="nonzero"/><path fill="#f79334" d="M 51.21875 11.925781 C 51.183594 11.894531 51.132812 11.878906 51.082031 11.886719 C 51.027344 11.890625 50.984375 11.917969 50.953125 11.960938 C 50.859375 12.089844 50.746094 12.207031 50.625 12.332031 C 50.53125 12.429688 50.433594 12.535156 50.339844 12.644531 C 50.265625 12.734375 50.179688 12.820312 50.089844 12.90625 C 49.902344 13.089844 49.710938 13.277344 49.601562 13.515625 C 49.546875 13.636719 49.417969 13.722656 49.25 13.742188 C 49.234375 13.742188 49.21875 13.746094 49.203125 13.75 C 49.078125 13.800781 48.953125 13.78125 48.820312 13.6875 C 47.792969 12.976562 46.683594 12.316406 45.523438 11.722656 C 45.4375 11.679688 45.332031 11.707031 45.28125 11.789062 C 45.046875 12.160156 44.808594 12.527344 44.566406 12.894531 C 43.925781 13.871094 43.257812 14.882812 42.746094 15.953125 L 42.609375 16.238281 C 42.171875 17.148438 41.761719 18.015625 41.183594 18.820312 C 41.105469 18.929688 41.019531 19.039062 40.9375 19.15625 C 40.398438 19.878906 39.792969 20.699219 39.699219 21.589844 C 39.691406 21.644531 39.675781 21.699219 39.652344 21.769531 C 39.644531 21.800781 39.640625 21.832031 39.648438 21.863281 C 40.171875 24.5 41.417969 26.921875 42.625 29.265625 L 42.863281 29.734375 C 43.019531 30.039062 43.175781 30.347656 43.332031 30.652344 C 44.304688 32.570312 45.308594 34.554688 46.636719 36.277344 C 46.660156 36.308594 46.695312 36.335938 46.738281 36.34375 C 47.265625 36.484375 47.824219 36.484375 48.355469 36.484375 C 48.792969 36.484375 49.25 36.480469 49.671875 36.558594 C 50.304688 36.679688 51.082031 36.722656 51.832031 36.765625 C 52.207031 36.789062 52.570312 36.808594 52.890625 36.839844 C 53.757812 36.921875 54.621094 37.019531 55.484375 37.113281 C 56.714844 37.253906 57.984375 37.398438 59.246094 37.488281 C 59.25 37.488281 59.253906 37.488281 59.257812 37.488281 C 59.351562 37.488281 59.433594 37.421875 59.445312 37.324219 L 59.527344 36.632812 C 59.535156 36.550781 59.5625 36.410156 59.59375 36.234375 C 59.816406 35.023438 59.898438 34.316406 59.679688 34.046875 C 59.636719 33.988281 59.605469 33.921875 59.578125 33.84375 C 59.566406 33.800781 59.535156 33.761719 59.492188 33.738281 C 59.097656 33.515625 58.171875 33.4375 57.335938 33.382812 L 57.113281 33.371094 C 56.625 33.332031 56.144531 33.277344 55.667969 33.21875 C 54.828125 33.121094 53.964844 33.023438 53.082031 33.023438 C 52.847656 33.023438 52.613281 33.027344 52.378906 33.03125 C 51.59375 33.046875 50.78125 33.066406 50.015625 32.882812 C 49.769531 32.828125 49.566406 32.566406 49.371094 32.316406 C 49.261719 32.179688 49.160156 32.050781 49.046875 31.945312 C 48.972656 31.875 48.921875 31.789062 48.902344 31.703125 C 48.894531 31.660156 48.871094 31.621094 48.835938 31.59375 C 48.75 31.527344 48.652344 31.445312 48.5625 31.335938 C 47.984375 30.671875 47.625 29.761719 47.273438 28.878906 C 47.074219 28.382812 46.871094 27.871094 46.632812 27.414062 C 46.378906 26.929688 46.140625 26.40625 45.910156 25.898438 C 45.539062 25.070312 45.148438 24.21875 44.667969 23.460938 C 44.644531 23.425781 44.609375 23.398438 44.5625 23.382812 C 44.433594 23.34375 44.28125 23.238281 44.3125 22.964844 C 44.488281 21.605469 45.0625 20.46875 45.871094 19.171875 L 45.976562 19.003906 C 46.464844 18.226562 47.199219 17.054688 47.949219 16.550781 C 50.027344 15.148438 50.851562 15.871094 52.375 17.976562 C 52.804688 18.570312 53.289062 19.117188 53.757812 19.648438 C 54.332031 20.304688 54.929688 20.980469 55.414062 21.726562 C 55.863281 22.425781 56.21875 23.210938 56.558594 23.972656 C 56.742188 24.378906 56.925781 24.789062 57.125 25.183594 C 57.929688 26.800781 58.328125 28.878906 58.34375 31.535156 C 58.34375 31.5625 58.347656 31.585938 58.359375 31.609375 C 58.429688 31.769531 58.410156 31.972656 58.316406 32.121094 C 58.285156 32.175781 58.28125 32.242188 58.308594 32.300781 C 58.332031 32.359375 58.386719 32.398438 58.449219 32.40625 C 59.171875 32.503906 59.675781 32.652344 60.027344 32.871094 C 60.042969 32.882812 60.066406 32.902344 60.082031 32.910156 C 60.101562 32.917969 60.121094 32.925781 60.144531 32.929688 C 60.175781 32.929688 60.207031 32.9375 60.238281 32.949219 C 60.292969 33.03125 60.410156 33.042969 60.46875 33.046875 C 60.492188 33.050781 60.511719 33.050781 60.53125 33.042969 C 60.546875 33.046875 60.5625 33.050781 60.578125 33.050781 L 61.015625 33.050781 C 61.214844 33.050781 61.410156 33.066406 61.605469 33.082031 L 61.796875 33.09375 C 61.851562 33.097656 61.902344 33.078125 61.941406 33.042969 C 61.980469 33.003906 62 32.953125 61.996094 32.898438 C 61.863281 30.40625 61.339844 28.003906 60.792969 25.777344 C 60.707031 25.421875 60.632812 25.019531 60.5625 24.59375 C 60.382812 23.589844 60.183594 22.449219 59.6875 21.65625 C 59.238281 20.949219 58.71875 20.386719 58.164062 19.792969 L 57.824219 19.421875 C 57.019531 18.535156 56.265625 17.582031 55.535156 16.65625 C 54.234375 15.015625 52.886719 13.3125 51.21875 11.925781 " fill-opacity="1" fill-rule="nonzero"/><path fill="#f79334" d="M 48.207031 52.128906 C 48.480469 51.882812 48.839844 51.785156 49.199219 51.785156 C 49.507812 51.785156 49.8125 51.859375 50.0625 51.96875 C 50.1875 52.027344 50.242188 52.152344 50.261719 52.222656 C 50.308594 52.367188 50.296875 52.539062 50.226562 52.65625 C 50.0625 52.9375 49.75 52.929688 49.53125 52.835938 C 49.527344 52.832031 49.523438 52.832031 49.519531 52.828125 C 49.492188 52.816406 49.464844 52.8125 49.4375 52.8125 C 49.429688 52.8125 49.417969 52.8125 49.410156 52.808594 L 49.359375 52.804688 C 49.300781 52.800781 49.238281 52.796875 49.183594 52.800781 C 49.171875 52.800781 49.121094 52.804688 49.058594 52.8125 C 49.03125 52.8125 49.003906 52.816406 48.960938 52.832031 C 48.945312 52.835938 48.925781 52.839844 48.910156 52.851562 C 48.898438 52.855469 48.890625 52.859375 48.878906 52.867188 C 48.691406 53 48.414062 53.039062 48.210938 52.835938 C 48.113281 52.738281 48.0625 52.59375 48.066406 52.445312 C 48.070312 52.316406 48.117188 52.207031 48.207031 52.128906 Z M 47.691406 43.410156 C 47.300781 43.382812 46.984375 43.324219 46.695312 43.117188 C 46.457031 42.941406 46.425781 42.753906 46.382812 42.46875 C 46.371094 42.371094 46.355469 42.273438 46.332031 42.167969 C 46.253906 41.816406 46.144531 41.460938 46.042969 41.125 C 46 40.976562 45.953125 40.828125 45.910156 40.679688 C 45.890625 40.613281 45.832031 40.558594 45.761719 40.546875 C 45.753906 40.546875 45.742188 40.546875 45.730469 40.546875 C 45.671875 40.546875 45.617188 40.574219 45.578125 40.625 C 45.433594 40.835938 45.296875 41.050781 45.160156 41.257812 C 45.054688 41.417969 44.953125 41.574219 44.851562 41.726562 C 44.628906 42.046875 44.269531 41.972656 44.085938 41.84375 C 43.910156 41.722656 43.785156 41.5 43.964844 41.234375 C 44.09375 41.046875 44.226562 40.851562 44.355469 40.652344 C 44.785156 39.996094 45.234375 39.320312 45.769531 38.816406 C 45.917969 38.671875 46.097656 38.628906 46.269531 38.691406 C 46.464844 38.765625 46.605469 38.957031 46.632812 39.191406 C 46.644531 39.3125 46.640625 39.417969 46.617188 39.542969 C 46.613281 39.578125 46.617188 39.617188 46.628906 39.648438 C 46.921875 40.363281 47.171875 41.21875 47.359375 42.125 C 47.308594 42.195312 47.308594 42.292969 47.363281 42.359375 C 47.417969 42.425781 47.503906 42.445312 47.582031 42.410156 C 47.585938 42.410156 47.609375 42.402344 47.683594 42.402344 C 47.71875 42.398438 47.777344 42.40625 47.847656 42.410156 C 48.136719 42.429688 48.355469 42.4375 48.488281 42.34375 C 48.605469 42.261719 48.671875 42.136719 48.679688 41.984375 C 48.695312 41.566406 48.25 41.050781 48.125 40.945312 C 47.886719 40.742188 47.949219 40.496094 48.085938 40.332031 C 48.234375 40.160156 48.558594 39.992188 48.859375 40.246094 C 49.417969 40.726562 49.828125 41.640625 49.546875 42.457031 C 49.296875 43.179688 48.707031 43.484375 47.691406 43.410156 Z M 47.261719 46.335938 C 47.125 46.542969 46.945312 46.578125 46.808594 46.570312 C 46.609375 46.554688 46.414062 46.433594 46.335938 46.269531 C 46.269531 46.136719 46.285156 45.996094 46.382812 45.847656 C 46.433594 45.773438 46.472656 45.699219 46.511719 45.625 C 46.535156 45.578125 46.539062 45.523438 46.523438 45.476562 C 46.503906 45.425781 46.46875 45.386719 46.421875 45.367188 C 46.246094 45.289062 45.992188 45.144531 45.882812 45.078125 C 45.789062 45.015625 45.6875 44.960938 45.585938 44.90625 L 45.441406 44.820312 C 45.414062 44.804688 45.378906 44.796875 45.347656 44.796875 C 45.292969 44.796875 45.234375 44.820312 45.203125 44.867188 C 44.902344 45.25 44.347656 45.460938 43.855469 45.375 C 43.375 45.292969 42.8125 44.992188 42.8125 44.414062 C 42.8125 43.847656 43.21875 43.242188 43.550781 42.753906 L 43.609375 42.667969 C 43.832031 42.347656 44.1875 42.421875 44.371094 42.554688 C 44.546875 42.671875 44.671875 42.898438 44.492188 43.164062 C 44.445312 43.226562 44.394531 43.296875 44.339844 43.371094 C 44.164062 43.625 43.960938 43.90625 43.867188 44.203125 C 43.835938 44.296875 43.886719 44.390625 43.980469 44.425781 C 44.054688 44.453125 44.132812 44.429688 44.183594 44.375 C 44.269531 44.359375 44.363281 44.3125 44.464844 44.160156 C 44.515625 44.078125 44.574219 44 44.621094 43.941406 C 45.054688 43.535156 45.425781 43.632812 46.007812 43.972656 C 46.101562 44.027344 46.199219 44.089844 46.292969 44.148438 C 46.507812 44.285156 46.726562 44.425781 46.980469 44.523438 C 47.320312 44.660156 47.535156 44.808594 47.632812 44.984375 C 47.882812 45.410156 47.539062 45.921875 47.261719 46.335938 Z M 48.296875 49.238281 C 48.296875 49.105469 48.347656 48.984375 48.441406 48.894531 C 48.441406 48.890625 48.441406 48.890625 48.445312 48.890625 C 48.636719 48.699219 48.828125 48.609375 49.117188 48.585938 C 49.128906 48.585938 49.136719 48.585938 49.148438 48.585938 C 49.242188 48.585938 49.339844 48.625 49.425781 48.703125 C 49.535156 48.804688 49.605469 48.953125 49.605469 49.089844 C 49.605469 49.332031 49.453125 49.515625 49.203125 49.578125 C 49.175781 49.585938 49.148438 49.601562 49.128906 49.617188 C 48.925781 49.796875 48.625 49.789062 48.445312 49.605469 C 48.347656 49.511719 48.296875 49.375 48.296875 49.238281 Z M 50.0625 50.195312 L 50.324219 50.199219 C 50.558594 50.203125 50.675781 50.328125 50.734375 50.429688 C 50.828125 50.601562 50.828125 50.835938 50.730469 51 C 50.675781 51.097656 50.558594 51.210938 50.335938 51.210938 C 50.332031 51.210938 50.332031 51.210938 50.328125 51.210938 C 50.226562 51.222656 50.140625 51.207031 50.042969 51.203125 C 49.644531 51.1875 49.191406 51.164062 48.886719 51.382812 C 48.765625 51.46875 48.628906 51.453125 48.558594 51.4375 C 48.410156 51.40625 48.277344 51.3125 48.210938 51.191406 C 48.050781 50.917969 48.191406 50.644531 48.40625 50.492188 C 48.769531 50.234375 49.238281 50.191406 49.71875 50.191406 C 49.832031 50.191406 49.945312 50.195312 50.0625 50.195312 Z M 38.128906 40.972656 C 35.898438 42.285156 33.847656 42.742188 31.871094 42.375 C 29.210938 41.886719 28.113281 41.332031 26.863281 39.003906 C 25.570312 36.613281 25.28125 33.875 26.0625 31.492188 C 26.734375 29.445312 28.125 27.875 30.082031 26.957031 C 31.234375 26.417969 32.519531 26.140625 33.800781 26.140625 C 34.546875 26.140625 35.292969 26.234375 36.007812 26.425781 C 38.078125 26.984375 39.6875 28.296875 40.53125 30.125 C 42.265625 33.859375 41.839844 38.933594 38.128906 40.972656 Z M 31.5625 13.621094 C 32.300781 13.351562 32.8125 13.558594 33.386719 14.375 C 33.632812 14.722656 33.859375 15.117188 33.847656 15.605469 C 33.84375 15.878906 33.679688 16.027344 33.472656 16.210938 C 33.394531 16.285156 33.3125 16.359375 33.238281 16.441406 C 32.980469 16.722656 32.738281 17.027344 32.511719 17.316406 L 32.316406 17.5625 C 32.273438 17.617188 32.265625 17.691406 32.292969 17.753906 C 32.320312 17.820312 32.382812 17.863281 32.453125 17.863281 C 32.742188 17.878906 32.976562 17.875 33.265625 17.875 L 33.601562 17.875 C 33.949219 17.875 34.101562 18.128906 34.101562 18.378906 C 34.101562 18.511719 34.058594 18.640625 33.980469 18.730469 C 33.886719 18.835938 33.761719 18.886719 33.601562 18.886719 C 33.382812 18.886719 33.15625 18.894531 32.925781 18.898438 C 32.164062 18.921875 31.382812 18.941406 30.703125 18.753906 C 30.554688 18.710938 30.445312 18.585938 30.40625 18.417969 C 30.375 18.273438 30.402344 18.0625 30.566406 17.917969 C 30.695312 17.808594 30.808594 17.734375 30.953125 17.660156 C 30.980469 17.644531 31.003906 17.621094 31.023438 17.59375 C 31.425781 16.957031 31.960938 16.292969 32.539062 15.707031 C 32.613281 15.621094 32.6875 15.550781 32.777344 15.484375 L 32.816406 15.453125 C 32.902344 15.394531 32.921875 15.277344 32.863281 15.195312 C 32.820312 15.132812 32.75 15.105469 32.683594 15.117188 C 32.625 15.023438 32.5625 14.9375 32.5 14.863281 C 32.273438 14.539062 32.019531 14.546875 31.890625 14.582031 C 31.558594 14.667969 31.296875 15.117188 31.261719 15.476562 C 31.238281 15.746094 31.0625 15.867188 30.960938 15.914062 C 30.777344 16 30.550781 15.988281 30.410156 15.886719 C 30.292969 15.808594 30.246094 15.679688 30.261719 15.511719 C 30.339844 14.621094 30.851562 13.878906 31.5625 13.621094 Z M 36.308594 16.957031 C 36.257812 16.917969 36.199219 16.878906 36.140625 16.839844 C 36.109375 16.820312 36.074219 16.808594 36.039062 16.808594 C 36.03125 16.808594 36.027344 16.808594 36.019531 16.808594 C 35.949219 16.816406 35.875 16.816406 35.800781 16.816406 C 35.792969 16.816406 35.785156 16.816406 35.773438 16.816406 C 35.46875 16.816406 35.0625 16.710938 34.960938 15.824219 C 34.945312 15.667969 34.929688 15.511719 34.917969 15.355469 C 34.890625 15.070312 34.867188 14.785156 34.828125 14.503906 L 34.8125 14.394531 C 34.78125 14.140625 34.742188 13.878906 34.859375 13.683594 C 35.105469 13.269531 35.667969 13.265625 36.214844 13.257812 C 36.21875 13.257812 36.21875 13.257812 36.222656 13.257812 C 36.367188 13.257812 36.484375 13.308594 36.566406 13.402344 C 36.644531 13.492188 36.691406 13.617188 36.691406 13.75 C 36.691406 13.886719 36.648438 14.019531 36.570312 14.113281 C 36.484375 14.214844 36.363281 14.269531 36.214844 14.269531 C 36.164062 14.269531 36.113281 14.273438 36.070312 14.277344 L 36.015625 14.285156 C 35.964844 14.289062 35.914062 14.3125 35.882812 14.355469 C 35.851562 14.394531 35.839844 14.449219 35.847656 14.5 L 35.863281 14.613281 C 35.886719 14.742188 35.910156 14.875 35.910156 15.011719 C 35.914062 15.15625 35.925781 15.296875 35.9375 15.441406 L 35.953125 15.640625 C 35.960938 15.730469 36.027344 15.800781 36.113281 15.8125 C 36.691406 15.898438 37.097656 16.1875 37.324219 16.671875 C 37.523438 17.09375 37.542969 17.441406 37.382812 17.695312 C 37.113281 18.117188 36.3125 18.363281 35.179688 18.367188 C 35.027344 18.367188 34.90625 18.316406 34.820312 18.21875 C 34.742188 18.128906 34.699219 18 34.699219 17.863281 C 34.699219 17.613281 34.847656 17.359375 35.183594 17.359375 L 35.335938 17.355469 C 35.628906 17.355469 35.9375 17.351562 36.238281 17.289062 C 36.308594 17.273438 36.367188 17.214844 36.378906 17.144531 C 36.394531 17.074219 36.367188 17 36.308594 16.957031 Z M 37.335938 11.316406 C 37.367188 11.28125 37.390625 11.246094 37.390625 11.195312 C 37.414062 11.125 37.441406 11.054688 37.46875 10.992188 L 37.507812 10.894531 C 37.558594 10.78125 37.664062 10.722656 37.742188 10.699219 C 37.890625 10.648438 38.074219 10.664062 38.1875 10.730469 C 38.542969 10.941406 38.40625 11.328125 38.351562 11.449219 C 38.34375 11.46875 38.335938 11.5 38.324219 11.539062 C 38.304688 11.609375 38.269531 11.734375 38.226562 11.792969 C 38.082031 11.988281 37.8125 12.160156 37.527344 11.992188 C 37.410156 11.921875 37.3125 11.777344 37.28125 11.625 C 37.265625 11.542969 37.261719 11.421875 37.335938 11.316406 Z M 25.324219 42.984375 C 25.183594 43.144531 24.960938 43.222656 24.785156 43.171875 C 24.234375 43.019531 23.65625 42.964844 23.101562 42.914062 C 22.777344 42.882812 22.449219 42.851562 22.125 42.800781 L 22.058594 42.789062 C 21.859375 42.757812 21.683594 42.730469 21.511719 42.65625 C 21.414062 42.617188 21.3125 42.65625 21.269531 42.75 C 21.230469 42.84375 21.273438 42.949219 21.371094 42.992188 L 21.363281 43 C 21.367188 43 21.367188 43 21.371094 43.003906 C 21.367188 43.054688 21.304688 43.167969 21.273438 43.226562 C 21.230469 43.308594 21.191406 43.382812 21.171875 43.453125 C 21.09375 43.726562 21.21875 43.878906 21.296875 43.945312 C 21.601562 44.191406 22.265625 44.050781 22.472656 43.9375 C 22.773438 43.773438 23.042969 43.9375 23.160156 44.160156 C 23.269531 44.355469 23.285156 44.640625 22.988281 44.804688 C 22.21875 45.226562 21.332031 45.1875 20.675781 44.707031 C 19.988281 44.199219 20.046875 43.59375 20.402344 42.644531 C 20.5625 42.226562 20.796875 41.929688 21.140625 41.710938 C 21.226562 41.65625 21.320312 41.632812 21.417969 41.632812 C 21.550781 41.632812 21.691406 41.671875 21.84375 41.714844 C 21.957031 41.746094 22.070312 41.777344 22.179688 41.792969 C 22.519531 41.847656 22.867188 41.875 23.203125 41.898438 C 23.34375 41.910156 23.480469 41.917969 23.617188 41.929688 C 23.691406 41.9375 23.761719 41.902344 23.796875 41.839844 C 23.832031 41.777344 23.828125 41.699219 23.792969 41.640625 C 23.65625 41.4375 23.515625 41.238281 23.375 41.042969 C 23.234375 40.847656 23.101562 40.65625 22.976562 40.472656 C 22.796875 40.203125 22.925781 39.976562 23.101562 39.855469 C 23.285156 39.730469 23.640625 39.65625 23.859375 39.980469 C 23.960938 40.132812 24.0625 40.28125 24.167969 40.4375 C 24.636719 41.121094 25.121094 41.832031 25.410156 42.570312 C 25.484375 42.761719 25.386719 42.914062 25.324219 42.984375 Z M 19.996094 41.257812 C 19.671875 41.570312 19.269531 41.960938 18.917969 41.960938 C 18.449219 41.960938 18.140625 41.507812 17.871094 41.105469 L 17.820312 41.03125 C 17.640625 40.769531 17.765625 40.546875 17.941406 40.425781 C 18.03125 40.363281 18.15625 40.3125 18.289062 40.3125 C 18.433594 40.3125 18.582031 40.371094 18.699219 40.535156 C 18.714844 40.5625 18.734375 40.585938 18.765625 40.617188 L 18.8125 40.671875 C 18.84375 40.710938 18.894531 40.738281 18.941406 40.738281 C 18.984375 40.742188 19.042969 40.726562 19.082031 40.691406 L 19.1875 40.585938 C 19.292969 40.484375 19.386719 40.390625 19.488281 40.320312 C 19.605469 40.238281 19.722656 40.148438 19.832031 40.058594 L 19.949219 39.964844 C 20.019531 39.914062 20.042969 39.816406 20.003906 39.738281 C 19.738281 39.1875 19.777344 38.613281 20.117188 38.125 C 20.355469 37.773438 20.609375 37.605469 20.894531 37.605469 C 21.234375 37.605469 21.820312 37.871094 22.660156 39.121094 C 22.839844 39.390625 22.714844 39.613281 22.535156 39.734375 C 22.351562 39.863281 21.996094 39.933594 21.78125 39.609375 L 21.722656 39.527344 C 21.527344 39.238281 21.328125 38.941406 21.058594 38.707031 C 20.984375 38.644531 20.878906 38.648438 20.808594 38.714844 C 20.738281 38.78125 20.730469 38.890625 20.789062 38.964844 C 20.917969 39.125 21.082031 39.492188 21.132812 39.683594 C 21.265625 40.183594 20.953125 40.46875 20.402344 40.890625 C 20.277344 40.988281 20.140625 41.117188 19.996094 41.257812 Z M 12.96875 38.652344 C 12.902344 38.773438 12.75 38.875 12.597656 38.90625 C 12.519531 38.921875 12.40625 38.925781 12.308594 38.855469 C 12.269531 38.820312 12.195312 38.800781 12.132812 38.8125 L 11.828125 38.828125 L 11.722656 38.828125 C 11.578125 38.828125 11.417969 38.824219 11.261719 38.914062 C 11.058594 39.03125 10.894531 38.984375 10.792969 38.925781 C 10.625 38.828125 10.507812 38.625 10.507812 38.433594 C 10.507812 38.320312 10.550781 38.15625 10.753906 38.042969 C 11.070312 37.859375 11.398438 37.839844 11.777344 37.820312 L 11.871094 37.816406 C 11.980469 37.808594 12.089844 37.800781 12.199219 37.800781 C 12.410156 37.800781 12.613281 37.832031 12.769531 37.949219 C 12.867188 38.027344 13.171875 38.304688 12.96875 38.652344 Z M 12.789062 40.378906 C 12.730469 40.476562 12.617188 40.597656 12.386719 40.597656 C 12.382812 40.597656 12.382812 40.597656 12.382812 40.597656 C 11.9375 40.597656 11.445312 40.554688 11.199219 40.230469 C 11.042969 40.035156 10.953125 39.734375 11.183594 39.503906 C 11.285156 39.40625 11.445312 39.34375 11.605469 39.359375 C 11.691406 39.363281 11.804688 39.390625 11.882812 39.488281 L 11.886719 39.484375 C 11.925781 39.523438 11.976562 39.554688 12.027344 39.566406 C 12.035156 39.566406 12.085938 39.574219 12.097656 39.574219 C 12.113281 39.574219 12.148438 39.578125 12.179688 39.582031 C 12.207031 39.582031 12.234375 39.585938 12.246094 39.585938 L 12.378906 39.585938 C 12.613281 39.585938 12.734375 39.707031 12.792969 39.8125 C 12.886719 39.980469 12.886719 40.210938 12.789062 40.378906 Z M 39.1875 11.828125 C 39.1875 11.828125 39.1875 11.824219 39.1875 11.824219 C 39.269531 11.660156 39.371094 11.515625 39.523438 11.324219 C 39.578125 11.210938 39.636719 11.121094 39.707031 11.035156 C 39.738281 11 39.765625 10.964844 39.804688 10.925781 C 39.8125 10.921875 39.816406 10.914062 39.824219 10.898438 C 39.824219 10.898438 39.824219 10.898438 39.828125 10.898438 C 39.847656 10.878906 39.859375 10.863281 39.871094 10.835938 C 40.039062 10.546875 40.332031 10.546875 40.546875 10.671875 C 40.765625 10.800781 40.90625 11.058594 40.738281 11.347656 C 40.6875 11.4375 40.617188 11.523438 40.507812 11.648438 C 40.46875 11.664062 40.433594 11.699219 40.414062 11.742188 C 40.367188 11.863281 40.316406 11.933594 40.242188 12.027344 C 40.226562 12.042969 40.210938 12.0625 40.175781 12.113281 C 40.136719 12.179688 40.105469 12.238281 40.074219 12.296875 L 40.046875 12.355469 C 39.992188 12.457031 39.894531 12.535156 39.769531 12.574219 C 39.632812 12.613281 39.476562 12.597656 39.363281 12.527344 C 39.09375 12.371094 39.070312 12.058594 39.1875 11.828125 Z M 40.992188 12.046875 C 41.117188 11.878906 41.238281 11.714844 41.386719 11.59375 C 41.492188 11.507812 41.640625 11.441406 41.785156 11.441406 C 41.898438 11.441406 42.011719 11.480469 42.113281 11.582031 C 42.210938 11.675781 42.269531 11.839844 42.261719 11.996094 C 42.253906 12.082031 42.230469 12.199219 42.125 12.28125 C 41.949219 12.425781 41.898438 12.492188 41.8125 12.625 L 41.757812 12.703125 C 41.640625 12.863281 41.503906 13.050781 41.347656 13.21875 C 41.261719 13.3125 41.136719 13.363281 41 13.363281 C 40.84375 13.375 40.734375 13.3125 40.640625 13.214844 C 40.445312 13.023438 40.449219 12.703125 40.644531 12.5 C 40.75 12.390625 40.800781 12.3125 40.871094 12.21875 C 40.902344 12.171875 40.941406 12.117188 40.992188 12.046875 Z M 48.265625 56.371094 C 48.28125 56.375 48.296875 56.378906 48.3125 56.378906 C 48.347656 56.378906 48.386719 56.363281 48.417969 56.34375 C 49.71875 55.425781 50.761719 54.382812 51.410156 53.671875 C 51.6875 53.367188 51.984375 53.050781 52.285156 52.730469 C 53.496094 51.441406 54.871094 49.980469 55.691406 48.464844 C 56.855469 46.320312 57.882812 43.84375 58.746094 41.109375 C 58.976562 40.402344 59.136719 39.65625 59.269531 38.699219 C 59.277344 38.648438 59.261719 38.597656 59.230469 38.554688 C 59.199219 38.515625 59.152344 38.492188 59.097656 38.488281 C 56.886719 38.320312 54.714844 38.074219 52.125 37.75 C 51.402344 37.660156 50.617188 37.65625 49.855469 37.652344 C 48.636719 37.644531 47.375 37.636719 46.296875 37.269531 C 46.246094 37.257812 46.203125 37.234375 46.164062 37.199219 C 46.152344 37.191406 46.136719 37.183594 46.125 37.175781 C 46.070312 37.148438 46.019531 37.105469 45.972656 37.046875 C 44.898438 35.660156 44.082031 34.105469 43.289062 32.605469 C 42.878906 31.828125 42.457031 31.027344 42 30.25 C 40.257812 27.269531 39.132812 24.511719 38.660156 22.050781 C 38.636719 21.945312 38.644531 21.847656 38.679688 21.757812 C 38.691406 21.738281 38.695312 21.714844 38.695312 21.6875 C 38.695312 21.683594 38.695312 21.632812 38.695312 21.628906 C 38.816406 20.421875 39.480469 19.46875 40.1875 18.453125 C 40.589844 17.875 41.007812 17.277344 41.316406 16.625 C 42.066406 15.03125 43.003906 13.53125 43.910156 12.082031 L 44.347656 11.386719 C 44.375 11.339844 44.382812 11.28125 44.367188 11.230469 C 44.351562 11.179688 44.316406 11.136719 44.269531 11.113281 C 41.121094 9.691406 37.875 8.910156 34.882812 8.855469 C 31.992188 8.800781 29.183594 9.335938 27.0625 9.808594 C 26.699219 9.886719 26.328125 9.96875 25.957031 10.046875 C 25.410156 10.164062 24.859375 10.28125 24.316406 10.414062 C 24.257812 10.425781 24.210938 10.46875 24.1875 10.527344 C 24.167969 10.585938 24.175781 10.652344 24.210938 10.703125 C 25.144531 12.023438 25.800781 13.578125 26.433594 15.089844 C 26.65625 15.621094 26.878906 16.152344 27.113281 16.667969 C 27.230469 16.925781 27.449219 17.308594 27.703125 17.75 C 28.515625 19.160156 29.878906 21.527344 29.285156 22.457031 C 28.550781 23.605469 27.898438 24.832031 27.265625 26.019531 C 26.558594 27.351562 25.824219 28.730469 24.976562 29.988281 C 23.78125 31.765625 22.628906 33.605469 21.515625 35.386719 L 20.582031 36.875 C 20.464844 37.066406 20.269531 37.152344 20.066406 37.109375 C 20.046875 37.105469 20.011719 37.105469 19.996094 37.105469 C 19.90625 37.109375 19.828125 37.113281 19.761719 37.085938 C 18.6875 36.605469 17.273438 36.796875 15.90625 36.980469 C 15.25 37.070312 14.628906 37.152344 14.09375 37.152344 L 8.820312 37.152344 C 8.765625 37.152344 8.710938 37.175781 8.679688 37.21875 C 8.644531 37.257812 8.628906 37.3125 8.636719 37.367188 C 9.078125 40.234375 9.855469 43.21875 10.828125 45.769531 C 11.707031 48.070312 13.078125 49.9375 14.527344 51.910156 C 14.730469 52.191406 14.9375 52.46875 15.144531 52.75 C 15.707031 53.519531 16.625 54.382812 17.664062 55.121094 C 17.738281 55.175781 17.84375 55.164062 17.910156 55.089844 C 18.542969 54.375 19.066406 53.488281 19.566406 52.632812 C 19.730469 52.355469 19.890625 52.082031 20.050781 51.820312 C 20.296875 51.425781 20.554688 51.039062 20.816406 50.652344 C 21.230469 50.027344 21.664062 49.382812 22.042969 48.695312 C 22.984375 46.976562 24.066406 45.289062 25.585938 44.625 C 25.625 44.605469 25.660156 44.570312 25.679688 44.527344 C 25.714844 44.441406 25.753906 44.414062 25.769531 44.414062 C 29.722656 44.414062 33.265625 44.675781 36.695312 44.929688 C 38.0625 45.03125 39.4375 45.132812 40.84375 45.21875 C 40.898438 45.222656 40.949219 45.234375 40.992188 45.246094 C 41.035156 45.257812 41.082031 45.253906 41.121094 45.234375 C 41.222656 45.179688 41.421875 45.125 41.605469 45.351562 C 42.742188 46.800781 43.6875 48.441406 44.605469 50.027344 L 44.90625 50.546875 C 45.222656 51.09375 45.554688 51.644531 45.886719 52.191406 C 46.683594 53.507812 47.507812 54.867188 48.144531 56.265625 C 48.164062 56.316406 48.210938 56.355469 48.265625 56.371094 " fill-opacity="1" fill-rule="nonzero"/><path fill="#f79334" d="M 18.144531 31.234375 C 16.964844 31.835938 14.957031 31.601562 13.34375 31.410156 C 12.941406 31.363281 12.570312 31.320312 12.246094 31.292969 C 12.101562 31.28125 11.957031 31.269531 11.8125 31.261719 C 11.535156 31.242188 11.246094 31.222656 10.980469 31.183594 C 10.914062 31.171875 10.847656 31.199219 10.808594 31.253906 C 10.753906 31.324219 10.667969 31.367188 10.550781 31.382812 C 10.195312 31.4375 9.824219 31.542969 9.46875 31.644531 L 9.152344 31.730469 C 9.148438 31.730469 9.148438 31.730469 9.148438 31.730469 C 8.976562 31.78125 8.789062 31.808594 8.585938 31.839844 L 8.402344 31.867188 C 8.347656 31.875 8.304688 31.902344 8.273438 31.945312 C 8.246094 31.992188 8.238281 32.046875 8.246094 32.097656 C 8.253906 32.121094 8.257812 32.140625 8.257812 32.171875 C 8.257812 33.332031 8.316406 34.503906 8.4375 35.65625 C 8.449219 35.75 8.523438 35.824219 8.621094 35.824219 C 9.285156 35.832031 9.925781 35.851562 10.550781 35.871094 C 12.210938 35.917969 13.78125 35.960938 15.386719 35.816406 L 15.546875 35.800781 C 16.925781 35.675781 18.484375 35.53125 19.808594 35.945312 C 19.824219 35.949219 19.84375 35.953125 19.863281 35.953125 C 19.925781 35.953125 19.988281 35.921875 20.019531 35.867188 L 20.582031 34.964844 C 21.609375 33.316406 22.675781 31.609375 23.78125 29.960938 C 24.410156 29.027344 24.941406 28.011719 25.457031 27.03125 C 25.945312 26.101562 26.449219 25.140625 27.03125 24.257812 L 27.117188 24.128906 C 27.90625 22.929688 28.585938 21.898438 27.730469 20.421875 C 27.359375 19.78125 27.058594 19.074219 26.769531 18.386719 C 26.539062 17.847656 26.304688 17.292969 26.039062 16.769531 C 25.699219 16.117188 25.40625 15.402344 25.121094 14.710938 C 24.570312 13.375 24.003906 11.996094 23.082031 10.875 C 23.03125 10.816406 22.949219 10.792969 22.875 10.820312 C 21.761719 11.222656 20.96875 11.792969 20.046875 12.503906 C 19.988281 12.550781 19.964844 12.625 19.980469 12.699219 C 20.011719 12.820312 20.046875 12.941406 20.085938 13.0625 C 20.148438 13.277344 20.21875 13.5 20.25 13.71875 C 20.320312 14.203125 20.480469 14.683594 20.746094 15.226562 C 20.851562 15.441406 20.792969 15.621094 20.726562 15.730469 C 20.6875 15.800781 20.695312 15.890625 20.75 15.953125 C 21.214844 16.46875 21.746094 17.085938 22.132812 17.722656 C 22.246094 17.914062 22.363281 18.097656 22.480469 18.28125 C 22.722656 18.671875 22.957031 19.039062 23.160156 19.445312 C 23.230469 19.585938 23.296875 19.738281 23.367188 19.894531 C 23.558594 20.332031 23.761719 20.789062 24.117188 21.136719 C 24.238281 21.257812 24.285156 21.390625 24.261719 21.535156 C 24.257812 21.554688 24.257812 21.574219 24.261719 21.59375 C 24.277344 21.726562 24.230469 21.855469 24.117188 21.96875 C 23.84375 22.242188 23.613281 22.875 23.414062 23.429688 C 23.335938 23.640625 23.269531 23.832031 23.207031 23.960938 C 22.835938 24.808594 22.445312 25.679688 21.863281 26.429688 C 21.46875 26.9375 21.128906 27.523438 20.765625 28.140625 C 20.046875 29.367188 19.304688 30.636719 18.144531 31.234375 " fill-opacity="1" fill-rule="nonzero"/><g clip-path="url(#2d5271efaa)"><path fill="#f79334" d="M 18.101562 57.90625 C 18.929688 58.378906 19.734375 58.820312 20.492188 59.21875 C 20.523438 59.242188 20.566406 59.257812 20.605469 59.257812 C 20.660156 59.257812 20.707031 59.234375 20.742188 59.199219 C 20.777344 59.160156 20.792969 59.109375 20.792969 59.058594 C 20.789062 58.992188 20.792969 58.929688 20.804688 58.871094 C 20.84375 58.757812 20.875 58.644531 20.910156 58.527344 L 20.941406 58.402344 C 20.976562 58.304688 21.011719 58.203125 21.050781 58.101562 L 21.089844 58 C 21.109375 57.945312 21.101562 57.890625 21.074219 57.839844 C 21.050781 57.792969 21.003906 57.761719 20.949219 57.75 C 16.3125 56.851562 12.445312 51.726562 10.539062 47.613281 C 9.34375 45.023438 8.460938 40.503906 7.933594 37.167969 C 7.925781 37.117188 7.898438 37.078125 7.859375 37.046875 C 7.738281 36.957031 7.660156 36.457031 7.753906 36.074219 C 7.757812 36.050781 7.757812 36.023438 7.753906 36 C 7.527344 34.488281 7.371094 33.234375 7.28125 32.445312 C 7.273438 32.359375 7.207031 32.289062 7.121094 32.28125 C 6.496094 32.199219 5.695312 32.234375 5.378906 32.253906 C 5.285156 32.257812 5.210938 32.332031 5.203125 32.429688 C 5.128906 34.195312 5.128906 36.089844 5.628906 37.96875 C 5.804688 38.628906 5.871094 39.367188 5.9375 40.082031 C 6.011719 40.898438 6.089844 41.742188 6.328125 42.484375 C 8.507812 49.296875 12.800781 54.921875 18.101562 57.90625 " fill-opacity="1" fill-rule="nonzero"/></g><g clip-path="url(#20fde30457)"><path fill="#f79334" d="M 5.5 31.253906 C 5.503906 31.253906 5.503906 31.253906 5.507812 31.253906 L 5.792969 31.246094 C 6.167969 31.230469 6.558594 31.21875 6.929688 31.238281 C 6.960938 31.242188 6.996094 31.234375 7.023438 31.222656 C 7.476562 31.015625 8.015625 30.917969 8.535156 30.824219 L 8.871094 30.761719 C 9.027344 30.730469 9.179688 30.6875 9.375 30.632812 C 9.425781 30.617188 9.472656 30.578125 9.496094 30.527344 C 9.515625 30.476562 9.515625 30.421875 9.492188 30.371094 C 9.445312 30.28125 9.433594 30.171875 9.453125 30.054688 C 10.058594 26.539062 11.8125 23.148438 13.613281 20.011719 C 14.824219 17.90625 16.992188 16.082031 19.410156 15.140625 C 19.507812 15.101562 19.554688 14.996094 19.519531 14.902344 C 19.410156 14.601562 19.335938 14.316406 19.289062 14.03125 C 19.242188 13.75 19.171875 13.480469 19.101562 13.21875 C 19.015625 12.886719 18.929688 12.570312 18.898438 12.246094 C 18.890625 12.183594 18.894531 12.125 18.910156 12.070312 C 18.929688 12.019531 18.921875 11.960938 18.890625 11.914062 C 18.839844 11.832031 18.785156 11.746094 18.738281 11.660156 C 18.632812 11.488281 18.527344 11.308594 18.402344 11.140625 C 18.242188 10.925781 18.128906 10.726562 18.058594 10.53125 C 18.039062 10.476562 18 10.433594 17.945312 10.417969 C 17.890625 10.398438 17.832031 10.40625 17.785156 10.4375 C 12.972656 13.550781 9.515625 17.578125 8.046875 21.773438 C 7.835938 22.371094 7.621094 22.964844 7.40625 23.554688 C 6.492188 26.054688 5.628906 28.417969 5.316406 31.042969 C 5.308594 31.097656 5.328125 31.152344 5.363281 31.195312 C 5.398438 31.230469 5.449219 31.253906 5.5 31.253906 " fill-opacity="1" fill-rule="nonzero"/></g><g clip-path="url(#0d758178ee)"><path fill="#f79334" d="M 21.882812 58.78125 C 21.855469 58.871094 21.835938 58.96875 21.820312 59.0625 C 21.78125 59.257812 21.742188 59.4375 21.652344 59.585938 C 21.628906 59.632812 21.621094 59.6875 21.636719 59.738281 C 21.652344 59.785156 21.6875 59.828125 21.734375 59.851562 C 23.730469 60.824219 25.4375 61.449219 26.964844 61.765625 C 27.402344 61.851562 27.847656 61.953125 28.292969 62.054688 C 29.609375 62.355469 30.964844 62.664062 32.328125 62.664062 C 32.417969 62.664062 32.503906 62.664062 32.585938 62.664062 C 34.386719 62.609375 36.109375 62.324219 38.1875 61.910156 C 40.117188 61.519531 42.109375 61.117188 44.011719 60.589844 C 44.101562 60.5625 44.160156 60.472656 44.144531 60.378906 C 44.125 60.273438 44.117188 60.171875 44.113281 60.082031 C 44.109375 59.921875 44.050781 59.765625 43.992188 59.617188 C 43.960938 59.539062 43.929688 59.464844 43.910156 59.390625 L 43.871094 59.234375 C 43.835938 59.082031 43.800781 58.933594 43.757812 58.785156 C 43.71875 58.636719 43.738281 58.5 43.820312 58.386719 C 43.859375 58.332031 43.863281 58.257812 43.832031 58.195312 C 43.523438 57.59375 43.242188 56.945312 42.976562 56.316406 C 42.507812 55.222656 42.019531 54.089844 41.335938 53.121094 C 41.179688 52.902344 41.046875 52.675781 40.921875 52.457031 C 40.648438 51.984375 40.394531 51.539062 39.914062 51.148438 C 39.871094 51.109375 39.824219 51.078125 39.773438 51.046875 L 39.726562 51.015625 C 39.652344 50.964844 39.554688 50.972656 39.492188 51.039062 C 39.425781 51.101562 39.417969 51.199219 39.472656 51.277344 C 39.789062 51.726562 40.082031 52.234375 40.386719 52.769531 L 40.605469 53.144531 C 41.136719 54.054688 41.757812 55.421875 41.714844 56.792969 C 41.710938 56.828125 41.722656 56.863281 41.742188 56.894531 C 41.871094 57.117188 41.886719 57.449219 41.613281 57.65625 C 40.285156 58.65625 38.300781 58.894531 36.539062 59.039062 C 34.042969 59.25 31.839844 59.203125 29.605469 58.894531 L 29.449219 58.875 C 28.25 58.710938 25.058594 58.28125 24.726562 56.867188 C 24.335938 55.179688 25.347656 53.171875 26.265625 51.785156 C 26.558594 51.339844 26.78125 51.007812 26.996094 50.726562 C 27.039062 50.671875 27.046875 50.59375 27.015625 50.53125 C 26.960938 50.421875 26.78125 50.40625 26.699219 50.496094 C 25.890625 51.390625 25.296875 52.164062 24.828125 52.929688 C 24.597656 53.304688 24.371094 53.695312 24.140625 54.09375 C 23.539062 55.132812 22.917969 56.210938 22.175781 57.105469 C 22.121094 57.167969 22.117188 57.261719 22.167969 57.332031 C 22.261719 57.464844 22.289062 57.613281 22.246094 57.726562 C 22.117188 58.0625 21.988281 58.417969 21.882812 58.78125 " fill-opacity="1" fill-rule="nonzero"/></g><path fill="#f79334" d="M 44.957031 57.960938 C 44.96875 57.960938 44.980469 57.957031 44.992188 57.957031 C 45.710938 57.808594 46.464844 57.523438 47.230469 57.097656 C 47.316406 57.050781 47.351562 56.945312 47.3125 56.855469 C 46.890625 55.917969 46.394531 54.988281 45.878906 54.164062 C 45.691406 53.863281 45.460938 53.558594 45.238281 53.265625 C 44.839844 52.730469 44.425781 52.179688 44.214844 51.597656 C 43.980469 50.953125 43.609375 50.445312 43.246094 49.953125 C 43.003906 49.625 42.753906 49.285156 42.550781 48.90625 C 42.113281 48.089844 41.726562 47.484375 41.191406 46.652344 L 41.074219 46.46875 C 41.042969 46.421875 40.992188 46.390625 40.9375 46.386719 C 37.367188 46.007812 31.230469 45.742188 27.9375 45.601562 C 27.199219 45.570312 26.613281 45.546875 26.238281 45.527344 C 26.210938 45.523438 26.183594 45.53125 26.15625 45.542969 C 24.53125 46.242188 23.617188 47.925781 22.734375 49.550781 C 22.347656 50.265625 21.984375 50.941406 21.566406 51.511719 C 21.164062 52.066406 20.785156 52.667969 20.421875 53.253906 C 19.917969 54.058594 19.398438 54.886719 18.808594 55.597656 C 18.769531 55.640625 18.757812 55.699219 18.765625 55.753906 C 18.777344 55.808594 18.808594 55.855469 18.859375 55.882812 C 19.644531 56.328125 20.375 56.625 21.019531 56.773438 C 21.085938 56.789062 21.15625 56.765625 21.199219 56.71875 C 22.109375 55.722656 22.808594 54.535156 23.484375 53.390625 C 24.144531 52.269531 24.828125 51.105469 25.707031 50.136719 C 26.871094 48.847656 28.242188 49.03125 29.824219 49.238281 C 30.144531 49.28125 30.46875 49.324219 30.828125 49.355469 C 31.976562 49.25 32.902344 49.203125 33.738281 49.203125 C 34.960938 49.203125 35.941406 49.308594 36.742188 49.519531 C 36.757812 49.523438 36.773438 49.527344 36.789062 49.527344 C 37.046875 49.527344 37.339844 49.492188 37.648438 49.453125 C 38.453125 49.359375 39.367188 49.25 39.792969 49.753906 C 40.023438 50.023438 40.320312 50.242188 40.609375 50.457031 C 41.035156 50.773438 41.441406 51.070312 41.628906 51.507812 C 42.230469 52.921875 42.832031 54.117188 43.417969 55.050781 C 43.753906 55.589844 44.019531 56.179688 44.273438 56.746094 C 44.433594 57.117188 44.605469 57.496094 44.792969 57.859375 C 44.824219 57.921875 44.890625 57.960938 44.957031 57.960938 " fill-opacity="1" fill-rule="nonzero"/><g clip-path="url(#59ff07b357)"><path fill="#f79334" d="M 62.074219 35.875 C 62.058594 35.347656 62.042969 34.820312 62.039062 34.296875 C 62.039062 34.195312 61.960938 34.117188 61.863281 34.109375 C 61.738281 34.105469 61.617188 34.097656 61.492188 34.089844 C 61.289062 34.078125 61.089844 34.070312 60.886719 34.066406 C 60.886719 34.066406 60.886719 34.066406 60.882812 34.066406 C 60.832031 34.066406 60.785156 34.085938 60.75 34.125 C 60.714844 34.160156 60.695312 34.210938 60.699219 34.265625 C 60.710938 34.460938 60.710938 34.660156 60.710938 34.863281 C 60.710938 35.003906 60.707031 35.148438 60.710938 35.289062 C 60.761719 36.824219 60.429688 38.742188 60.105469 40.03125 C 59.121094 43.914062 57.929688 46.921875 56.5625 48.972656 C 54.96875 51.363281 52.914062 53.433594 50.929688 55.429688 L 50.699219 55.660156 C 49.414062 56.953125 47.253906 58.492188 45.066406 58.941406 C 45.015625 58.953125 44.972656 58.984375 44.945312 59.027344 C 44.917969 59.074219 44.910156 59.128906 44.925781 59.179688 C 45.003906 59.4375 45.089844 59.734375 45.105469 60.027344 C 45.109375 60.085938 45.140625 60.136719 45.1875 60.167969 C 45.21875 60.191406 45.253906 60.203125 45.292969 60.203125 C 45.3125 60.203125 45.328125 60.199219 45.347656 60.191406 C 49.945312 58.722656 53.101562 56.5 55.28125 53.207031 C 57.300781 50.15625 58.882812 46.933594 60.40625 43.820312 L 60.453125 43.726562 C 61.28125 42.042969 62.066406 40.453125 62.105469 38.480469 C 62.121094 37.609375 62.097656 36.726562 62.074219 35.875 " fill-opacity="1" fill-rule="nonzero"/></g><path fill="#f79334" d="M 19.082031 10.316406 C 19.082031 10.4375 19.179688 10.488281 19.246094 10.519531 C 19.28125 10.550781 19.335938 10.566406 19.375 10.566406 C 19.402344 10.613281 19.433594 10.660156 19.460938 10.703125 C 19.492188 10.753906 19.523438 10.804688 19.550781 10.851562 C 19.59375 10.929688 19.617188 11.007812 19.644531 11.082031 C 19.660156 11.128906 19.675781 11.171875 19.695312 11.21875 C 19.71875 11.273438 19.765625 11.3125 19.820312 11.328125 C 19.875 11.34375 19.933594 11.332031 19.980469 11.296875 C 20.914062 10.578125 21.726562 10.003906 23.046875 9.707031 C 23.476562 9.609375 23.910156 9.515625 24.34375 9.425781 C 25.242188 9.234375 26.175781 9.039062 27.074219 8.777344 C 29.714844 8.015625 32.554688 7.675781 34.863281 7.84375 C 40.054688 8.222656 44.773438 9.796875 48.894531 12.527344 C 48.917969 12.542969 48.945312 12.546875 48.976562 12.546875 C 49.039062 12.546875 49.113281 12.515625 49.15625 12.472656 C 49.269531 12.363281 49.390625 12.25 49.488281 12.113281 C 49.574219 11.992188 49.675781 11.882812 49.789062 11.765625 C 49.921875 11.628906 50.058594 11.484375 50.167969 11.3125 C 50.21875 11.230469 50.199219 11.121094 50.121094 11.0625 C 47.675781 9.214844 45.105469 7.847656 42.476562 7 C 36.085938 4.941406 29.296875 5.125 23.363281 7.523438 C 21.945312 8.097656 20.503906 8.8125 19.078125 9.648438 C 18.988281 9.699219 18.957031 9.8125 19.007812 9.898438 C 19.078125 10.023438 19.101562 10.160156 19.082031 10.316406 " fill-opacity="1" fill-rule="nonzero"/></svg>