<svg xmlns="http://www.w3.org/2000/svg" xmlns:xlink="http://www.w3.org/1999/xlink" width="110" zoomAndPan="magnify" viewBox="0 0 82.5 82.499998" height="110" preserveAspectRatio="xMidYMid meet" version="1.0"><defs><clipPath id="6ade011392"><path d="M 1.539062 1.539062 L 80.960938 1.539062 L 80.960938 80.960938 L 1.539062 80.960938 Z M 1.539062 1.539062 " clip-rule="nonzero"/></clipPath><clipPath id="45e3a9ea7a"><path d="M 41.25 1.539062 C 19.316406 1.539062 1.539062 19.316406 1.539062 41.25 C 1.539062 63.183594 19.316406 80.960938 41.25 80.960938 C 63.183594 80.960938 80.960938 63.183594 80.960938 41.25 C 80.960938 19.316406 63.183594 1.539062 41.25 1.539062 " clip-rule="nonzero"/></clipPath><clipPath id="d106c5dc0c"><path d="M 13.695312 17.449219 L 68.445312 17.449219 L 68.445312 64.699219 L 13.695312 64.699219 Z M 13.695312 17.449219 " clip-rule="nonzero"/></clipPath></defs><g clip-path="url(#6ade011392)"><g clip-path="url(#45e3a9ea7a)"><path fill="#ffffff" d="M 1.539062 1.539062 L 80.960938 1.539062 L 80.960938 80.960938 L 1.539062 80.960938 Z M 1.539062 1.539062 " fill-opacity="1" fill-rule="nonzero"/></g></g><g clip-path="url(#d106c5dc0c)"><path fill="#f79334" d="M 44.921875 24.257812 C 43.625 24.132812 42.316406 23.933594 41.019531 23.90625 C 37.628906 23.820312 34.3125 24.46875 30.972656 24.976562 C 29.777344 25.164062 29.203125 25.6875 28.667969 26.722656 C 26.820312 30.257812 24.8125 33.707031 22.871094 37.183594 C 22.746094 37.417969 22.582031 37.71875 22.621094 37.953125 C 22.808594 39.050781 23.070312 40.121094 23.316406 41.304688 C 23.640625 41.054688 23.890625 40.867188 24.140625 40.695312 C 25.539062 39.660156 27.269531 39.871094 28.144531 41.191406 C 28.777344 42.140625 28.703125 43.210938 27.929688 44.042969 C 26.324219 45.789062 24.703125 47.53125 23.070312 49.261719 C 22.285156 50.097656 20.949219 50.246094 19.925781 49.648438 C 18.96875 49.085938 18.519531 47.980469 18.867188 46.847656 C 19.019531 46.359375 19.265625 45.886719 19.578125 45.476562 C 20.152344 44.714844 20.8125 44.019531 21.410156 43.273438 C 21.5625 43.085938 21.671875 42.761719 21.636719 42.539062 C 21.484375 41.714844 21.273438 40.90625 21.0625 40.097656 C 21.023438 39.945312 20.875 39.761719 20.726562 39.699219 C 20.164062 39.472656 19.542969 39.347656 19.019531 39.0625 C 17.894531 38.453125 16.824219 37.753906 15.726562 37.09375 C 15.414062 36.910156 15.101562 36.746094 14.765625 36.609375 C 13.917969 36.261719 13.695312 35.886719 14.03125 35.039062 C 14.417969 34.082031 14.855469 33.136719 15.316406 32.214844 C 17.171875 28.476562 19.230469 24.855469 21.546875 21.378906 C 21.933594 20.804688 22.382812 20.257812 22.871094 19.746094 C 23.640625 18.925781 24.289062 18.839844 25.1875 19.535156 C 26.398438 20.46875 27.570312 21.480469 28.691406 22.523438 C 29.238281 23.035156 29.699219 23.273438 30.523438 23.109375 C 33.789062 22.449219 37.09375 21.914062 40.433594 21.902344 C 43.238281 21.890625 46.019531 22.1875 48.488281 23.769531 C 49.097656 24.167969 49.722656 23.90625 50.15625 23.347656 C 51.515625 21.601562 52.886719 19.859375 54.320312 18.167969 C 54.894531 17.480469 55.394531 17.507812 56.078125 18.089844 C 60.019531 21.480469 63.945312 24.867188 67.871094 28.253906 C 68.417969 28.726562 68.445312 29.238281 67.921875 29.808594 C 66.898438 30.929688 65.863281 32.050781 64.816406 33.148438 C 64.320312 33.671875 63.90625 34.144531 63.78125 34.941406 C 63.496094 36.859375 62.945312 38.714844 61.652344 40.308594 C 62.023438 40.605469 62.3125 40.917969 62.660156 41.128906 C 64.082031 42.015625 64.292969 43.335938 63.945312 44.792969 C 63.457031 46.832031 62.160156 48.140625 60.128906 48.675781 C 59.757812 48.777344 59.632812 48.9375 59.570312 49.347656 C 59.230469 51.640625 58.308594 53.570312 56.066406 54.617188 C 55.867188 54.703125 55.730469 55.066406 55.703125 55.3125 C 55.605469 56.546875 55.332031 57.71875 54.507812 58.703125 C 53.796875 59.546875 52.875 60.070312 51.765625 60.121094 C 51.230469 60.144531 51.066406 60.371094 50.941406 60.832031 C 50.394531 62.898438 48.113281 64.667969 45.980469 64.566406 C 45.28125 64.53125 44.511719 64.242188 43.9375 63.84375 C 41.679688 62.261719 39.5 60.59375 37.28125 58.949219 C 37.230469 58.914062 37.179688 58.886719 37.066406 58.824219 C 36.632812 59.300781 36.207031 59.796875 35.746094 60.257812 C 34.449219 61.566406 32.394531 61.21875 31.59375 59.5625 C 31.222656 58.789062 31.234375 58.042969 31.855469 57.34375 C 33.402344 55.589844 34.960938 53.84375 36.417969 52.027344 C 37.355469 50.867188 38.949219 51.003906 39.75 51.617188 C 40.769531 52.386719 41.09375 53.917969 40.359375 54.992188 C 39.933594 55.613281 39.375 56.136719 38.875 56.710938 C 38.726562 56.882812 38.5625 57.058594 38.363281 57.28125 C 39.011719 57.792969 39.597656 58.289062 40.222656 58.75 C 41.855469 59.933594 43.5 61.09375 45.144531 62.277344 C 45.667969 62.648438 46.207031 62.699219 46.792969 62.460938 C 47.886719 62.039062 48.8125 61.429688 49.171875 60.207031 C 49.273438 59.847656 49.222656 59.585938 48.949219 59.363281 C 46.855469 57.667969 44.757812 55.988281 42.652344 54.304688 C 42.203125 53.957031 41.742188 53.644531 41.792969 52.972656 C 41.84375 52.398438 42.214844 52.050781 42.765625 52.214844 C 43.25 52.351562 43.75 52.574219 44.148438 52.886719 C 45.929688 54.304688 47.675781 55.761719 49.433594 57.207031 C 49.609375 57.34375 49.757812 57.492188 49.933594 57.628906 C 51.277344 58.703125 53.097656 58.089844 53.546875 56.421875 C 53.585938 56.273438 53.621094 56.113281 53.648438 55.960938 C 53.859375 55.003906 53.722656 54.242188 52.824219 53.582031 C 50.84375 52.125 48.949219 50.570312 47.039062 49.027344 C 46.765625 48.800781 46.453125 48.527344 46.367188 48.214844 C 46.28125 47.90625 46.332031 47.40625 46.542969 47.195312 C 46.742188 46.996094 47.214844 46.996094 47.5625 47.007812 C 47.777344 47.019531 47.976562 47.230469 48.164062 47.382812 C 50.15625 48.976562 52.152344 50.582031 54.144531 52.175781 C 55.167969 52.996094 55.59375 52.960938 56.425781 51.941406 C 57.125 51.09375 57.636719 50.144531 57.648438 49.027344 C 57.648438 48.726562 57.488281 48.351562 57.261719 48.152344 C 55.519531 46.660156 53.746094 45.203125 52.003906 43.707031 C 51.652344 43.421875 51.339844 43.074219 51.09375 42.699219 C 50.84375 42.339844 50.90625 41.863281 51.265625 41.628906 C 51.539062 41.453125 52.003906 41.355469 52.300781 41.464844 C 52.738281 41.628906 53.113281 41.964844 53.472656 42.277344 C 55.070312 43.632812 56.664062 45.003906 58.222656 46.398438 C 58.796875 46.910156 59.371094 47.058594 60.003906 46.660156 C 60.542969 46.324219 61.113281 45.988281 61.5 45.511719 C 62.4375 44.394531 62.285156 43.347656 61.203125 42.398438 C 56.8125 38.550781 52.4375 34.703125 48.039062 30.894531 C 47.777344 30.667969 47.316406 30.53125 46.964844 30.582031 C 45.046875 30.832031 43.125 31.105469 41.230469 31.441406 C 40.621094 31.554688 40.035156 31.863281 39.4375 32.101562 C 37.652344 32.824219 36.019531 32.5 34.523438 31.402344 C 33.515625 30.667969 33.402344 29.6875 34.300781 28.800781 C 35.136719 27.980469 36.15625 27.34375 37.003906 26.535156 C 38.140625 25.453125 39.5 25.054688 41.019531 24.941406 C 42.328125 24.839844 43.625 24.605469 44.933594 24.429688 C 44.921875 24.394531 44.921875 24.332031 44.921875 24.257812 Z M 24.253906 21.117188 C 20.9375 25.539062 18.507812 30.285156 16.125 35.078125 C 17.609375 35.9375 18.992188 36.746094 20.425781 37.582031 C 22.644531 33.546875 24.828125 29.585938 26.996094 25.625 C 27.21875 25.214844 27.679688 24.742188 27.605469 24.378906 C 27.53125 23.980469 26.972656 23.671875 26.609375 23.335938 C 25.886719 22.625 25.125 21.925781 24.253906 21.117188 Z M 65.890625 29.101562 C 65.464844 28.75 65.089844 28.453125 64.742188 28.140625 C 63.195312 26.757812 61.675781 25.351562 60.09375 23.996094 C 58.660156 22.761719 57.164062 21.578125 55.691406 20.394531 C 55.554688 20.285156 55.195312 20.234375 55.117188 20.308594 C 54.121094 21.464844 53.148438 22.648438 52.140625 23.859375 C 55.667969 26.773438 59.15625 29.660156 62.683594 32.574219 C 63.769531 31.417969 64.816406 30.285156 65.890625 29.101562 Z M 65.890625 29.101562 " fill-opacity="1" fill-rule="nonzero"/></g><path fill="#f79334" d="M 34.386719 47.742188 C 35.695312 47.742188 36.769531 48.6875 36.792969 49.960938 C 36.804688 50.371094 36.644531 50.882812 36.382812 51.203125 C 34.539062 53.410156 32.65625 55.574219 30.785156 57.753906 C 29.714844 59 28.390625 59.210938 27.269531 58.339844 C 26.085938 57.40625 25.886719 55.824219 26.910156 54.578125 C 28.21875 53 29.613281 51.492188 30.972656 49.945312 C 31.347656 49.523438 31.707031 49.101562 32.09375 48.703125 C 32.804688 47.980469 33.390625 47.742188 34.386719 47.742188 Z M 34.386719 47.742188 " fill-opacity="1" fill-rule="nonzero"/><path fill="#f79334" d="M 25.0625 54.964844 C 23.03125 54.828125 21.835938 52.773438 22.855469 50.96875 C 23.441406 49.921875 24.265625 48.988281 25.0625 48.078125 C 26.085938 46.910156 27.171875 45.789062 28.242188 44.65625 C 28.953125 43.90625 30.324219 43.695312 31.234375 44.179688 C 32.167969 44.679688 32.730469 45.898438 32.441406 46.933594 C 32.367188 47.195312 32.21875 47.445312 32.03125 47.65625 C 30.050781 49.921875 28.066406 52.1875 26.0625 54.429688 C 25.8125 54.691406 25.398438 54.792969 25.0625 54.964844 Z M 25.0625 54.964844 " fill-opacity="1" fill-rule="nonzero"/></svg>