<svg xmlns="http://www.w3.org/2000/svg" xmlns:xlink="http://www.w3.org/1999/xlink" width="70" zoomAndPan="magnify" viewBox="0 0 52.5 52.499999" height="70" preserveAspectRatio="xMidYMid meet" version="1.0"><defs><clipPath id="30c7f98e95"><path d="M 3.300781 3.300781 L 49 3.300781 L 49 49 L 3.300781 49 Z M 3.300781 3.300781 " clip-rule="nonzero"/></clipPath></defs><g clip-path="url(#30c7f98e95)"><path fill="#f79334" d="M 26.128906 3.277344 C 13.527344 3.277344 3.277344 13.527344 3.277344 26.128906 C 3.277344 38.730469 13.527344 48.980469 26.128906 48.980469 C 38.730469 48.980469 48.980469 38.730469 48.980469 26.128906 C 48.980469 13.527344 38.730469 3.277344 26.128906 3.277344 Z M 31.8125 26.933594 L 28.09375 26.933594 C 28.09375 32.875 28.09375 40.1875 28.09375 40.1875 L 22.585938 40.1875 C 22.585938 40.1875 22.585938 32.945312 22.585938 26.933594 L 19.964844 26.933594 L 19.964844 22.25 L 22.585938 22.25 L 22.585938 19.21875 C 22.585938 17.050781 23.617188 13.660156 28.144531 13.660156 L 32.226562 13.675781 L 32.226562 18.222656 C 32.226562 18.222656 29.746094 18.222656 29.261719 18.222656 C 28.78125 18.222656 28.09375 18.464844 28.09375 19.5 L 28.09375 22.25 L 32.292969 22.25 Z M 31.8125 26.933594 " fill-opacity="1" fill-rule="nonzero"/></g></svg>