<svg xmlns="http://www.w3.org/2000/svg" xmlns:xlink="http://www.w3.org/1999/xlink" width="110" zoomAndPan="magnify" viewBox="0 0 82.5 82.499998" height="110" preserveAspectRatio="xMidYMid meet" version="1.0"><defs><clipPath id="b51fb3123d"><path d="M 58 39 L 82.003906 39 L 82.003906 63 L 58 63 Z M 58 39 " clip-rule="nonzero"/></clipPath><clipPath id="aab37cb2a8"><path d="M 37 15.796875 L 62 15.796875 L 62 40 L 37 40 Z M 37 15.796875 " clip-rule="nonzero"/></clipPath></defs><path fill="#ffffff" d="M 47.714844 39.519531 L 47.714844 39.601562 C 47.511719 39.136719 47.050781 38.8125 46.511719 38.8125 L 36.429688 38.8125 C 35.894531 38.8125 35.429688 39.136719 35.226562 39.601562 L 35.226562 39.574219 C 35.226562 39.574219 30.078125 47.773438 35.226562 60.238281 L 35.226562 60.214844 C 35.429688 60.679688 35.894531 61.003906 36.429688 61.003906 L 46.511719 61.003906 C 47.121094 61.003906 47.636719 60.585938 47.78125 60.019531 C 52.820312 47.644531 47.714844 39.519531 47.714844 39.519531 " fill-opacity="1" fill-rule="nonzero"/><path fill="#ffffff" d="M 15.617188 39.519531 L 15.617188 39.601562 C 15.410156 39.136719 14.949219 38.8125 14.410156 38.8125 L 4.332031 38.8125 C 3.792969 38.8125 3.328125 39.136719 3.125 39.601562 L 3.125 39.574219 C 3.125 39.574219 -2.023438 47.773438 3.125 60.238281 L 3.125 60.214844 C 3.328125 60.679688 3.792969 61.003906 4.332031 61.003906 L 14.410156 61.003906 C 15.019531 61.003906 15.535156 60.585938 15.683594 60.019531 C 20.71875 47.644531 15.617188 39.519531 15.617188 39.519531 " fill-opacity="1" fill-rule="nonzero"/><path fill="#ffffff" d="M 33.035156 51.835938 L 17.695312 51.835938 L 17.695312 47.246094 L 33.035156 47.246094 L 33.035156 51.835938 " fill-opacity="1" fill-rule="nonzero"/><g clip-path="url(#b51fb3123d)"><path fill="#ffffff" d="M 82.566406 49.042969 L 82.507812 49.097656 C 82.71875 48.636719 82.652344 48.074219 82.292969 47.671875 L 75.566406 40.179688 C 75.207031 39.78125 74.65625 39.65625 74.171875 39.8125 L 74.191406 39.796875 C 74.191406 39.796875 64.636719 41.4375 58.765625 53.582031 L 58.785156 53.566406 C 58.574219 54.027344 58.640625 54.589844 59 54.988281 L 65.726562 62.480469 C 66.132812 62.933594 66.789062 63.039062 67.308594 62.769531 C 79.90625 58.257812 82.566406 49.042969 82.566406 49.042969 " fill-opacity="1" fill-rule="nonzero"/></g><g clip-path="url(#aab37cb2a8)"><path fill="#ffffff" d="M 61.148438 25.183594 L 61.089844 25.238281 C 61.300781 24.777344 61.234375 24.214844 60.875 23.8125 L 54.148438 16.320312 C 53.789062 15.921875 53.238281 15.796875 52.753906 15.953125 L 52.773438 15.9375 C 52.773438 15.9375 43.21875 17.578125 37.347656 29.722656 L 37.367188 29.707031 C 37.15625 30.167969 37.222656 30.730469 37.582031 31.128906 L 44.308594 38.621094 C 44.714844 39.074219 45.371094 39.179688 45.890625 38.910156 C 58.488281 34.398438 61.148438 25.183594 61.148438 25.183594 " fill-opacity="1" fill-rule="nonzero"/></g><path fill="#ffffff" d="M 63.582031 46.347656 L 53.347656 34.945312 L 56.769531 31.882812 L 67.007812 43.285156 L 63.582031 46.347656 " fill-opacity="1" fill-rule="nonzero"/></svg>