<svg xmlns="http://www.w3.org/2000/svg" xmlns:xlink="http://www.w3.org/1999/xlink" width="70" zoomAndPan="magnify" viewBox="0 0 52.5 52.499999" height="70" preserveAspectRatio="xMidYMid meet" version="1.0"><defs><clipPath id="e2aa4b73fd"><path d="M 2.210938 2.210938 L 50.210938 2.210938 L 50.210938 50.210938 L 2.210938 50.210938 Z M 2.210938 2.210938 " clip-rule="nonzero"/></clipPath></defs><path fill="#f79334" d="M 26.210938 20.894531 C 23.28125 20.894531 20.894531 23.28125 20.894531 26.210938 C 20.894531 29.140625 23.28125 31.53125 26.210938 31.53125 C 29.140625 31.53125 31.53125 29.140625 31.53125 26.210938 C 31.53125 23.28125 29.140625 20.894531 26.210938 20.894531 Z M 26.210938 20.894531 " fill-opacity="1" fill-rule="nonzero"/><path fill="#f79334" d="M 33.359375 13.164062 L 19.0625 13.164062 C 15.824219 13.164062 13.164062 15.800781 13.164062 19.0625 L 13.164062 33.359375 C 13.164062 36.601562 15.800781 39.261719 19.0625 39.261719 L 33.359375 39.261719 C 36.601562 39.261719 39.261719 36.621094 39.261719 33.359375 L 39.261719 19.0625 C 39.242188 15.800781 36.601562 13.164062 33.359375 13.164062 Z M 26.210938 34.210938 C 21.785156 34.210938 18.191406 30.617188 18.191406 26.191406 C 18.191406 21.765625 21.785156 18.171875 26.210938 18.171875 C 30.636719 18.171875 34.234375 21.765625 34.234375 26.191406 C 34.210938 30.617188 30.617188 34.210938 26.210938 34.210938 Z M 34.792969 19.523438 C 33.734375 19.523438 32.863281 18.648438 32.863281 17.589844 C 32.863281 16.53125 33.734375 15.65625 34.792969 15.65625 C 35.855469 15.65625 36.726562 16.53125 36.726562 17.589844 C 36.726562 18.667969 35.875 19.523438 34.792969 19.523438 Z M 34.792969 19.523438 " fill-opacity="1" fill-rule="nonzero"/><g clip-path="url(#e2aa4b73fd)"><path fill="#f79334" d="M 26.210938 2.210938 C 12.957031 2.210938 2.210938 12.957031 2.210938 26.210938 C 2.210938 39.46875 12.957031 50.210938 26.210938 50.210938 C 39.46875 50.210938 50.210938 39.46875 50.210938 26.210938 C 50.191406 12.957031 39.449219 2.210938 26.210938 2.210938 Z M 41.941406 33.359375 C 41.941406 38.097656 38.078125 41.964844 33.339844 41.964844 L 19.0625 41.964844 C 14.328125 41.964844 10.460938 38.097656 10.460938 33.359375 L 10.460938 19.0625 C 10.460938 14.328125 14.328125 10.460938 19.0625 10.460938 L 33.359375 10.460938 C 38.097656 10.460938 41.964844 14.328125 41.964844 19.0625 L 41.964844 33.359375 Z M 41.941406 33.359375 " fill-opacity="1" fill-rule="nonzero"/></g></svg>