<svg xmlns="http://www.w3.org/2000/svg" xmlns:xlink="http://www.w3.org/1999/xlink" width="70" zoomAndPan="magnify" viewBox="0 0 52.5 52.499999" height="70" preserveAspectRatio="xMidYMid meet" version="1.0"><defs><clipPath id="530e86317f"><path d="M 4.6875 4.6875 L 48.1875 4.6875 L 48.1875 48.1875 L 4.6875 48.1875 Z M 4.6875 4.6875 " clip-rule="nonzero"/></clipPath></defs><path fill="#f79334" d="M 26.890625 14.667969 C 20.542969 14.667969 15.382812 19.828125 15.382812 26.175781 C 15.382812 28.394531 16.023438 30.542969 17.210938 32.40625 L 17.492188 32.839844 L 16.382812 36.832031 L 20.601562 35.835938 L 20.996094 36.078125 C 22.765625 37.132812 24.816406 37.699219 26.890625 37.699219 C 33.234375 37.699219 38.394531 32.539062 38.394531 26.191406 C 38.394531 19.847656 33.234375 14.667969 26.890625 14.667969 Z M 33.441406 31.125 C 33.328125 31.691406 32.125 32.40625 31.351562 32.613281 C 29.433594 33.121094 26.71875 31.652344 24.046875 29.320312 C 21.351562 26.984375 19.546875 24.496094 19.769531 22.519531 C 19.867188 21.730469 20.429688 20.429688 20.957031 20.261719 C 21.484375 20.089844 21.863281 20.261719 22.40625 20.429688 C 22.671875 20.730469 23.011719 21.089844 23.386719 21.523438 C 23.894531 22.085938 24.234375 22.597656 24.441406 22.953125 C 24.609375 23.253906 24.554688 23.632812 24.289062 23.859375 L 23.367188 24.6875 C 23.199219 24.835938 23.140625 25.082031 23.234375 25.289062 C 23.519531 25.890625 24.179688 27.132812 25.175781 28 C 26.15625 28.867188 27.492188 29.355469 28.132812 29.542969 C 28.339844 29.621094 28.585938 29.527344 28.695312 29.335938 L 29.394531 28.320312 C 29.582031 28.039062 29.957031 27.925781 30.277344 28.058594 C 30.65625 28.226562 31.21875 28.488281 31.84375 28.90625 C 32.3125 29.222656 32.726562 29.507812 33.046875 29.734375 C 33.328125 30.242188 33.554688 30.597656 33.441406 31.125 Z M 33.441406 31.125 " fill-opacity="1" fill-rule="nonzero"/><g clip-path="url(#530e86317f)"><path fill="#f79334" d="M 26.4375 4.6875 C 14.421875 4.6875 4.6875 14.421875 4.6875 26.4375 C 4.6875 38.453125 14.421875 48.1875 26.4375 48.1875 C 38.453125 48.1875 48.1875 38.453125 48.1875 26.4375 C 48.167969 14.421875 38.433594 4.6875 26.4375 4.6875 Z M 26.890625 39.9375 C 24.554688 39.9375 22.277344 39.355469 20.242188 38.226562 L 13.179688 39.902344 L 15.042969 33.179688 C 13.78125 31.050781 13.125 28.640625 13.125 26.15625 C 13.125 18.566406 19.300781 12.390625 26.890625 12.390625 C 34.476562 12.390625 40.65625 18.585938 40.65625 26.175781 C 40.65625 33.761719 34.476562 39.9375 26.890625 39.9375 Z M 26.890625 39.9375 " fill-opacity="1" fill-rule="nonzero"/></g></svg>