<svg xmlns="http://www.w3.org/2000/svg" xmlns:xlink="http://www.w3.org/1999/xlink" width="70" zoomAndPan="magnify" viewBox="0 0 52.5 52.499999" height="70" preserveAspectRatio="xMidYMid meet" version="1.0"><defs><clipPath id="45d39c0d23"><path d="M 3.597656 3.597656 L 48.597656 3.597656 L 48.597656 48.597656 L 3.597656 48.597656 Z M 3.597656 3.597656 " clip-rule="nonzero"/></clipPath></defs><g clip-path="url(#45d39c0d23)"><path fill="#35c42c" d="M 48.597656 7.523438 C 48.597656 5.355469 46.84375 3.597656 44.675781 3.597656 L 7.523438 3.597656 C 5.355469 3.597656 3.597656 5.355469 3.597656 7.523438 L 3.597656 44.675781 C 3.597656 46.84375 5.355469 48.597656 7.523438 48.597656 L 44.675781 48.597656 C 46.84375 48.597656 48.597656 46.84375 48.597656 44.675781 Z M 48.597656 7.523438 " fill-opacity="1" fill-rule="evenodd"/></g><path fill="#ffffff" d="M 12.820312 39.679688 L 14.132812 35.074219 C 12.253906 32.574219 11.140625 29.464844 11.140625 26.097656 C 11.140625 17.84375 17.84375 11.140625 26.097656 11.140625 C 34.355469 11.140625 41.058594 17.84375 41.058594 26.097656 C 41.058594 34.355469 34.355469 41.058594 26.097656 41.058594 C 22.882812 41.058594 20.089844 39.742188 17.460938 38.3125 Z M 11.484375 36.042969 L 9.121094 43.378906 L 16.546875 40.972656 C 19.300781 42.746094 22.578125 43.777344 26.097656 43.777344 C 35.855469 43.777344 43.777344 35.855469 43.777344 26.097656 C 43.777344 16.34375 35.855469 8.421875 26.097656 8.421875 C 16.34375 8.421875 8.421875 16.34375 8.421875 26.097656 C 8.421875 29.785156 9.550781 33.210938 11.484375 36.042969 Z M 11.484375 36.042969 " fill-opacity="1" fill-rule="evenodd"/><path fill="#ffffff" d="M 19.53125 18.460938 C 17.980469 20.011719 17.679688 22.417969 18.800781 24.304688 C 19.617188 25.65625 20.898438 27.363281 22.910156 29.378906 C 24.875 31.34375 26.535156 32.59375 27.859375 33.394531 C 29.746094 34.527344 32.160156 34.230469 33.714844 32.675781 C 33.816406 32.582031 33.910156 32.488281 34.003906 32.394531 C 34.636719 31.761719 34.636719 30.734375 34.003906 30.105469 C 33.558594 29.660156 33.054688 29.15625 32.609375 28.710938 C 32.308594 28.40625 31.894531 28.238281 31.464844 28.238281 C 31.035156 28.238281 30.625 28.40625 30.320312 28.710938 C 30.105469 28.929688 29.945312 29.089844 29.945312 29.089844 C 29.945312 29.089844 28.007812 29.242188 25.832031 27.066406 C 23.65625 24.890625 23.105469 22.25 23.105469 22.25 C 23.105469 22.25 23.265625 22.089844 23.484375 21.875 C 23.785156 21.570312 23.957031 21.15625 23.957031 20.726562 C 23.957031 20.300781 23.785156 19.886719 23.484375 19.582031 C 23.039062 19.140625 22.535156 18.632812 22.089844 18.191406 C 21.457031 17.558594 20.433594 17.558594 19.800781 18.191406 C 19.714844 18.277344 19.621094 18.367188 19.53125 18.460938 Z M 19.53125 18.460938 " fill-opacity="1" fill-rule="evenodd"/></svg>