<svg xmlns="http://www.w3.org/2000/svg" xmlns:xlink="http://www.w3.org/1999/xlink" width="180" zoomAndPan="magnify" viewBox="0 0 135 58.499998" height="78" preserveAspectRatio="xMidYMid meet" version="1.0"><defs><g/><clipPath id="c09bf00ae4"><path d="M 84 7 L 102.488281 7 L 102.488281 32 L 84 32 Z M 84 7 " clip-rule="nonzero"/></clipPath><clipPath id="65c42dc7b3"><path d="M 30.808594 7 L 50 7 L 50 32 L 30.808594 32 Z M 30.808594 7 " clip-rule="nonzero"/></clipPath><clipPath id="63b20cd1a3"><path d="M 53 6.949219 L 62 6.949219 L 62 19 L 53 19 Z M 53 6.949219 " clip-rule="nonzero"/></clipPath><clipPath id="86373e431a"><path d="M 59 6.949219 L 68 6.949219 L 68 19 L 59 19 Z M 59 6.949219 " clip-rule="nonzero"/></clipPath><clipPath id="a221b0f498"><path d="M 65 6.949219 L 74 6.949219 L 74 19 L 65 19 Z M 65 6.949219 " clip-rule="nonzero"/></clipPath><clipPath id="675581e546"><path d="M 71 6.949219 L 80 6.949219 L 80 19 L 71 19 Z M 71 6.949219 " clip-rule="nonzero"/></clipPath><clipPath id="b159b2ce63"><path d="M 53 17 L 80 17 L 80 38.058594 L 53 38.058594 Z M 53 17 " clip-rule="nonzero"/></clipPath><clipPath id="9b9abeef69"><path d="M 98.460938 38.042969 L 102.527344 38.042969 L 102.527344 50.957031 L 98.460938 50.957031 Z M 98.460938 38.042969 " clip-rule="nonzero"/></clipPath><clipPath id="218143377e"><path d="M 98.460938 40 L 101 40 L 101 42 L 98.460938 42 Z M 98.460938 40 " clip-rule="nonzero"/></clipPath><clipPath id="803ae77ef7"><path d="M 100 40 L 102.527344 40 L 102.527344 42 L 100 42 Z M 100 40 " clip-rule="nonzero"/></clipPath><clipPath id="509ef9321c"><path d="M 101 38.042969 L 102.527344 38.042969 L 102.527344 41 L 101 41 Z M 101 38.042969 " clip-rule="nonzero"/></clipPath><clipPath id="d0e1f2a8db"><path d="M 101 48 L 102.527344 48 L 102.527344 50.957031 L 101 50.957031 Z M 101 48 " clip-rule="nonzero"/></clipPath><clipPath id="240bfbeb92"><path d="M 99.003906 38.042969 L 103.070312 38.042969 L 103.070312 50.957031 L 99.003906 50.957031 Z M 99.003906 38.042969 " clip-rule="nonzero"/></clipPath><clipPath id="55ed6e8e24"><path d="M 99.003906 40 L 101 40 L 101 42 L 99.003906 42 Z M 99.003906 40 " clip-rule="nonzero"/></clipPath><clipPath id="f44ec30d3e"><path d="M 99.003906 47 L 101 47 L 101 49 L 99.003906 49 Z M 99.003906 47 " clip-rule="nonzero"/></clipPath><clipPath id="9eb3558ab7"><path d="M 102 38.042969 L 103 38.042969 L 103 41 L 102 41 Z M 102 38.042969 " clip-rule="nonzero"/></clipPath><clipPath id="9b3e48b700"><path d="M 102 48 L 103 48 L 103 50.957031 L 102 50.957031 Z M 102 48 " clip-rule="nonzero"/></clipPath></defs><g fill="#f79334" fill-opacity="1"><g transform="translate(21.665387, 50.527295)"><g><path d="M 3.59375 0 L 3.222656 -6.574219 L 6.242188 0 L 8.039062 -0.09375 L 8.816406 -0.0546875 L 11.019531 -6.039062 L 11.277344 -0.0546875 L 13.945312 -0.167969 L 13.945312 -12.351562 L 10.964844 -12.964844 L 7.425781 -3.351562 L 3.480469 -12.296875 L 0.945312 -12.296875 L 0.554688 -0.109375 Z M 3.59375 0 "/></g></g></g><g fill="#f79334" fill-opacity="1"><g transform="translate(36.166032, 50.527295)"><g><path d="M 0.464844 0 L 3.667969 0 L 3.945312 -2.113281 L 5.871094 -2.128906 L 6.222656 0 L 9.167969 0 L 6.722656 -12.464844 L 2.425781 -12.207031 Z M 4.128906 -3.777344 L 4.519531 -7.539062 L 4.925781 -7.742188 L 5.5 -3.742188 Z M 4.128906 -3.777344 "/></g></g></g><g fill="#f79334" fill-opacity="1"><g transform="translate(45.79609, 50.527295)"><g><path d="M 5.6875 0 L 8.59375 -0.128906 L 8.59375 -12.519531 L 6.277344 -12.761719 L 5.722656 -5.628906 L 3.464844 -12.632812 L 0.554688 -12.6875 L 0.554688 -0.109375 L 2.722656 -0.0742188 L 3.148438 -6.574219 Z M 5.6875 0 "/></g></g></g><g fill="#f79334" fill-opacity="1"><g transform="translate(54.944642, 50.527295)"><g><path d="M 1.128906 0 L 8.390625 0 L 8.628906 -1.742188 L 8.796875 -3.480469 L 6.316406 -3.722656 L 6.261719 -2.890625 L 6.128906 -2.054688 L 3.667969 -2.371094 L 3.371094 -8.554688 L 3.628906 -9.984375 L 6.148438 -10.058594 L 6.480469 -8.945312 L 6.59375 -7.6875 L 8.910156 -7.835938 L 8.910156 -10.316406 L 6.777344 -12.242188 L 1.5 -12.242188 L 0.554688 -9.058594 Z M 1.128906 0 "/></g></g></g><g fill="#f79334" fill-opacity="1"><g transform="translate(64.408023, 50.527295)"><g><path d="M 3.332031 0 L 5.261719 -0.445312 L 5.667969 -0.519531 L 5.667969 0 L 8.648438 0 L 8.539062 -12.425781 L 5.796875 -12.425781 L 5.742188 -2.832031 L 5 -2.757812 L 3.332031 -3.851562 L 3.445312 -12.519531 L 0.554688 -12.242188 L 0.703125 -2.613281 Z M 3.332031 0 "/></g></g></g><g fill="#f79334" fill-opacity="1"><g transform="translate(73.612134, 50.527295)"><g><path d="M 0.871094 0 L 7.167969 0 L 6.980469 -2.277344 L 3.757812 -2.203125 L 3.757812 -4.761719 L 6.980469 -4.796875 L 6.777344 -7.425781 L 3.667969 -7.464844 L 3.667969 -9.742188 L 6.777344 -9.945312 L 6.777344 -12.371094 L 2.832031 -12.1875 L 0.554688 -11.371094 Z M 0.871094 0 "/></g></g></g><g fill="#f79334" fill-opacity="1"><g transform="translate(81.334696, 50.527295)"><g><path d="M 3.464844 0 L 3.425781 -4.351562 L 5.628906 -4.242188 L 5.925781 0 L 8.59375 -0.109375 L 8.59375 -4.964844 L 6.945312 -6.277344 L 8.5 -7.148438 L 8.59375 -9.203125 L 6.835938 -11.816406 L 4.148438 -12.425781 L 0.554688 -11.667969 L 0.554688 -0.128906 Z M 3.40625 -9.851562 L 5.6875 -9.539062 L 5.6875 -7.242188 L 3.425781 -6.777344 Z M 3.40625 -9.851562 "/></g></g></g><g fill="#f79334" fill-opacity="1"><g transform="translate(90.483249, 50.527295)"><g><path d="M 0.871094 0 L 3.757812 0 L 3.757812 -4.761719 L 6.980469 -4.796875 L 6.777344 -7.425781 L 3.667969 -7.464844 L 3.667969 -9.742188 L 6.777344 -9.945312 L 6.777344 -12.371094 L 2.832031 -12.1875 L 0.554688 -11.1875 Z M 0.871094 0 "/></g></g></g><g fill="#f79334" fill-opacity="1"><g transform="translate(98.020621, 50.527295)"><g/></g></g><g fill="#f79334" fill-opacity="1"><g transform="translate(103.576427, 50.527295)"><g><path d="M 3.296875 0 L 6.167969 -0.277344 L 5.964844 -9.945312 L 9.203125 -9.777344 L 8.945312 -12.632812 L 0.667969 -12.410156 L 0.554688 -9.851562 L 3.113281 -9.851562 Z M 3.296875 0 "/></g></g></g><path fill="#ffffff" d="M 84.964844 24.464844 L 78.464844 24.464844 C 78 24.464844 77.625 24.089844 77.625 23.628906 C 77.625 23.164062 78 22.789062 78.464844 22.789062 L 84.964844 22.789062 C 85.429688 22.789062 85.804688 23.164062 85.804688 23.628906 C 85.804688 24.089844 85.429688 24.464844 84.964844 24.464844 Z M 64.140625 24.464844 L 48.328125 24.464844 C 47.867188 24.464844 47.492188 24.089844 47.492188 23.628906 C 47.492188 23.164062 47.867188 22.789062 48.328125 22.789062 L 64.140625 22.789062 C 64.605469 22.789062 64.980469 23.164062 64.980469 23.628906 C 64.980469 24.089844 64.605469 24.464844 64.144531 24.464844 Z M 84.964844 16.460938 L 78.457031 16.460938 C 77.992188 16.460938 77.617188 16.082031 77.617188 15.621094 C 77.617188 15.15625 77.992188 14.78125 78.457031 14.78125 L 84.964844 14.78125 C 85.429688 14.78125 85.804688 15.15625 85.804688 15.621094 C 85.804688 16.082031 85.429688 16.460938 84.964844 16.460938 Z M 54.835938 16.460938 L 48.328125 16.460938 C 47.867188 16.460938 47.492188 16.082031 47.492188 15.621094 C 47.492188 15.15625 47.867188 14.78125 48.328125 14.78125 L 54.835938 14.78125 C 55.300781 14.78125 55.675781 15.15625 55.675781 15.621094 C 55.675781 16.082031 55.300781 16.460938 54.835938 16.460938 Z M 54.835938 16.460938 " fill-opacity="1" fill-rule="evenodd"/><g clip-path="url(#c09bf00ae4)"><path fill="#ffffff" d="M 98.300781 31.441406 L 88.488281 31.441406 C 88.21875 31.441406 87.96875 31.3125 87.808594 31.09375 L 84.285156 26.234375 C 84.183594 26.089844 84.125 25.917969 84.125 25.742188 L 84.125 13.386719 C 84.125 13.207031 84.183594 13.03125 84.289062 12.886719 L 87.8125 8.144531 C 87.972656 7.929688 88.222656 7.804688 88.488281 7.804688 L 98.300781 7.804688 C 98.574219 7.804688 98.832031 7.9375 98.988281 8.164062 L 102.300781 12.90625 C 102.398438 13.046875 102.453125 13.214844 102.453125 13.386719 L 102.453125 25.730469 C 102.453125 25.898438 102.402344 26.0625 102.308594 26.203125 L 98.996094 31.074219 C 98.839844 31.304688 98.578125 31.441406 98.300781 31.441406 Z M 88.917969 29.761719 L 97.855469 29.761719 L 100.773438 25.472656 L 100.773438 13.652344 L 97.863281 9.484375 L 88.910156 9.484375 L 85.804688 13.664062 L 85.804688 25.46875 Z M 88.917969 29.761719 " fill-opacity="1" fill-rule="evenodd"/></g><g clip-path="url(#65c42dc7b3)"><path fill="#ffffff" d="M 45.019531 31.441406 L 35.207031 31.441406 C 34.9375 31.441406 34.683594 31.3125 34.527344 31.09375 L 31.003906 26.234375 C 30.898438 26.089844 30.84375 25.917969 30.84375 25.742188 L 30.84375 13.386719 C 30.84375 13.207031 30.902344 13.03125 31.007812 12.886719 L 34.53125 8.144531 C 34.6875 7.929688 34.9375 7.804688 35.203125 7.804688 L 45.019531 7.804688 C 45.292969 7.804688 45.550781 7.9375 45.707031 8.164062 L 49.019531 12.90625 C 49.117188 13.046875 49.167969 13.214844 49.167969 13.386719 L 49.167969 25.730469 C 49.167969 25.898438 49.117188 26.0625 49.023438 26.203125 L 45.714844 31.074219 C 45.558594 31.304688 45.296875 31.441406 45.019531 31.441406 Z M 35.632812 29.761719 L 44.574219 29.761719 L 47.492188 25.472656 L 47.492188 13.652344 L 44.582031 9.484375 L 35.625 9.484375 L 32.519531 13.664062 L 32.519531 25.46875 Z M 35.632812 29.761719 " fill-opacity="1" fill-rule="evenodd"/></g><g clip-path="url(#63b20cd1a3)"><path fill="#ffffff" d="M 58.027344 18.988281 L 57.542969 18.988281 C 55.585938 18.988281 53.992188 17.398438 53.992188 15.4375 L 53.992188 10.503906 C 53.992188 8.542969 55.585938 6.949219 57.542969 6.949219 L 58.027344 6.949219 C 59.984375 6.949219 61.578125 8.542969 61.578125 10.503906 L 61.578125 15.4375 C 61.578125 17.398438 59.984375 18.988281 58.027344 18.988281 Z M 57.542969 8.628906 C 56.511719 8.628906 55.671875 9.46875 55.671875 10.503906 L 55.671875 15.4375 C 55.671875 16.46875 56.511719 17.3125 57.542969 17.3125 L 58.027344 17.3125 C 59.058594 17.3125 59.898438 16.46875 59.898438 15.4375 L 59.898438 10.503906 C 59.898438 9.46875 59.058594 8.628906 58.027344 8.628906 Z M 57.542969 8.628906 " fill-opacity="1" fill-rule="evenodd"/></g><g clip-path="url(#86373e431a)"><path fill="#ffffff" d="M 63.933594 18.988281 L 63.453125 18.988281 C 61.492188 18.988281 59.898438 17.398438 59.898438 15.4375 L 59.898438 10.503906 C 59.898438 8.542969 61.492188 6.949219 63.453125 6.949219 L 63.933594 6.949219 C 65.894531 6.949219 67.484375 8.542969 67.484375 10.503906 L 67.484375 15.4375 C 67.484375 17.398438 65.894531 18.988281 63.933594 18.988281 Z M 63.453125 8.628906 C 62.417969 8.628906 61.578125 9.46875 61.578125 10.503906 L 61.578125 15.4375 C 61.578125 16.46875 62.417969 17.3125 63.453125 17.3125 L 63.933594 17.3125 C 64.96875 17.3125 65.808594 16.46875 65.808594 15.4375 L 65.808594 10.503906 C 65.808594 9.46875 64.96875 8.628906 63.933594 8.628906 Z M 63.453125 8.628906 " fill-opacity="1" fill-rule="evenodd"/></g><g clip-path="url(#a221b0f498)"><path fill="#ffffff" d="M 69.84375 18.988281 L 69.359375 18.988281 C 67.402344 18.988281 65.808594 17.398438 65.808594 15.4375 L 65.808594 10.503906 C 65.808594 8.542969 67.398438 6.949219 69.359375 6.949219 L 69.84375 6.949219 C 71.800781 6.949219 73.394531 8.542969 73.394531 10.503906 L 73.394531 15.4375 C 73.394531 17.398438 71.800781 18.988281 69.84375 18.988281 Z M 69.359375 8.628906 C 68.324219 8.628906 67.484375 9.46875 67.484375 10.503906 L 67.484375 15.4375 C 67.484375 16.46875 68.324219 17.3125 69.359375 17.3125 L 69.84375 17.3125 C 70.875 17.3125 71.714844 16.46875 71.714844 15.4375 L 71.714844 10.503906 C 71.714844 9.46875 70.875 8.628906 69.84375 8.628906 Z M 69.359375 8.628906 " fill-opacity="1" fill-rule="evenodd"/></g><g clip-path="url(#675581e546)"><path fill="#ffffff" d="M 75.75 18.988281 L 75.265625 18.988281 C 73.308594 18.988281 71.714844 17.398438 71.714844 15.4375 L 71.714844 10.503906 C 71.714844 8.542969 73.308594 6.949219 75.265625 6.949219 L 75.75 6.949219 C 77.707031 6.949219 79.300781 8.542969 79.300781 10.503906 L 79.300781 15.4375 C 79.300781 17.398438 77.707031 18.988281 75.75 18.988281 Z M 75.265625 8.628906 C 74.234375 8.628906 73.394531 9.46875 73.394531 10.503906 L 73.394531 15.4375 C 73.394531 16.46875 74.234375 17.3125 75.265625 17.3125 L 75.75 17.3125 C 76.78125 17.3125 77.621094 16.46875 77.621094 15.4375 L 77.621094 10.503906 C 77.621094 9.46875 76.78125 8.628906 75.75 8.628906 Z M 75.265625 8.628906 " fill-opacity="1" fill-rule="evenodd"/></g><g clip-path="url(#b159b2ce63)"><path fill="#ffffff" d="M 58.480469 47.820312 C 58.042969 47.820312 57.675781 47.484375 57.644531 47.042969 L 56.496094 31.417969 C 54.976562 30.691406 53.992188 29.15625 53.992188 27.441406 L 53.992188 23.625 C 53.992188 23.164062 54.367188 22.789062 54.832031 22.789062 C 55.296875 22.789062 55.671875 23.164062 55.671875 23.625 L 55.671875 27.441406 C 55.671875 28.625 56.429688 29.667969 57.554688 30.039062 C 57.878906 30.144531 58.105469 30.433594 58.132812 30.773438 L 59.320312 46.917969 C 59.351562 47.382812 59.007812 47.78125 58.542969 47.816406 C 58.523438 47.820312 58.5 47.820312 58.480469 47.820312 Z M 74.773438 47.820312 C 74.753906 47.820312 74.730469 47.820312 74.710938 47.816406 C 74.246094 47.78125 73.902344 47.382812 73.933594 46.917969 L 75.125 30.785156 C 75.148438 30.445312 75.382812 30.152344 75.707031 30.046875 C 76.835938 29.691406 77.625 28.621094 77.625 27.441406 L 77.625 21.71875 C 77.625 20.214844 76.398438 18.992188 74.894531 18.992188 L 62.71875 18.992188 C 62.640625 19.769531 62.628906 21.097656 63.285156 22.007812 C 63.707031 22.59375 64.355469 22.925781 65.269531 23.015625 L 71.695312 23.015625 C 72.152344 23.015625 72.527344 23.386719 72.53125 23.84375 C 72.539062 24.304688 72.171875 24.683594 71.714844 24.695312 C 71.5625 24.699219 67.863281 24.886719 66.902344 29.453125 C 66.808594 29.90625 66.363281 30.199219 65.910156 30.101562 C 65.457031 30.007812 65.167969 29.5625 65.261719 29.109375 C 65.691406 27.050781 66.628906 25.636719 67.691406 24.695312 L 65.226562 24.695312 C 65.203125 24.695312 65.175781 24.695312 65.152344 24.691406 C 62.375 24.4375 60.867188 22.476562 61.011719 19.308594 C 61.058594 18.28125 61.105469 17.3125 62 17.3125 L 74.894531 17.3125 C 77.324219 17.3125 79.300781 19.289062 79.300781 21.71875 L 79.300781 27.445312 C 79.300781 29.179688 78.300781 30.71875 76.757812 31.4375 L 75.609375 47.042969 C 75.574219 47.484375 75.207031 47.820312 74.773438 47.820312 Z M 74.773438 47.820312 " fill-opacity="1" fill-rule="evenodd"/></g><g fill="#ffffff" fill-opacity="1"><g transform="translate(35.689956, 22.846861)"><g><path d="M 2.15625 0 L 1.933594 -3.949219 L 3.746094 0 L 4.828125 -0.0546875 L 5.292969 -0.0351562 L 6.617188 -3.625 L 6.773438 -0.0351562 L 8.375 -0.101562 L 8.375 -7.417969 L 6.582031 -7.785156 L 4.460938 -2.011719 L 2.089844 -7.382812 L 0.566406 -7.382812 L 0.332031 -0.0664062 Z M 2.15625 0 "/></g></g></g><g fill="#ffffff" fill-opacity="1"><g transform="translate(91.523925, 22.981863)"><g><path d="M 0.5625 0 L 2.429688 0 L 2.429688 -3.078125 L 4.511719 -3.101562 L 4.382812 -4.800781 L 2.371094 -4.824219 L 2.371094 -6.296875 L 4.382812 -6.429688 L 4.382812 -7.996094 L 1.832031 -7.878906 L 0.359375 -7.230469 Z M 0.5625 0 "/></g></g></g><g clip-path="url(#9b9abeef69)"><path fill="#f79334" d="M 101.734375 50.957031 L 99.265625 50.957031 C 98.789062 50.957031 98.476562 50.625 98.476562 50.476562 L 98.476562 48.640625 C 98.476562 48.492188 98.597656 48.113281 98.746094 48.113281 L 99.078125 48.113281 C 99.117188 48.113281 99.160156 48.109375 99.199219 48.101562 C 99.316406 48.074219 99.425781 48.003906 99.492188 47.882812 C 99.539062 47.804688 99.570312 47.699219 99.570312 47.574219 C 99.570312 47.183594 99.609375 46.644531 99.53125 46.378906 C 99.402344 45.957031 99.253906 44.984375 99.253906 44.5625 C 99.253906 44.539062 99.257812 44.519531 99.257812 44.5 C 99.257812 44.480469 99.253906 44.457031 99.253906 44.4375 C 99.253906 44.015625 99.402344 43.042969 99.53125 42.621094 C 99.609375 42.355469 99.570312 41.816406 99.570312 41.425781 C 99.570312 41.289062 99.535156 41.183594 99.484375 41.101562 C 99.390625 40.949219 99.226562 40.882812 99.078125 40.882812 L 98.746094 40.882812 C 98.738281 40.882812 98.726562 40.882812 98.71875 40.878906 C 98.582031 40.839844 98.476562 40.5 98.476562 40.359375 L 98.476562 38.523438 C 98.476562 38.375 98.789062 38.042969 99.265625 38.042969 L 101.734375 38.042969 C 102.253906 38.042969 102.519531 38.375 102.519531 38.523438 L 102.519531 40.359375 C 102.519531 40.507812 102.402344 40.882812 102.253906 40.882812 L 101.8125 40.882812 C 101.8125 40.882812 101.589844 40.941406 101.484375 41.1875 C 101.453125 41.265625 101.429688 41.359375 101.429688 41.480469 C 101.429688 41.851562 101.410156 42.316406 101.445312 42.609375 C 101.507812 43.113281 101.742188 44.015625 101.742188 44.4375 C 101.742188 44.457031 101.742188 44.480469 101.742188 44.5 C 101.742188 44.519531 101.742188 44.539062 101.742188 44.5625 C 101.742188 44.984375 101.507812 45.886719 101.445312 46.390625 C 101.410156 46.683594 101.429688 47.144531 101.429688 47.519531 C 101.429688 47.628906 101.449219 47.71875 101.476562 47.796875 C 101.554688 47.988281 101.703125 48.070312 101.773438 48.101562 C 101.796875 48.109375 101.8125 48.113281 101.8125 48.113281 L 102.253906 48.113281 C 102.402344 48.113281 102.519531 48.492188 102.519531 48.640625 L 102.519531 50.476562 C 102.519531 50.625 102.253906 50.957031 101.734375 50.957031 " fill-opacity="1" fill-rule="nonzero"/></g><g clip-path="url(#218143377e)"><path fill="#f79334" d="M 99.484375 41.101562 C 99.390625 40.949219 99.226562 40.882812 99.078125 40.882812 L 98.746094 40.882812 C 98.738281 40.882812 98.726562 40.882812 98.71875 40.878906 L 100.347656 40.878906 L 99.484375 41.101562 " fill-opacity="1" fill-rule="nonzero"/></g><g clip-path="url(#803ae77ef7)"><path fill="#f79334" d="M 101.484375 41.1875 L 100.765625 40.878906 L 102.011719 40.878906 L 102.011719 40.882812 L 101.8125 40.882812 C 101.8125 40.882812 101.589844 40.941406 101.484375 41.1875 " fill-opacity="1" fill-rule="nonzero"/></g><path fill="#f79334" d="M 100.347656 48.101562 L 99.199219 48.101562 C 99.316406 48.074219 99.425781 48.003906 99.492188 47.882812 L 100.347656 48.101562 " fill-opacity="1" fill-rule="nonzero"/><path fill="#f79334" d="M 101.773438 48.101562 L 100.765625 48.101562 L 101.476562 47.796875 C 101.554688 47.988281 101.703125 48.070312 101.773438 48.101562 " fill-opacity="1" fill-rule="nonzero"/><g clip-path="url(#509ef9321c)"><path fill="#f79334" d="M 101.773438 39.507812 C 101.773438 38.949219 101.878906 38.496094 102.011719 38.496094 C 102.144531 38.496094 102.253906 38.949219 102.253906 39.507812 C 102.253906 40.066406 102.144531 40.519531 102.011719 40.519531 C 101.878906 40.519531 101.773438 40.066406 101.773438 39.507812 " fill-opacity="1" fill-rule="nonzero"/></g><g clip-path="url(#d0e1f2a8db)"><path fill="#f79334" d="M 101.773438 49.472656 C 101.773438 48.914062 101.878906 48.460938 102.011719 48.460938 C 102.144531 48.460938 102.253906 48.914062 102.253906 49.472656 C 102.253906 50.03125 102.144531 50.484375 102.011719 50.484375 C 101.878906 50.484375 101.773438 50.03125 101.773438 49.472656 " fill-opacity="1" fill-rule="nonzero"/></g><path fill="#f79334" d="M 101.148438 44.5 C 101.148438 43.941406 101.257812 43.488281 101.386719 43.488281 C 101.519531 43.488281 101.628906 43.941406 101.628906 44.5 C 101.628906 45.058594 101.519531 45.511719 101.386719 45.511719 C 101.257812 45.511719 101.148438 45.058594 101.148438 44.5 " fill-opacity="1" fill-rule="nonzero"/><g clip-path="url(#240bfbeb92)"><path fill="#f79334" d="M 102.273438 50.957031 L 99.804688 50.957031 C 99.332031 50.957031 99.015625 50.625 99.015625 50.476562 L 99.015625 48.640625 C 99.015625 48.492188 99.136719 48.113281 99.285156 48.113281 L 99.617188 48.113281 C 99.65625 48.113281 99.699219 48.109375 99.738281 48.101562 C 99.855469 48.074219 99.964844 48.003906 100.035156 47.882812 C 100.082031 47.804688 100.109375 47.699219 100.109375 47.574219 C 100.109375 47.183594 100.148438 46.644531 100.070312 46.378906 C 99.945312 45.957031 99.796875 44.984375 99.796875 44.5625 C 99.796875 44.539062 99.796875 44.519531 99.796875 44.5 C 99.796875 44.480469 99.796875 44.457031 99.796875 44.4375 C 99.796875 44.015625 99.945312 43.042969 100.070312 42.621094 C 100.148438 42.355469 100.109375 41.816406 100.109375 41.425781 C 100.109375 41.289062 100.078125 41.183594 100.023438 41.101562 C 99.929688 40.949219 99.769531 40.882812 99.617188 40.882812 L 99.285156 40.882812 C 99.277344 40.882812 99.269531 40.882812 99.257812 40.878906 C 99.125 40.839844 99.015625 40.5 99.015625 40.359375 L 99.015625 38.523438 C 99.015625 38.375 99.332031 38.042969 99.804688 38.042969 L 102.273438 38.042969 C 102.792969 38.042969 103.0625 38.375 103.0625 38.523438 L 103.0625 40.359375 C 103.0625 40.507812 102.941406 40.882812 102.792969 40.882812 L 102.355469 40.882812 C 102.355469 40.882812 102.132812 40.941406 102.023438 41.1875 C 101.992188 41.265625 101.96875 41.359375 101.96875 41.480469 C 101.96875 41.851562 101.949219 42.316406 101.988281 42.609375 C 102.050781 43.113281 102.28125 44.015625 102.28125 44.4375 C 102.28125 44.457031 102.28125 44.480469 102.28125 44.5 C 102.28125 44.519531 102.28125 44.539062 102.28125 44.5625 C 102.28125 44.984375 102.050781 45.886719 101.988281 46.390625 C 101.949219 46.683594 101.96875 47.144531 101.96875 47.519531 C 101.96875 47.628906 101.988281 47.71875 102.019531 47.796875 C 102.09375 47.988281 102.242188 48.070312 102.3125 48.101562 C 102.339844 48.109375 102.355469 48.113281 102.355469 48.113281 L 102.792969 48.113281 C 102.941406 48.113281 103.0625 48.492188 103.0625 48.640625 L 103.0625 50.476562 C 103.0625 50.625 102.792969 50.957031 102.273438 50.957031 " fill-opacity="1" fill-rule="nonzero"/></g><g clip-path="url(#55ed6e8e24)"><path fill="#f79334" d="M 100.023438 41.101562 C 99.929688 40.949219 99.769531 40.882812 99.617188 40.882812 L 99.285156 40.882812 C 99.277344 40.882812 99.269531 40.882812 99.257812 40.878906 L 100.886719 40.878906 L 100.023438 41.101562 " fill-opacity="1" fill-rule="nonzero"/></g><path fill="#f79334" d="M 102.023438 41.1875 L 101.304688 40.878906 L 102.554688 40.878906 L 102.554688 40.882812 L 102.355469 40.882812 C 102.355469 40.882812 102.132812 40.941406 102.023438 41.1875 " fill-opacity="1" fill-rule="nonzero"/><g clip-path="url(#f44ec30d3e)"><path fill="#f79334" d="M 100.886719 48.101562 L 99.738281 48.101562 C 99.855469 48.074219 99.964844 48.003906 100.035156 47.882812 L 100.886719 48.101562 " fill-opacity="1" fill-rule="nonzero"/></g><path fill="#f79334" d="M 102.3125 48.101562 L 101.304688 48.101562 L 102.019531 47.796875 C 102.09375 47.988281 102.242188 48.070312 102.3125 48.101562 " fill-opacity="1" fill-rule="nonzero"/><g clip-path="url(#9eb3558ab7)"><path fill="#f79334" d="M 102.3125 39.507812 C 102.3125 38.949219 102.421875 38.496094 102.554688 38.496094 C 102.683594 38.496094 102.792969 38.949219 102.792969 39.507812 C 102.792969 40.066406 102.683594 40.519531 102.554688 40.519531 C 102.421875 40.519531 102.3125 40.066406 102.3125 39.507812 " fill-opacity="1" fill-rule="nonzero"/></g><g clip-path="url(#9b3e48b700)"><path fill="#f79334" d="M 102.3125 49.472656 C 102.3125 48.914062 102.421875 48.460938 102.554688 48.460938 C 102.683594 48.460938 102.792969 48.914062 102.792969 49.472656 C 102.792969 50.03125 102.683594 50.484375 102.554688 50.484375 C 102.421875 50.484375 102.3125 50.03125 102.3125 49.472656 " fill-opacity="1" fill-rule="nonzero"/></g><path fill="#f79334" d="M 101.6875 44.5 C 101.6875 43.941406 101.796875 43.488281 101.929688 43.488281 C 102.0625 43.488281 102.167969 43.941406 102.167969 44.5 C 102.167969 45.058594 102.0625 45.511719 101.929688 45.511719 C 101.796875 45.511719 101.6875 45.058594 101.6875 44.5 " fill-opacity="1" fill-rule="nonzero"/></svg>