<svg xmlns="http://www.w3.org/2000/svg" xmlns:xlink="http://www.w3.org/1999/xlink" width="90" zoomAndPan="magnify" viewBox="0 0 67.5 67.499996" height="90" preserveAspectRatio="xMidYMid meet" version="1.0"><defs><clipPath id="855ec4b059"><path d="M 10.777344 4.207031 L 56.527344 4.207031 L 56.527344 63.457031 L 10.777344 63.457031 Z M 10.777344 4.207031 " clip-rule="nonzero"/></clipPath></defs><g clip-path="url(#855ec4b059)"><path fill="#f79334" d="M 56.40625 18.613281 C 56.527344 16.046875 55.9375 13.738281 54.660156 11.746094 C 53.503906 9.953125 51.769531 8.457031 49.5 7.289062 C 48.398438 6.726562 47.148438 6.234375 45.789062 5.820312 C 44.445312 5.414062 42.953125 5.078125 41.363281 4.824219 C 38.074219 4.289062 35.128906 4.230469 33.664062 4.238281 C 32.191406 4.230469 29.246094 4.289062 25.949219 4.820312 C 24.355469 5.078125 22.863281 5.40625 21.527344 5.8125 C 20.167969 6.226562 18.917969 6.722656 17.8125 7.289062 C 15.546875 8.457031 13.8125 9.953125 12.65625 11.746094 C 11.371094 13.738281 10.777344 16.046875 10.90625 18.613281 C 11 20.617188 11.53125 22.777344 12.488281 25.03125 C 13.628906 27.746094 15.117188 29.960938 15.964844 31.132812 C 12.855469 34.871094 11 39.609375 11 44.769531 C 11 51.878906 14.523438 58.195312 19.980469 62.191406 C 21.089844 63.003906 22.421875 63.429688 23.785156 63.429688 L 43.558594 63.429688 C 44.921875 63.429688 46.261719 62.996094 47.363281 62.191406 C 52.824219 58.195312 56.347656 51.878906 56.347656 44.769531 C 56.347656 39.597656 54.484375 34.847656 51.371094 31.105469 C 52.226562 29.933594 53.699219 27.726562 54.835938 25.03125 C 55.78125 22.769531 56.3125 20.609375 56.40625 18.613281 Z M 33.671875 22.910156 C 29.015625 22.910156 24.691406 24.265625 21.09375 26.582031 C 20.46875 25.675781 19.582031 24.265625 18.863281 22.660156 C 17.902344 20.507812 17.039062 17.515625 18.351562 15.46875 C 18.902344 14.609375 19.890625 13.84375 21.277344 13.195312 C 22.761719 12.496094 24.671875 11.957031 26.953125 11.589844 C 28.863281 11.277344 30.683594 11.15625 31.984375 11.109375 L 31.984375 11.128906 L 33.105469 11.089844 C 33.125 11.089844 33.320312 11.082031 33.652344 11.082031 C 33.992188 11.082031 34.1875 11.089844 34.1875 11.089844 L 35.320312 11.128906 L 35.320312 11.109375 C 36.617188 11.15625 38.4375 11.277344 40.347656 11.589844 C 42.621094 11.960938 44.53125 12.496094 46.023438 13.195312 C 47.410156 13.84375 48.398438 14.609375 48.949219 15.46875 C 50.269531 17.515625 49.402344 20.507812 48.4375 22.660156 C 47.726562 24.257812 46.84375 25.652344 46.21875 26.5625 C 42.636719 24.257812 38.316406 22.910156 33.671875 22.910156 Z M 33.671875 22.910156 " fill-opacity="1" fill-rule="nonzero"/></g></svg>