<svg xmlns="http://www.w3.org/2000/svg" xmlns:xlink="http://www.w3.org/1999/xlink" width="70" zoomAndPan="magnify" viewBox="0 0 52.5 52.499999" height="70" preserveAspectRatio="xMidYMid meet" version="1.0"><defs><clipPath id="8a9303fdbe"><path d="M 1.289062 7.050781 L 51.539062 7.050781 L 51.539062 26 L 1.289062 26 Z M 1.289062 7.050781 " clip-rule="nonzero"/></clipPath><clipPath id="4d4416c22a"><path d="M 1.289062 15 L 51.539062 15 L 51.539062 45.300781 L 1.289062 45.300781 Z M 1.289062 15 " clip-rule="nonzero"/></clipPath></defs><g clip-path="url(#8a9303fdbe)"><path fill="#f79334" d="M 26.414062 25.859375 L 51.527344 10.941406 L 51.527344 10.875 C 51.527344 10.371094 51.429688 9.882812 51.234375 9.414062 C 51.039062 8.945312 50.757812 8.53125 50.398438 8.171875 C 50.035156 7.8125 49.617188 7.539062 49.144531 7.34375 C 48.671875 7.148438 48.175781 7.050781 47.664062 7.050781 L 5.160156 7.050781 C 4.648438 7.050781 4.15625 7.148438 3.683594 7.34375 C 3.207031 7.539062 2.789062 7.8125 2.429688 8.171875 C 2.066406 8.53125 1.785156 8.945312 1.589844 9.414062 C 1.394531 9.882812 1.296875 10.371094 1.296875 10.875 L 1.296875 10.941406 Z M 26.414062 25.859375 " fill-opacity="1" fill-rule="nonzero"/></g><g clip-path="url(#4d4416c22a)"><path fill="#f79334" d="M 27.40625 29.726562 C 27.101562 29.910156 26.769531 30 26.414062 30 C 26.054688 30 25.722656 29.910156 25.417969 29.726562 L 1.296875 15.402344 L 1.296875 41.476562 C 1.296875 41.984375 1.394531 42.472656 1.589844 42.941406 C 1.785156 43.410156 2.066406 43.824219 2.429688 44.179688 C 2.789062 44.539062 3.207031 44.816406 3.683594 45.011719 C 4.15625 45.203125 4.648438 45.300781 5.160156 45.300781 L 47.664062 45.300781 C 48.175781 45.300781 48.671875 45.203125 49.144531 45.011719 C 49.617188 44.816406 50.035156 44.539062 50.398438 44.179688 C 50.757812 43.824219 51.039062 43.410156 51.234375 42.941406 C 51.429688 42.472656 51.527344 41.984375 51.527344 41.476562 L 51.527344 15.402344 Z M 27.40625 29.726562 " fill-opacity="1" fill-rule="nonzero"/></g></svg>