<svg xmlns="http://www.w3.org/2000/svg" xmlns:xlink="http://www.w3.org/1999/xlink" width="110" zoomAndPan="magnify" viewBox="0 0 82.5 82.499998" height="110" preserveAspectRatio="xMidYMid meet" version="1.0"><defs><clipPath id="8a6a9af89c"><path d="M 2.101562 0.976562 L 81.523438 0.976562 L 81.523438 80.398438 L 2.101562 80.398438 Z M 2.101562 0.976562 " clip-rule="nonzero"/></clipPath><clipPath id="0495768394"><path d="M 41.8125 0.976562 C 19.878906 0.976562 2.101562 18.753906 2.101562 40.6875 C 2.101562 62.621094 19.878906 80.398438 41.8125 80.398438 C 63.746094 80.398438 81.523438 62.621094 81.523438 40.6875 C 81.523438 18.753906 63.746094 0.976562 41.8125 0.976562 " clip-rule="nonzero"/></clipPath><clipPath id="bd80d11029"><path d="M 27 14.195312 L 43 14.195312 L 43 33 L 27 33 Z M 27 14.195312 " clip-rule="nonzero"/></clipPath><clipPath id="67c401e075"><path d="M 26 14.195312 L 44 14.195312 L 44 33 L 26 33 Z M 26 14.195312 " clip-rule="nonzero"/></clipPath><clipPath id="4852f5cded"><path d="M 36 14.195312 L 62 14.195312 L 62 32 L 36 32 Z M 36 14.195312 " clip-rule="nonzero"/></clipPath><clipPath id="da00dde84b"><path d="M 35 14.195312 L 62 14.195312 L 62 32 L 35 32 Z M 35 14.195312 " clip-rule="nonzero"/></clipPath><clipPath id="18312405df"><path d="M 44 42 L 68 42 L 68 67.445312 L 44 67.445312 Z M 44 42 " clip-rule="nonzero"/></clipPath><clipPath id="435e845acc"><path d="M 43 42 L 68 42 L 68 67.445312 L 43 67.445312 Z M 43 42 " clip-rule="nonzero"/></clipPath><clipPath id="6e4e23a7e7"><path d="M 15.054688 33 L 36 33 L 36 59 L 15.054688 59 Z M 15.054688 33 " clip-rule="nonzero"/></clipPath><clipPath id="1f6d45b628"><path d="M 15.054688 32 L 36 32 L 36 59 L 15.054688 59 Z M 15.054688 32 " clip-rule="nonzero"/></clipPath></defs><g clip-path="url(#8a6a9af89c)"><g clip-path="url(#0495768394)"><path fill="#ffffff" d="M 2.101562 0.976562 L 81.523438 0.976562 L 81.523438 80.398438 L 2.101562 80.398438 Z M 2.101562 0.976562 " fill-opacity="1" fill-rule="nonzero"/></g></g><g clip-path="url(#bd80d11029)"><path fill="#f79334" d="M 27.011719 27 C 27.09375 27.023438 32.914062 27.292969 32.917969 27.289062 C 32.917969 27.292969 35.855469 32.582031 35.902344 32.621094 C 38.019531 28.941406 40.6875 24.375 42.800781 20.699219 C 41.894531 16.785156 39.390625 15.15625 36.09375 14.675781 C 34.6875 14.640625 33.046875 14.796875 31.683594 16.769531 C 31.644531 16.828125 27.011719 26.867188 27.011719 27 Z M 27.011719 27 " fill-opacity="1" fill-rule="evenodd"/></g><g clip-path="url(#67c401e075)"><path stroke-linecap="round" transform="matrix(0.0703156, 0, 0, 0.0710155, 11.530883, 10.472815)" fill="none" stroke-linejoin="round" d="M 220.162218 232.726518 C 221.328833 233.056552 304.102976 236.851939 304.15853 236.796934 C 304.15853 236.851939 345.934473 311.32954 346.60111 311.879596 C 376.710899 260.064308 414.653678 195.762746 444.707914 144.002464 C 431.819591 88.886839 396.210043 65.949498 349.323213 59.183808 C 329.324091 58.688757 305.991782 60.888982 286.603745 88.666817 C 286.048214 89.491901 220.162218 230.856327 220.162218 232.726518 Z M 220.162218 232.726518 " stroke="#000000" stroke-width="7" stroke-opacity="1" stroke-miterlimit="4"/></g><g clip-path="url(#4852f5cded)"><path fill="#f79334" d="M 45.945312 27.953125 L 41.152344 31.128906 L 54.332031 31.132812 L 61.113281 19.214844 C 59.449219 20.074219 57.785156 20.9375 56.121094 21.792969 C 54.734375 19.378906 53.335938 16.96875 51.945312 14.554688 C 51.925781 14.515625 51.90625 14.472656 51.835938 14.472656 C 49.199219 14.507812 46.558594 14.546875 43.9375 14.578125 C 41.304688 14.609375 38.664062 14.640625 36.035156 14.675781 C 37.308594 14.980469 39.097656 15.726562 40.496094 17.566406 C 42.351562 20.015625 43.839844 24.054688 45.945312 27.953125 Z M 45.945312 27.953125 " fill-opacity="1" fill-rule="evenodd"/></g><g clip-path="url(#da00dde84b)"><path stroke-linecap="round" transform="matrix(0.0703156, 0, 0, 0.0710155, 11.530883, 10.472815)" fill="none" stroke-linejoin="round" d="M 489.428172 246.147888 L 421.264498 290.867452 L 608.700713 290.922457 L 705.140922 123.100331 C 681.475295 135.201566 657.809667 147.357806 634.14404 159.404035 C 614.422683 125.410566 594.534668 91.472103 574.757759 57.478634 C 574.479993 56.928578 574.202227 56.323516 573.202271 56.323516 C 535.703918 56.818566 498.150011 57.368622 460.87387 57.808667 C 423.43107 58.248712 385.877163 58.688757 348.489916 59.183808 C 366.600232 63.474246 392.043559 73.980318 411.931575 99.887962 C 438.319305 134.376481 459.485042 191.252286 489.428172 246.147888 Z M 489.428172 246.147888 " stroke="#000000" stroke-width="7" stroke-opacity="1" stroke-miterlimit="4"/></g><path stroke-linecap="round" transform="matrix(0.0703156, 0, 0, 0.0710155, 11.530883, 10.472815)" fill-opacity="1" fill="#f79334" fill-rule="evenodd" stroke-linejoin="round" d="M 700.030036 298.733254 C 699.196739 299.558338 657.309689 374.971035 657.309689 375.02604 C 657.198583 375.02604 575.091077 377.556298 574.25778 377.941338 C 603.145401 430.416693 638.588289 496.203407 667.420356 548.788773 C 719.584732 563.475272 755.749811 541.748054 783.970794 501.92399 C 793.914802 483.772138 803.525491 461.274842 789.470553 430.086659 C 772.471299 402.858881 701.585523 299.66835 700.030036 298.733254 Z M 700.030036 298.733254 " stroke="#000000" stroke-width="7" stroke-opacity="1" stroke-miterlimit="4"/><g clip-path="url(#18312405df)"><path fill="#f79334" d="M 50.890625 48.878906 L 50.570312 42.886719 L 44.222656 55.117188 L 50.828125 67.148438 C 50.917969 65.191406 51.007812 63.234375 51.097656 61.277344 C 53.769531 61.148438 56.4375 61.015625 59.101562 60.886719 C 59.148438 60.886719 59.191406 60.894531 59.226562 60.828125 C 60.457031 58.367188 61.703125 55.902344 62.9375 53.445312 C 64.171875 50.988281 65.886719 47.925781 67.03125 45.367188 C 66.164062 46.398438 64.316406 48.390625 62.117188 48.808594 C 59.199219 49.359375 55.140625 48.792969 50.890625 48.878906 Z M 50.890625 48.878906 " fill-opacity="1" fill-rule="evenodd"/></g><g clip-path="url(#435e845acc)"><path stroke-linecap="round" transform="matrix(0.0703156, 0, 0, 0.0710155, 11.530883, 10.472815)" fill="none" stroke-linejoin="round" d="M 559.758417 540.812959 L 555.203062 456.434348 L 464.929248 628.656924 L 558.869567 798.074213 C 560.147289 770.516401 561.425011 742.958588 562.702732 715.400776 C 600.701064 713.585591 638.643842 711.7154 676.531067 709.900215 C 677.197705 709.900215 677.808789 710.010226 678.308767 709.075131 C 695.807999 674.421594 713.529443 639.713052 731.084227 605.114521 C 748.639012 570.51599 773.02683 527.391589 789.303893 491.362913 C 776.971101 505.884395 750.694477 533.937257 719.418073 539.822858 C 677.919895 547.578649 620.200208 539.602836 559.758417 540.812959 Z M 559.758417 540.812959 " stroke="#000000" stroke-width="7" stroke-opacity="1" stroke-miterlimit="4"/></g><path stroke-linecap="round" transform="matrix(0.0703156, 0, 0, 0.0710155, 11.530883, 10.472815)" fill-opacity="1" fill="#f79334" fill-rule="evenodd" stroke-linejoin="round" d="M 392.210219 698.239025 C 392.265772 697.79898 352.045316 620.68111 351.989763 620.626104 C 352.045316 620.626104 391.654688 544.828369 391.710241 543.948279 C 333.879447 543.56324 261.660396 542.518133 203.774049 542.133094 C 165.331292 582.067169 164.831314 625.796632 183.386055 671.34128 C 193.330063 689.658149 207.051682 709.515175 239.883574 712.59549 C 250.827538 713.310563 390.599178 699.229126 392.210219 698.239025 Z M 392.210219 698.239025 " stroke="#000000" stroke-width="7" stroke-opacity="1" stroke-miterlimit="4"/><g clip-path="url(#6e4e23a7e7)"><path fill="#f79334" d="M 30.117188 42.375 L 35.121094 45.019531 L 28.390625 33.128906 L 15.320312 33.097656 C 16.867188 34.167969 18.34375 35.234375 19.898438 36.304688 C 18.660156 38.808594 17.414062 41.308594 16.183594 43.8125 C 16.160156 43.851562 16.132812 43.894531 16.167969 43.957031 C 17.542969 46.335938 18.925781 48.710938 20.304688 51.085938 C 21.683594 53.460938 23.074219 55.835938 24.457031 58.207031 C 24.046875 56.894531 23.742188 54.886719 24.507812 52.675781 C 25.53125 49.726562 28.046875 46.300781 30.121094 42.375 Z M 30.117188 42.375 " fill-opacity="1" fill-rule="evenodd"/></g><g clip-path="url(#1f6d45b628)"><path stroke-linecap="round" transform="matrix(0.0703156, 0, 0, 0.0710155, 11.530883, 10.472815)" fill="none" stroke-linejoin="round" d="M 264.326945 449.228613 L 335.490487 486.467413 L 239.772468 319.030326 L 53.891741 318.590281 C 75.890775 333.661819 96.889853 348.678351 118.999993 363.749889 C 101.389655 399.008488 83.668211 434.21208 66.16898 469.470678 C 65.835661 470.020735 65.446789 470.625796 65.946767 471.505886 C 85.501464 505.004305 105.167267 538.447718 124.777517 571.891131 C 144.387767 605.334544 164.164677 638.777957 183.83048 672.166364 C 177.997403 653.684478 173.66426 625.411593 184.55267 594.278415 C 199.107587 552.749177 234.883794 504.509254 264.382498 449.228613 Z M 264.326945 449.228613 " stroke="#000000" stroke-width="7" stroke-opacity="1" stroke-miterlimit="4"/></g></svg>