<svg xmlns="http://www.w3.org/2000/svg" xmlns:xlink="http://www.w3.org/1999/xlink" width="70" zoomAndPan="magnify" viewBox="0 0 52.5 52.499999" height="70" preserveAspectRatio="xMidYMid meet" version="1.0"><defs><clipPath id="2100c04f40"><path d="M 2.878906 2.878906 L 49.378906 2.878906 L 49.378906 49.378906 L 2.878906 49.378906 Z M 2.878906 2.878906 " clip-rule="nonzero"/></clipPath></defs><g clip-path="url(#2100c04f40)"><path fill="#1a4789" d="M 49.378906 42.308594 C 49.378906 46.210938 46.21875 49.375 42.316406 49.375 L 9.949219 49.375 C 6.046875 49.375 2.882812 46.210938 2.882812 42.308594 L 2.882812 9.941406 C 2.882812 6.039062 6.046875 2.875 9.949219 2.875 L 42.316406 2.875 C 46.21875 2.875 49.378906 6.039062 49.378906 9.941406 Z M 49.378906 42.308594 " fill-opacity="1" fill-rule="nonzero"/></g><path fill="#ffffff" d="M 33.691406 29.738281 L 34.445312 23.90625 L 28.671875 23.90625 L 28.671875 20.1875 C 28.671875 18.496094 29.140625 17.347656 31.5625 17.347656 L 34.644531 17.34375 L 34.644531 12.132812 C 34.113281 12.058594 32.28125 11.902344 30.148438 11.902344 C 25.695312 11.902344 22.652344 14.617188 22.652344 19.609375 L 22.652344 23.910156 L 17.617188 23.910156 L 17.617188 29.738281 L 22.652344 29.738281 L 22.652344 44.699219 L 28.671875 44.699219 L 28.671875 29.738281 Z M 33.691406 29.738281 " fill-opacity="1" fill-rule="nonzero"/></svg>