<svg xmlns="http://www.w3.org/2000/svg" xmlns:xlink="http://www.w3.org/1999/xlink" width="110" zoomAndPan="magnify" viewBox="0 0 82.5 82.499998" height="110" preserveAspectRatio="xMidYMid meet" version="1.0"><defs><clipPath id="d0f3ca6ca0"><path d="M 1.539062 1.539062 L 80.960938 1.539062 L 80.960938 80.960938 L 1.539062 80.960938 Z M 1.539062 1.539062 " clip-rule="nonzero"/></clipPath><clipPath id="4fd00e82a2"><path d="M 41.25 1.539062 C 19.316406 1.539062 1.539062 19.316406 1.539062 41.25 C 1.539062 63.183594 19.316406 80.960938 41.25 80.960938 C 63.183594 80.960938 80.960938 63.183594 80.960938 41.25 C 80.960938 19.316406 63.183594 1.539062 41.25 1.539062 " clip-rule="nonzero"/></clipPath><clipPath id="9c5fac0a35"><path d="M 13.472656 13.472656 L 68.972656 13.472656 L 68.972656 68.972656 L 13.472656 68.972656 Z M 13.472656 13.472656 " clip-rule="nonzero"/></clipPath></defs><g clip-path="url(#d0f3ca6ca0)"><g clip-path="url(#4fd00e82a2)"><path fill="#ffffff" d="M 1.539062 1.539062 L 80.960938 1.539062 L 80.960938 80.960938 L 1.539062 80.960938 Z M 1.539062 1.539062 " fill-opacity="1" fill-rule="nonzero"/></g></g><path fill="#ffffff" d="M 67.644531 41.222656 C 67.644531 42.089844 67.601562 42.953125 67.515625 43.8125 C 67.429688 44.675781 67.304688 45.53125 67.136719 46.378906 C 66.96875 47.226562 66.757812 48.066406 66.503906 48.894531 C 66.253906 49.722656 65.964844 50.535156 65.632812 51.335938 C 65.300781 52.132812 64.929688 52.914062 64.523438 53.679688 C 64.117188 54.441406 63.671875 55.183594 63.191406 55.902344 C 62.710938 56.621094 62.195312 57.316406 61.644531 57.984375 C 61.097656 58.652344 60.515625 59.292969 59.90625 59.90625 C 59.292969 60.515625 58.652344 61.097656 57.984375 61.644531 C 57.316406 62.195312 56.621094 62.710938 55.902344 63.191406 C 55.183594 63.671875 54.441406 64.117188 53.679688 64.523438 C 52.914062 64.929688 52.132812 65.300781 51.335938 65.632812 C 50.535156 65.964844 49.722656 66.253906 48.894531 66.503906 C 48.066406 66.757812 47.226562 66.96875 46.378906 67.136719 C 45.53125 67.304688 44.675781 67.429688 43.8125 67.515625 C 42.953125 67.601562 42.089844 67.644531 41.222656 67.644531 C 40.359375 67.644531 39.496094 67.601562 38.632812 67.515625 C 37.773438 67.429688 36.917969 67.304688 36.070312 67.136719 C 35.222656 66.96875 34.382812 66.757812 33.554688 66.503906 C 32.726562 66.253906 31.914062 65.964844 31.113281 65.632812 C 30.316406 65.300781 29.535156 64.929688 28.769531 64.523438 C 28.007812 64.117188 27.265625 63.671875 26.546875 63.191406 C 25.828125 62.710938 25.132812 62.195312 24.464844 61.644531 C 23.796875 61.097656 23.15625 60.515625 22.542969 59.90625 C 21.929688 59.292969 21.351562 58.652344 20.800781 57.984375 C 20.253906 57.316406 19.738281 56.621094 19.257812 55.902344 C 18.777344 55.183594 18.332031 54.441406 17.925781 53.679688 C 17.515625 52.914062 17.148438 52.132812 16.816406 51.335938 C 16.484375 50.535156 16.195312 49.722656 15.941406 48.894531 C 15.691406 48.066406 15.480469 47.226562 15.3125 46.378906 C 15.144531 45.53125 15.015625 44.675781 14.933594 43.8125 C 14.847656 42.953125 14.804688 42.089844 14.804688 41.222656 C 14.804688 40.359375 14.847656 39.496094 14.933594 38.632812 C 15.015625 37.773438 15.144531 36.917969 15.3125 36.070312 C 15.480469 35.222656 15.691406 34.382812 15.941406 33.554688 C 16.195312 32.726562 16.484375 31.914062 16.816406 31.113281 C 17.148438 30.316406 17.515625 29.535156 17.925781 28.769531 C 18.332031 28.007812 18.777344 27.265625 19.257812 26.546875 C 19.738281 25.828125 20.253906 25.132812 20.800781 24.464844 C 21.351562 23.796875 21.929688 23.15625 22.542969 22.542969 C 23.15625 21.929688 23.796875 21.351562 24.464844 20.800781 C 25.132812 20.253906 25.828125 19.738281 26.546875 19.257812 C 27.265625 18.777344 28.007812 18.332031 28.769531 17.925781 C 29.535156 17.515625 30.316406 17.148438 31.113281 16.816406 C 31.914062 16.484375 32.726562 16.195312 33.554688 15.941406 C 34.382812 15.691406 35.222656 15.480469 36.070312 15.3125 C 36.917969 15.144531 37.773438 15.015625 38.632812 14.933594 C 39.496094 14.847656 40.359375 14.804688 41.222656 14.804688 C 42.089844 14.804688 42.953125 14.847656 43.8125 14.933594 C 44.675781 15.015625 45.53125 15.144531 46.378906 15.3125 C 47.226562 15.480469 48.066406 15.691406 48.894531 15.941406 C 49.722656 16.195312 50.535156 16.484375 51.335938 16.816406 C 52.132812 17.148438 52.914062 17.515625 53.679688 17.925781 C 54.441406 18.332031 55.183594 18.777344 55.902344 19.257812 C 56.621094 19.738281 57.316406 20.253906 57.984375 20.800781 C 58.652344 21.351562 59.292969 21.929688 59.90625 22.542969 C 60.515625 23.15625 61.097656 23.796875 61.644531 24.464844 C 62.195312 25.132812 62.710938 25.828125 63.191406 26.546875 C 63.671875 27.265625 64.117188 28.007812 64.523438 28.769531 C 64.929688 29.535156 65.300781 30.316406 65.632812 31.113281 C 65.964844 31.914062 66.253906 32.726562 66.503906 33.554688 C 66.757812 34.382812 66.96875 35.222656 67.136719 36.070312 C 67.304688 36.917969 67.429688 37.773438 67.515625 38.632812 C 67.601562 39.496094 67.644531 40.359375 67.644531 41.222656 Z M 67.644531 41.222656 " fill-opacity="1" fill-rule="nonzero"/><g clip-path="url(#9c5fac0a35)"><path fill="#f79334" d="M 51.832031 51.566406 L 48.304688 32.917969 C 48.199219 32.375 47.867188 31.882812 47.375 31.5625 L 43.128906 28.792969 L 39.492188 26.425781 C 38.75 25.933594 37.671875 26.144531 37.152344 26.863281 L 34.636719 30.390625 L 31.695312 34.515625 C 31.347656 34.996094 31.214844 35.566406 31.320312 36.125 L 34.847656 54.773438 C 35.046875 55.835938 36.179688 56.515625 37.363281 56.304688 L 50.035156 53.90625 C 51.234375 53.667969 52.03125 52.628906 51.832031 51.566406 Z M 38.601562 28.074219 C 38.933594 28.007812 39.253906 28.234375 39.308594 28.554688 C 39.375 28.886719 39.148438 29.207031 38.828125 29.257812 C 38.496094 29.324219 38.175781 29.097656 38.125 28.78125 C 38.054688 28.460938 38.269531 28.140625 38.601562 28.074219 Z M 45.644531 45.257812 C 45.617188 45.628906 45.523438 45.976562 45.375 46.320312 C 45.175781 46.773438 44.882812 47.1875 44.523438 47.53125 C 44.140625 47.890625 43.714844 48.171875 43.21875 48.371094 C 43.152344 48.398438 43.128906 48.425781 43.140625 48.492188 C 43.234375 48.945312 43.3125 49.394531 43.40625 49.847656 C 43.421875 49.929688 43.433594 50.007812 43.460938 50.089844 C 43.488281 50.234375 43.40625 50.421875 43.246094 50.449219 C 42.792969 50.539062 42.328125 50.632812 41.875 50.699219 C 41.703125 50.726562 41.570312 50.59375 41.542969 50.421875 C 41.449219 49.929688 41.371094 49.449219 41.277344 48.957031 C 41.265625 48.890625 41.238281 48.863281 41.15625 48.863281 C 40.917969 48.890625 40.679688 48.902344 40.4375 48.917969 C 40.210938 48.917969 39.988281 48.917969 39.761719 48.890625 C 39.480469 48.863281 39.203125 48.824219 38.933594 48.757812 C 38.683594 48.703125 38.429688 48.609375 38.191406 48.519531 C 38.03125 48.453125 37.976562 48.277344 38.015625 48.050781 C 38.097656 47.652344 38.164062 47.265625 38.230469 46.867188 C 38.269531 46.601562 38.496094 46.496094 38.75 46.5625 C 39.09375 46.667969 39.453125 46.773438 39.8125 46.828125 C 40.1875 46.878906 40.570312 46.90625 40.945312 46.878906 C 41.597656 46.839844 42.222656 46.679688 42.742188 46.253906 C 43.113281 45.949219 43.3125 45.550781 43.273438 45.070312 C 43.234375 44.578125 42.980469 44.191406 42.554688 43.925781 C 42.195312 43.699219 41.796875 43.566406 41.382812 43.472656 C 40.8125 43.339844 40.226562 43.234375 39.652344 43.085938 C 38.949219 42.914062 38.28125 42.648438 37.722656 42.195312 C 37.203125 41.769531 36.871094 41.222656 36.726562 40.558594 C 36.566406 39.800781 36.632812 39.054688 36.992188 38.363281 C 37.257812 37.855469 37.617188 37.429688 38.097656 37.113281 C 38.402344 36.898438 38.734375 36.726562 39.066406 36.527344 C 38.976562 36.019531 38.855469 35.488281 38.773438 34.957031 C 38.734375 34.730469 38.789062 34.570312 39.160156 34.503906 C 39.535156 34.4375 39.894531 34.371094 40.265625 34.289062 C 40.4375 34.261719 40.613281 34.371094 40.652344 34.554688 C 40.757812 35.0625 40.839844 35.554688 40.929688 36.046875 L 41.558594 36.046875 C 41.785156 36.046875 42.023438 36.035156 42.25 36.046875 C 42.554688 36.085938 42.847656 36.140625 43.152344 36.207031 C 43.261719 36.234375 43.367188 36.261719 43.472656 36.300781 C 43.660156 36.367188 43.726562 36.5 43.6875 36.726562 L 43.445312 38.003906 C 43.394531 38.257812 43.21875 38.347656 42.96875 38.269531 C 42.582031 38.164062 42.195312 38.070312 41.785156 38.042969 C 41.078125 38.003906 40.386719 38.082031 39.746094 38.402344 C 39.308594 38.617188 39.027344 38.976562 39 39.46875 C 38.976562 39.945312 39.1875 40.320312 39.613281 40.558594 C 40.054688 40.8125 40.53125 40.929688 41.011719 41.039062 C 41.703125 41.199219 42.421875 41.289062 43.085938 41.542969 C 43.714844 41.769531 44.285156 42.074219 44.75 42.570312 C 45.175781 43.019531 45.429688 43.566406 45.5625 44.164062 C 45.644531 44.550781 45.65625 44.910156 45.644531 45.257812 Z M 41.222656 68.972656 C 25.917969 68.972656 13.472656 56.53125 13.472656 41.222656 C 13.472656 25.917969 25.917969 13.472656 41.222656 13.472656 C 56.53125 13.472656 68.972656 25.917969 68.972656 41.222656 C 68.972656 56.53125 56.53125 68.972656 41.222656 68.972656 Z M 41.222656 16.136719 C 27.394531 16.136719 16.136719 27.394531 16.136719 41.222656 C 16.136719 55.050781 27.394531 66.3125 41.222656 66.3125 C 55.050781 66.3125 66.3125 55.050781 66.3125 41.222656 C 66.3125 27.394531 55.050781 16.136719 41.222656 16.136719 Z M 41.222656 16.136719 " fill-opacity="1" fill-rule="nonzero"/></g></svg>